<?xml version="1.0" standalone="no"?>
<!DOCTYPE svg PUBLIC "-//W3C//DTD SVG 20010904//EN"
 "http://www.w3.org/TR/2001/REC-SVG-20010904/DTD/svg10.dtd">
<svg version="1.0" xmlns="http://www.w3.org/2000/svg"
 width="1200.000000pt" height="628.000000pt" viewBox="0 0 1200.000000 628.000000"
 preserveAspectRatio="xMidYMid meet">

<g transform="translate(0.000000,628.000000) scale(0.100000,-0.100000)"
fill="#000000" stroke="none">
<path d="M4901 6184 c0 -52 -3 -99 -6 -104 -3 -5 -8 -36 -11 -67 -3 -32 -7
-78 -9 -103 -20 -210 -25 -283 -24 -335 1 -33 1 -76 1 -95 0 -19 -21 -88 -47
-153 l-47 -117 -47 39 c-25 21 -55 48 -65 60 -34 37 -43 26 -61 -74 -10 -52
-20 -95 -24 -95 -3 0 -42 31 -86 70 -80 70 -111 86 -101 53 13 -44 57 -264 54
-272 -2 -5 -88 22 -193 59 -191 70 -219 78 -213 60 2 -5 57 -77 123 -160 66
-84 121 -155 123 -159 1 -4 -66 -25 -150 -47 -83 -21 -153 -44 -155 -49 -2 -6
64 -44 147 -85 l149 -75 -55 -105 c-105 -202 -128 -249 -123 -255 3 -3 86 24
185 59 98 36 180 63 183 61 2 -3 9 -83 15 -179 6 -96 15 -178 19 -183 8 -7 30
15 65 67 52 78 136 180 142 173 4 -4 27 -90 51 -191 25 -104 48 -181 54 -179
5 2 39 81 75 175 36 95 67 172 70 172 3 0 38 -47 78 -105 40 -58 77 -105 82
-105 12 0 16 20 32 149 l13 105 129 -142 c72 -79 135 -141 140 -139 7 2 12 77
14 215 1 117 4 212 7 212 2 0 50 -18 107 -40 56 -22 105 -36 109 -32 4 4 -18
57 -47 117 l-54 110 184 5 c162 4 210 10 195 24 -2 2 -77 50 -167 106 -89 57
-159 107 -155 111 4 4 54 30 111 58 56 28 102 56 102 61 0 6 -3 10 -7 10 -28
0 -257 30 -260 34 -3 3 59 75 136 161 78 85 139 159 137 164 -3 5 -92 -25
-197 -65 -106 -41 -194 -73 -196 -71 -2 3 0 29 5 59 5 30 7 59 5 65 -2 6 -34
2 -91 -13 -48 -13 -90 -24 -94 -24 -5 0 -8 63 -8 139 0 92 -4 142 -11 147 -6
3 -14 2 -18 -3 -3 -6 -49 -61 -101 -122 l-94 -111 -23 37 c-12 20 -20 40 -18
44 3 4 -2 12 -10 19 -8 7 -13 16 -10 20 8 13 -16 111 -25 105 -5 -3 -9 9 -8
27 0 18 -2 74 -5 123 -2 50 0 95 5 101 4 6 13 56 18 110 5 55 14 137 20 184
16 138 22 239 15 260 -5 15 -15 20 -45 20 l-39 0 0 -96z m39 -873 c20 -80 40
-146 46 -148 5 -2 59 55 119 125 l110 129 7 -51 c3 -28 6 -88 7 -133 1 -46 4
-83 9 -83 4 0 46 11 95 24 l87 25 -6 -57 c-4 -31 -7 -61 -8 -67 -2 -19 49 -5
199 54 83 32 152 57 154 55 2 -2 -53 -66 -123 -144 -69 -77 -126 -144 -126
-149 0 -11 41 -18 145 -27 44 -4 86 -10 93 -13 7 -4 -20 -23 -68 -46 -44 -22
-87 -49 -95 -61 -13 -21 -9 -25 135 -115 l148 -94 -169 -6 c-94 -4 -173 -9
-176 -13 -4 -4 16 -54 45 -111 28 -58 50 -105 47 -105 -3 0 -48 16 -100 36
-53 20 -97 35 -100 32 -2 -2 -5 -84 -5 -181 -2 -261 8 -254 -140 -93 -69 75
-130 136 -136 136 -7 0 -16 -47 -24 -120 -7 -66 -16 -120 -20 -120 -3 0 -38
45 -76 100 -38 55 -72 100 -76 100 -11 0 -21 -23 -78 -175 -29 -77 -55 -143
-59 -147 -4 -5 -26 73 -50 172 -24 99 -47 182 -52 185 -4 3 -51 -51 -103 -120
-70 -94 -96 -121 -100 -108 -3 10 -8 84 -12 165 -4 80 -9 151 -13 156 -4 7
-69 -11 -175 -49 -93 -33 -171 -58 -173 -56 -2 2 35 77 83 166 47 90 84 164
82 166 -2 1 -66 34 -143 73 l-140 70 55 15 c30 9 97 27 149 41 51 14 96 27 98
30 3 2 -48 70 -112 151 -65 80 -116 148 -113 150 2 2 78 -22 169 -54 222 -79
209 -76 209 -54 0 10 -11 69 -26 131 -14 63 -24 118 -22 122 2 5 37 -20 78
-56 41 -35 79 -62 85 -61 5 2 13 23 18 48 4 24 13 68 18 98 l11 54 63 -63 c36
-36 69 -61 77 -58 7 3 40 72 72 154 33 81 62 141 65 133 2 -8 21 -79 41 -158z"/>
<path d="M6369 6133 c-1 -82 -3 -287 -5 -458 -2 -170 -6 -575 -9 -900 -2 -324
-9 -625 -14 -668 -10 -89 -97 -329 -118 -325 -6 2 -48 38 -92 80 -44 43 -86
78 -94 78 -10 0 -20 -35 -36 -117 -12 -65 -25 -126 -27 -136 -4 -14 -27 1
-112 75 -59 51 -113 99 -121 106 -34 33 -32 -10 9 -198 23 -105 40 -193 37
-196 -3 -3 -120 35 -260 85 -278 98 -288 101 -294 86 -2 -6 73 -107 167 -224
93 -118 167 -217 164 -220 -3 -3 -96 -31 -206 -61 -111 -30 -203 -60 -205 -67
-3 -7 82 -55 201 -115 l204 -103 -124 -233 c-68 -128 -124 -237 -124 -242 0
-19 32 -10 256 70 124 44 231 80 239 80 9 0 15 -10 15 -22 0 -13 7 -117 15
-233 8 -115 15 -216 15 -222 0 -28 29 -10 67 40 21 28 79 105 127 170 85 113
106 133 106 103 0 -23 117 -497 125 -504 13 -13 32 28 110 235 43 115 82 216
87 226 8 15 27 -8 114 -133 58 -82 109 -150 114 -150 13 0 17 21 35 170 9 74
18 145 21 157 4 19 31 -6 181 -167 97 -105 182 -190 188 -190 13 0 25 224 25
457 0 67 2 123 5 123 2 0 64 -22 137 -50 73 -28 138 -50 145 -50 23 0 14 29
-58 171 -38 78 -69 143 -67 144 2 2 117 6 257 9 139 3 255 7 258 10 10 10 -9
25 -114 91 -60 37 -124 78 -143 90 -19 13 -73 47 -119 76 l-84 53 152 75 c173
85 186 102 86 112 -33 4 -113 12 -177 19 -65 7 -118 15 -118 19 0 3 10 17 23
31 12 14 40 46 62 71 22 25 98 110 168 188 84 94 125 147 119 153 -6 6 -79
-17 -208 -67 -110 -42 -227 -88 -261 -101 l-63 -24 0 23 c0 12 5 51 10 86 5
36 7 68 4 72 -2 4 -53 -6 -112 -22 -59 -16 -117 -32 -129 -35 l-23 -6 0 196
c0 180 -1 196 -17 196 -11 0 -81 -74 -172 -180 -84 -100 -155 -179 -157 -177
-2 1 -28 104 -59 227 -49 197 -55 233 -50 287 4 34 3 68 0 74 -4 6 -7 105 -6
219 1 130 -3 211 -9 215 -5 3 -10 13 -10 21 0 8 4 13 9 10 5 -4 9 36 9 92 0
53 -5 100 -10 103 -7 4 -6 13 0 26 6 10 10 49 10 87 0 37 3 70 6 73 3 4 -1 14
-9 23 -12 13 -13 23 -5 44 13 35 13 89 0 81 -5 -3 -10 1 -10 9 0 8 4 17 9 20
12 8 12 407 0 422 -6 7 -6 21 0 35 4 13 9 106 9 206 0 100 3 187 7 193 3 5 3
19 0 30 -5 15 -15 20 -41 20 l-34 0 -1 -147z m107 -2206 c47 -195 65 -244 81
-221 5 6 73 86 153 179 l145 169 7 -50 c3 -27 7 -106 7 -176 1 -70 5 -129 10
-133 6 -3 58 8 118 25 131 36 137 37 130 8 -3 -13 -9 -54 -13 -92 l-7 -69 29
5 c16 3 127 44 246 90 120 47 215 81 211 74 -4 -6 -79 -91 -167 -190 -173
-191 -183 -204 -170 -216 5 -4 81 -15 169 -25 88 -9 162 -19 164 -21 2 -1 -58
-33 -133 -71 -75 -37 -136 -73 -136 -79 0 -6 66 -53 148 -104 81 -51 176 -111
212 -134 l64 -41 -234 -3 c-129 -1 -238 -6 -243 -11 -4 -4 15 -57 44 -117 100
-208 91 -187 72 -181 -10 3 -70 26 -133 50 -63 25 -119 42 -123 38 -4 -5 -11
-133 -14 -286 l-6 -278 -41 44 c-23 24 -93 100 -156 169 -153 166 -158 170
-169 170 -11 0 -15 -24 -37 -205 -8 -71 -16 -131 -18 -132 -2 -2 -62 81 -170
235 -16 23 -35 42 -42 42 -12 0 -35 -55 -134 -320 -24 -63 -46 -118 -50 -123
-3 -4 -32 104 -64 240 -32 137 -62 252 -66 256 -11 12 -31 -12 -158 -181 -63
-84 -116 -151 -119 -149 -2 3 -11 105 -19 228 -8 123 -18 227 -23 232 -5 5
-83 -18 -177 -51 -259 -92 -287 -102 -292 -98 -2 3 19 46 46 98 158 295 181
342 176 350 -3 5 -89 51 -192 102 l-186 93 85 22 c197 52 305 84 313 92 12 11
3 22 -171 241 -73 91 -133 169 -133 172 0 3 57 -15 128 -40 310 -111 385 -135
392 -127 4 4 -10 87 -31 183 -22 96 -38 178 -36 183 1 5 49 -32 107 -82 57
-50 109 -90 115 -88 5 2 22 61 36 131 14 70 29 126 35 125 5 -1 44 -34 87 -73
43 -39 85 -71 93 -71 11 0 41 62 97 202 45 111 85 199 88 195 4 -4 28 -96 55
-205z"/>
<path d="M314 5960 c-11 -4 -28 -21 -38 -37 -17 -28 -17 -28 2 -6 11 12 23 19
27 15 5 -4 5 -1 1 6 -4 7 -1 12 8 12 19 0 20 -13 5 -43 -10 -21 -10 -21 5 -3
15 19 16 16 16 -33 0 -39 -3 -50 -12 -45 -10 6 -10 5 -1 -7 6 -8 13 -27 16
-44 2 -16 5 18 6 77 0 59 -2 109 -6 111 -5 3 -17 1 -29 -3z"/>
<path d="M364 5961 c4 -6 16 -11 27 -11 11 0 18 -4 14 -9 -3 -6 4 -15 16 -21
16 -9 20 -19 17 -41 -3 -17 -1 -32 4 -35 18 -12 6 63 -15 87 -22 27 -76 52
-63 30z"/>
<path d="M260 5861 c0 -6 4 -13 10 -16 6 -3 7 1 4 9 -7 18 -14 21 -14 7z"/>
<path d="M290 5866 c0 -2 8 -10 18 -17 15 -13 16 -12 3 4 -13 16 -21 21 -21
13z"/>
<path d="M498 5853 c7 -3 16 -2 19 1 4 3 -2 6 -13 5 -11 0 -14 -3 -6 -6z"/>
<path d="M252 5820 c0 -14 2 -19 5 -12 2 6 2 18 0 25 -3 6 -5 1 -5 -13z"/>
<path d="M290 5766 c0 -2 7 -6 15 -10 8 -3 15 -1 15 4 0 6 -7 10 -15 10 -8 0
-15 -2 -15 -4z"/>
<path d="M385 5760 c3 -5 12 -7 20 -3 21 7 19 13 -6 13 -11 0 -18 -4 -14 -10z"/>
<path d="M330 5730 c0 -5 11 -10 25 -10 14 0 25 5 25 10 0 6 -11 10 -25 10
-14 0 -25 -4 -25 -10z"/>
<path d="M348 5683 c7 -3 16 -2 19 1 4 3 -2 6 -13 5 -11 0 -14 -3 -6 -6z"/>
<path d="M626 5618 c-3 -13 -7 -53 -11 -91 -5 -56 -3 -68 10 -73 22 -9 25 -3
33 53 l8 48 13 -47 c16 -56 38 -69 51 -30 25 68 27 69 35 19 6 -37 11 -47 24
-45 14 3 15 16 12 88 -1 47 -7 89 -11 93 -18 20 -48 -4 -60 -48 -14 -52 -25
-57 -35 -17 -9 38 -33 72 -50 72 -8 0 -17 -10 -19 -22z"/>
<path d="M831 5631 c-17 -11 -7 -41 13 -41 22 0 30 20 15 36 -9 8 -19 10 -28
5z"/>
<path d="M1120 5601 c0 -36 -2 -38 -25 -33 -53 10 -88 -65 -47 -100 10 -9 36
-15 65 -15 l47 0 0 94 c0 86 -1 93 -20 93 -17 0 -20 -7 -20 -39z m-2 -90 c-2
-9 -11 -17 -21 -19 -21 -4 -35 27 -17 38 19 12 42 0 38 -19z"/>
<path d="M1184 5627 c-2 -7 -4 -49 -2 -93 3 -71 5 -79 23 -79 16 0 21 8 23 38
3 32 7 37 28 37 15 0 24 6 24 15 0 9 -9 15 -25 15 -18 0 -25 5 -25 20 0 16 7
20 31 20 24 0 30 4 27 18 -4 22 -95 31 -104 9z"/>
<path d="M1582 5548 c3 -79 6 -93 21 -96 15 -3 17 6 17 92 0 90 -1 96 -20 96
-20 0 -21 -5 -18 -92z"/>
<path d="M1732 5563 c-17 -43 -33 -86 -37 -95 -6 -14 -2 -18 15 -18 13 0 24 8
27 20 4 16 14 20 43 20 29 0 39 -4 43 -20 5 -20 31 -27 41 -12 5 9 -49 149
-66 169 -21 26 -37 11 -66 -64z m61 -13 c4 -15 0 -20 -14 -20 -17 0 -18 3 -9
20 6 11 12 20 14 20 2 0 6 -9 9 -20z"/>
<path d="M2220 5602 c0 -37 -1 -38 -28 -34 -36 5 -62 -19 -62 -57 0 -41 28
-61 81 -58 l44 2 3 93 c3 87 2 92 -18 92 -17 0 -20 -6 -20 -38z m-2 -91 c-2
-9 -11 -17 -21 -19 -21 -4 -35 27 -17 38 19 12 42 0 38 -19z"/>
<path d="M827 5563 c-4 -3 -7 -28 -7 -55 0 -35 4 -50 16 -55 24 -9 31 7 26 65
-4 48 -16 64 -35 45z"/>
<path d="M892 5512 c2 -44 7 -58 20 -60 13 -3 17 6 20 40 4 58 31 60 38 3 3
-27 10 -41 23 -43 14 -3 17 4 17 46 0 27 -6 54 -13 60 -6 6 -34 10 -60 10
l-48 0 3 -56z"/>
<path d="M1310 5521 c0 -39 4 -53 19 -61 30 -16 66 -12 85 9 23 25 19 94 -6
99 -15 3 -18 -4 -18 -37 0 -34 -3 -41 -19 -41 -16 0 -20 8 -23 37 -2 27 -8 39
-20 41 -15 3 -18 -4 -18 -47z"/>
<path d="M1466 5554 c-34 -33 -8 -104 38 -104 23 0 56 18 56 31 0 6 -14 9 -32
7 -17 -2 -33 2 -35 8 -2 7 10 11 33 11 44 -1 53 14 25 42 -25 25 -63 27 -85 5z
m51 -20 c-3 -3 -12 -4 -19 -1 -8 3 -5 6 6 6 11 1 17 -2 13 -5z"/>
<path d="M1890 5550 c-26 -26 -25 -50 1 -79 14 -14 30 -21 47 -19 33 4 36 32
5 36 -32 5 -30 40 3 52 14 6 22 14 19 20 -10 17 -54 11 -75 -10z"/>
<path d="M1996 5551 c-20 -22 -20 -50 0 -79 13 -18 23 -22 62 -19 l47 3 3 56
3 56 -50 0 c-34 1 -54 -4 -65 -17z m74 -42 c0 -12 -7 -19 -19 -19 -26 0 -36
17 -21 35 15 18 40 8 40 -16z"/>
<path d="M2297 5552 c-10 -10 -17 -30 -17 -45 0 -44 68 -75 98 -45 19 19 14
30 -10 28 -38 -3 -50 -1 -43 10 3 6 22 10 41 10 39 0 43 11 14 40 -25 25 -62
26 -83 2z m56 -19 c-7 -2 -19 -2 -25 0 -7 3 -2 5 12 5 14 0 19 -2 13 -5z"/>
<path d="M2420 5508 c0 -51 2 -59 18 -56 12 2 18 15 20 46 4 54 25 51 32 -4 3
-26 11 -40 22 -42 13 -3 17 6 20 40 2 30 7 43 18 43 11 0 16 -13 18 -43 3 -34
7 -43 20 -40 20 4 30 84 12 102 -6 6 -48 11 -95 12 l-85 1 0 -59z"/>
<path d="M2620 5563 c0 -5 11 -26 24 -49 23 -41 23 -41 4 -77 l-18 -37 22 0
c18 0 31 15 63 77 22 42 42 81 43 85 2 4 -6 8 -17 8 -13 0 -26 -10 -33 -25 -6
-14 -14 -25 -18 -25 -4 0 -12 11 -18 25 -10 23 -52 37 -52 18z"/>
<path d="M274 5362 c-19 -13 -23 -41 -8 -57 17 -16 40 -20 48 -7 3 5 -5 8 -17
8 -17 -1 -22 5 -22 24 0 19 5 25 22 24 12 0 20 3 17 8 -6 10 -25 10 -40 0z"/>
<path d="M581 5333 c-1 -36 2 -43 18 -43 10 0 24 6 30 14 15 18 3 46 -19 46
-10 0 -21 6 -23 13 -3 6 -6 -7 -6 -30z m39 -13 c0 -11 -4 -20 -9 -20 -14 0
-23 18 -16 30 10 17 25 11 25 -10z"/>
<path d="M1945 5358 c-4 -9 -5 -26 -3 -37 3 -20 4 -20 14 3 6 13 8 30 3 37 -6
11 -9 10 -14 -3z"/>
<path d="M2720 5361 c0 -5 -10 -11 -22 -13 -17 -2 -23 -10 -23 -28 0 -20 5
-25 28 -26 25 -1 27 2 27 37 0 22 -2 39 -5 39 -3 0 -5 -4 -5 -9z m-4 -32 c10
-17 -13 -36 -27 -22 -12 12 -4 33 11 33 5 0 12 -5 16 -11z"/>
<path d="M1830 5351 c-36 -10 -36 -56 0 -56 20 0 25 5 27 33 2 17 2 32 0 31
-1 -1 -13 -4 -27 -8z m10 -31 c0 -11 -7 -20 -15 -20 -8 0 -15 9 -15 20 0 11 7
20 15 20 8 0 15 -9 15 -20z"/>
<path d="M2092 5329 c4 -42 23 -49 22 -7 0 18 -6 34 -13 36 -9 3 -11 -6 -9
-29z"/>
<path d="M355 5329 c-5 -14 -2 -25 6 -30 24 -15 44 -5 44 21 0 34 -40 41 -50
9z m41 0 c10 -17 -13 -36 -27 -22 -12 12 -4 33 11 33 5 0 12 -5 16 -11z"/>
<path d="M449 5347 c-7 -23 -7 -47 1 -47 6 0 10 9 10 21 0 28 24 19 29 -12 l4
-24 6 23 c3 13 11 23 16 23 6 0 13 -10 17 -23 6 -19 7 -18 5 7 -2 28 -5 30
-44 32 -24 2 -43 2 -44 0z"/>
<path d="M672 5320 c0 -19 2 -27 5 -17 2 9 2 25 0 35 -3 9 -5 1 -5 -18z"/>
<path d="M721 5318 c1 -30 2 -30 8 -9 8 31 31 40 31 12 0 -11 5 -23 10 -26 6
-3 10 0 10 9 0 30 -13 46 -36 46 -21 0 -24 -5 -23 -32z"/>
<path d="M814 5336 c-9 -23 3 -46 23 -46 17 1 17 1 1 11 -10 5 -18 17 -18 24
0 17 26 20 33 5 3 -6 4 -5 3 2 -4 19 -35 22 -42 4z"/>
<path d="M895 5341 c-9 -16 9 -20 23 -5 10 12 10 14 -2 14 -8 0 -17 -4 -21 -9z"/>
<path d="M1015 5341 c-3 -5 -1 -12 5 -16 5 -3 10 -2 10 4 0 5 8 12 18 14 13 4
12 5 -5 6 -12 0 -24 -3 -28 -8z"/>
<path d="M1093 5325 c2 -25 6 -30 27 -30 19 0 25 5 26 23 1 12 -3 22 -7 22 -5
0 -9 -9 -9 -21 0 -27 -22 -19 -32 12 -6 22 -7 21 -5 -6z"/>
<path d="M1184 5335 c-8 -19 13 -45 35 -44 10 0 8 4 -7 10 -26 10 -25 35 2 33
9 -1 16 2 16 7 0 15 -40 10 -46 -6z"/>
<path d="M1265 5329 c-8 -23 8 -39 35 -38 8 0 4 4 -8 10 -26 10 -25 35 2 33 9
-1 16 2 16 7 0 19 -39 8 -45 -12z"/>
<path d="M1347 5343 c-14 -14 -6 -42 14 -48 11 -4 23 -4 26 -1 4 3 -1 6 -10 6
-10 0 -17 8 -17 20 0 11 5 20 10 20 6 0 10 -4 10 -10 0 -5 4 -10 10 -10 5 0 7
7 4 15 -6 15 -35 20 -47 8z"/>
<path d="M1430 5335 c0 -9 8 -19 17 -22 15 -6 15 -7 -3 -14 -17 -7 -17 -8 4
-8 13 -1 22 5 22 14 0 8 -7 15 -15 15 -21 0 -19 18 3 23 13 4 11 5 -5 6 -15 1
-23 -5 -23 -14z"/>
<path d="M1504 5339 c-4 -7 1 -16 12 -22 17 -10 17 -11 -1 -18 -19 -7 -18 -8
3 -8 26 -1 30 24 5 34 -17 7 -16 8 2 15 16 7 17 9 3 9 -9 1 -20 -4 -24 -10z"/>
<path d="M1639 5341 c20 -13 23 -41 5 -41 -9 0 -12 5 -9 10 3 6 1 10 -5 10
-21 0 -4 -25 19 -28 19 -3 22 0 19 25 -2 19 -9 29 -23 31 -16 2 -17 1 -6 -7z"/>
<path d="M1711 5323 c0 -27 1 -27 9 -5 13 30 30 28 30 -5 0 -17 3 -24 10 -17
17 17 0 54 -26 54 -20 0 -24 -5 -23 -27z"/>
<path d="M2004 5320 c1 -20 6 -25 26 -25 19 0 25 5 26 23 1 12 -3 22 -7 22 -5
0 -9 -9 -9 -20 0 -27 -28 -25 -33 3 -3 19 -4 19 -3 -3z"/>
<path d="M2150 5333 c1 -52 54 -59 57 -8 2 27 1 28 -5 6 -9 -31 -32 -40 -32
-12 0 11 -4 23 -10 26 -5 3 -10 -2 -10 -12z"/>
<path d="M2251 5323 c0 -16 3 -22 6 -13 3 8 10 21 16 28 7 8 5 12 -7 12 -11 0
-16 -8 -15 -27z"/>
<path d="M2314 5336 c-9 -23 3 -46 23 -45 15 0 15 2 3 7 -16 8 -26 42 -12 42
4 0 14 -6 21 -12 11 -11 13 -10 9 2 -6 21 -37 25 -44 6z"/>
<path d="M2444 5335 c-10 -26 1 -35 13 -10 6 14 7 25 2 25 -5 0 -12 -7 -15
-15z"/>
<path d="M2504 5335 c-10 -24 4 -45 28 -44 17 1 18 2 6 6 -10 2 -18 13 -18 24
0 21 16 26 23 7 2 -7 8 -10 12 -6 11 11 -4 28 -26 28 -11 0 -22 -7 -25 -15z"/>
<path d="M2603 5344 c18 -6 24 -44 6 -44 -5 0 -7 5 -4 10 3 6 1 10 -4 10 -6 0
-11 -7 -11 -15 0 -9 10 -15 26 -15 22 0 25 4 22 28 -2 21 -9 27 -28 29 -14 1
-18 0 -7 -3z"/>
<path d="M2772 5320 c0 -19 2 -27 5 -17 2 9 2 25 0 35 -3 9 -5 1 -5 -18z"/>
<path d="M2821 5318 c2 -31 2 -31 6 -5 5 33 24 31 35 -4 6 -22 7 -21 5 6 -2
23 -7 31 -24 33 -20 3 -23 -1 -22 -30z"/>
<path d="M2914 5336 c-9 -23 3 -46 23 -45 15 0 15 2 3 7 -20 9 -25 42 -6 42 8
0 17 -5 19 -10 3 -6 4 -5 3 2 -4 19 -35 22 -42 4z"/>
<path d="M2990 5333 c0 -11 3 -14 8 -7 4 6 14 14 22 17 10 4 8 6 -7 6 -16 1
-23 -5 -23 -16z"/>
<path d="M3067 5343 c-13 -12 -7 -22 16 -29 21 -7 21 -7 2 -15 -19 -8 -19 -9
-1 -6 24 3 34 27 12 27 -22 0 -20 17 2 23 14 4 13 5 -4 6 -11 0 -24 -2 -27 -6z"/>
<path d="M911 5304 c-12 -14 -11 -16 4 -12 10 1 20 9 23 16 5 17 -10 15 -27
-4z"/>
<path d="M1045 5311 c3 -5 -2 -12 -10 -14 -12 -4 -12 -5 1 -3 19 1 32 26 14
26 -6 0 -9 -4 -5 -9z"/>
<path d="M3014 5312 c3 -6 -2 -13 -11 -16 -12 -3 -10 -4 5 -3 24 2 32 19 11
26 -6 2 -9 -1 -5 -7z"/>
<path d="M1315 4980 c-416 -5 -432 -6 -485 -27 -72 -30 -104 -52 -167 -114
-54 -54 -105 -145 -122 -219 -15 -66 -13 -187 5 -255 42 -165 202 -314 368
-344 37 -7 223 -11 491 -11 459 0 492 3 593 51 55 27 148 112 183 168 16 24
37 71 49 105 l20 61 132 29 c73 16 137 32 141 36 4 4 -18 12 -50 19 -32 7 -94
23 -139 37 l-81 24 -6 52 c-9 70 -64 180 -127 250 -80 90 -236 155 -350 146
-14 -2 -218 -5 -455 -8z m592 -40 c103 -34 177 -88 232 -169 48 -72 72 -132
80 -201 l6 -55 90 -26 c97 -29 97 -30 -16 -54 -75 -16 -77 -17 -83 -50 -21
-111 -133 -251 -241 -301 -91 -43 -130 -45 -617 -42 l-463 3 -67 33 c-97 47
-180 127 -224 217 -30 61 -37 87 -41 159 -14 212 70 370 243 456 l69 35 315 5
c454 7 672 4 717 -10z"/>
<path d="M822 4838 c-22 -22 -14 -55 18 -68 32 -13 40 -30 15 -30 -8 0 -15 5
-15 10 0 6 -9 10 -20 10 -25 0 -26 -18 -2 -36 27 -21 70 -17 82 7 16 28 6 48
-30 60 -31 11 -41 29 -15 29 8 0 15 -4 15 -10 0 -5 9 -10 20 -10 25 0 26 18 3
36 -22 17 -55 18 -71 2z"/>
<path d="M996 4843 c-11 -11 -6 -23 9 -23 8 0 15 4 15 9 0 13 -16 22 -24 14z"/>
<path d="M1045 4780 c0 -70 0 -70 27 -70 28 0 37 13 18 25 -5 3 -10 31 -10 61
0 45 -3 54 -17 54 -15 0 -18 -10 -18 -70z"/>
<path d="M1115 4780 c0 -67 1 -70 24 -70 19 0 22 4 17 23 -3 12 -6 43 -6 70 0
38 -3 47 -17 47 -15 0 -18 -10 -18 -70z"/>
<path d="M1505 4780 c0 -70 0 -70 27 -70 28 0 37 13 18 25 -5 3 -10 31 -10 61
0 45 -3 54 -17 54 -15 0 -18 -10 -18 -70z"/>
<path d="M1624 4825 c4 -14 3 -25 -1 -24 -47 8 -73 -29 -49 -67 15 -22 23 -24
92 -23 62 1 74 3 70 16 -3 8 -6 28 -6 44 0 24 -4 29 -25 29 -14 0 -25 -4 -25
-10 0 -5 5 -10 11 -10 6 0 9 -10 7 -22 -2 -13 -10 -23 -18 -23 -11 0 -16 14
-18 58 -3 50 -6 57 -24 57 -17 0 -19 -4 -14 -25z m6 -64 c0 -11 -4 -22 -9 -25
-12 -8 -34 21 -26 34 11 17 35 11 35 -9z"/>
<path d="M1700 4836 c0 -9 7 -16 16 -16 9 0 14 5 12 12 -6 18 -28 21 -28 4z"/>
<path d="M917 4812 c-2 -11 -2 -37 2 -58 5 -30 11 -40 29 -42 12 -2 22 1 22 7
0 6 -4 11 -10 11 -14 0 -12 47 3 54 10 5 10 7 0 12 -7 3 -13 12 -13 20 0 21
-27 17 -33 -4z"/>
<path d="M1210 4795 c-16 -20 -5 -45 20 -45 11 0 20 -5 20 -10 0 -6 -11 -8
-25 -4 -19 5 -25 2 -25 -10 0 -25 66 -22 80 4 10 18 7 22 -22 36 -31 14 -32
15 -5 11 34 -5 45 8 18 22 -27 15 -46 14 -61 -4z"/>
<path d="M1323 4799 c-29 -10 -36 -38 -18 -65 17 -27 56 -32 74 -10 9 10 8 15
-3 19 -7 3 -18 1 -22 -3 -14 -14 -38 6 -30 25 4 13 13 15 36 10 23 -5 30 -3
30 8 0 17 -39 27 -67 16z"/>
<path d="M1903 4799 c-11 -4 -23 -15 -27 -25 -9 -23 20 -64 46 -64 12 0 18 -3
14 -7 -4 -5 -16 -8 -27 -8 -30 0 -27 -20 4 -23 43 -5 57 13 57 73 0 47 -2 53
-23 57 -13 3 -33 1 -44 -3z m37 -39 c0 -13 -7 -20 -20 -20 -19 0 -27 20 -13
33 13 14 33 6 33 -13z"/>
<path d="M984 4755 c-1 -41 1 -45 24 -45 18 0 23 4 18 16 -3 9 -6 29 -6 45 0
21 -5 29 -17 29 -14 0 -18 -9 -19 -45z"/>
<path d="M1400 4779 c-9 -16 -8 -26 5 -45 27 -41 85 -27 85 21 0 29 -19 45
-52 45 -17 0 -31 -7 -38 -21z m60 -18 c0 -11 -5 -23 -11 -27 -15 -9 -33 12
-26 30 9 23 37 20 37 -3z"/>
<path d="M1754 4755 c-1 -43 0 -45 28 -45 32 0 33 2 16 30 -10 15 -10 22 0 32
16 16 32 -4 32 -39 0 -16 6 -23 20 -23 11 0 20 1 20 3 0 1 -7 20 -14 42 -13
38 -17 40 -58 43 l-43 3 -1 -46z"/>
<path d="M1204 4588 c22 -56 29 -92 18 -96 -24 -8 -12 -22 19 -22 26 0 29 3
24 19 -3 11 3 38 15 62 11 24 20 44 20 46 0 2 -12 3 -26 3 -20 0 -24 -4 -19
-19 3 -11 1 -22 -5 -26 -6 -4 -10 4 -10 19 0 20 -5 26 -21 26 -13 0 -19 -5
-15 -12z"/>
<path d="M1308 4575 c-9 -21 -8 -28 7 -45 32 -36 85 -20 85 25 0 49 -71 65
-92 20z m62 -14 c0 -11 -5 -23 -11 -27 -15 -9 -33 12 -26 30 9 23 37 20 37 -3z"/>
<path d="M1413 4583 c3 -10 8 -30 11 -45 6 -26 10 -28 52 -28 43 0 46 2 40 23
-3 12 -6 32 -6 45 0 15 -6 22 -19 22 -17 0 -19 -5 -14 -35 4 -28 2 -35 -11
-35 -12 0 -16 9 -16 35 0 29 -4 35 -21 35 -15 0 -19 -5 -16 -17z"/>
<path d="M1534 4555 c-1 -43 0 -45 28 -45 28 0 41 24 16 32 -6 2 -9 12 -5 21
4 10 12 14 22 11 10 -4 15 0 15 10 0 12 -10 16 -37 16 l-38 0 -1 -45z"/>
<path d="M760 4431 c0 -5 5 -13 10 -16 6 -3 10 -24 10 -45 0 -21 -4 -42 -10
-45 -20 -12 -9 -25 20 -25 34 0 35 2 18 30 -11 17 -10 22 2 30 20 13 30 3 30
-31 0 -28 1 -29 50 -29 47 0 63 11 40 25 -5 3 -10 19 -10 36 0 22 -5 29 -20
29 -22 0 -26 -10 -9 -27 14 -14 3 -46 -14 -41 -6 3 -14 18 -17 34 -4 23 -11
30 -33 32 -22 3 -27 8 -25 25 2 16 -3 23 -19 25 -13 2 -23 -1 -23 -7z"/>
<path d="M900 4425 c0 -9 5 -15 11 -13 6 2 11 8 11 13 0 5 -5 11 -11 13 -6 2
-11 -4 -11 -13z"/>
<path d="M955 4370 c0 -67 1 -70 24 -70 19 0 22 4 17 23 -3 12 -6 43 -6 70 0
38 -3 47 -17 47 -15 0 -18 -10 -18 -70z"/>
<path d="M1074 4415 c6 -22 3 -25 -18 -25 -23 0 -46 -24 -46 -49 0 -23 33 -41
76 -41 41 0 57 11 34 25 -5 3 -10 31 -10 61 0 48 -2 54 -21 54 -18 0 -20 -4
-15 -25z m6 -64 c0 -11 -5 -23 -11 -27 -15 -9 -33 12 -26 30 9 23 37 20 37 -3z"/>
<path d="M1175 4408 c-10 -21 -12 -34 -5 -36 13 -5 13 -39 0 -47 -20 -12 -9
-25 20 -25 20 0 30 5 30 15 0 8 -4 15 -10 15 -14 0 -12 37 3 43 9 4 8 8 -3 16
-13 10 -13 13 3 25 22 17 22 26 -2 26 -12 0 -26 -13 -36 -32z"/>
<path d="M1855 4370 c0 -67 1 -70 23 -70 19 0 22 4 17 20 -3 11 -3 20 2 20 4
0 14 -9 21 -20 13 -21 42 -27 42 -9 0 7 -8 18 -17 25 -17 13 -17 15 0 28 24
18 21 26 -8 26 -16 0 -25 -6 -25 -15 0 -8 -4 -15 -10 -15 -5 0 -10 18 -10 40
0 31 -4 40 -17 40 -15 0 -18 -10 -18 -70z"/>
<path d="M2082 4428 c-20 -20 -14 -31 13 -24 27 7 33 -5 11 -23 -19 -16 -19
-81 1 -81 9 0 12 6 8 18 -3 11 3 29 15 45 11 14 20 31 20 39 0 19 -20 38 -40
38 -9 0 -21 -5 -28 -12z"/>
<path d="M693 4389 c-11 -4 -23 -15 -27 -25 -9 -24 20 -64 48 -64 29 0 53 24
35 35 -6 4 -14 2 -18 -4 -11 -17 -43 -2 -39 18 3 11 13 15 36 13 22 -1 32 2
32 12 0 17 -39 25 -67 15z"/>
<path d="M1673 4392 c-32 -5 -29 -22 5 -23 l27 -1 -28 -10 c-21 -7 -27 -16
-25 -32 2 -17 11 -22 47 -24 41 -3 43 -2 37 20 -3 13 -6 31 -6 40 0 21 -27 35
-57 30z m27 -62 c0 -5 -7 -10 -16 -10 -8 0 -12 5 -9 10 3 6 10 10 16 10 5 0 9
-4 9 -10z"/>
<path d="M1985 4387 c-16 -13 -17 -17 -6 -31 7 -9 19 -16 27 -16 7 0 16 -5 20
-11 4 -8 -3 -9 -26 -4 -25 5 -31 4 -28 -6 7 -20 62 -23 78 -5 14 18 1 42 -28
49 -9 2 -7 3 6 2 20 -2 40 11 30 20 -13 13 -56 14 -73 2z"/>
<path d="M1242 4378 c-15 -15 -15 -51 0 -66 18 -18 53 -14 73 8 15 17 16 24 7
45 -13 27 -58 35 -80 13z m53 -33 c0 -28 -29 -25 -33 3 -3 19 0 23 15 20 10
-2 18 -12 18 -23z"/>
<path d="M1330 4380 c0 -5 5 -10 10 -10 6 0 10 -9 10 -19 0 -11 -4 -23 -10
-26 -20 -12 -10 -25 19 -25 28 0 29 2 24 34 -5 32 -3 34 16 29 15 -4 21 -1 21
11 0 12 -10 16 -45 16 -25 0 -45 -4 -45 -10z"/>
<path d="M1465 4345 c0 -42 2 -45 28 -45 31 0 32 2 15 30 -9 15 -10 22 -1 31
17 17 33 2 33 -32 0 -22 5 -29 19 -29 17 0 19 5 14 36 -5 29 -3 36 8 32 8 -2
15 -19 17 -36 2 -24 8 -32 23 -32 22 0 22 2 9 51 l-10 36 -78 1 -77 1 0 -44z"/>
<path d="M1750 4380 c0 -5 5 -10 10 -10 6 0 10 -9 10 -19 0 -11 -4 -23 -10
-26 -20 -12 -9 -25 20 -25 30 0 31 1 24 34 -5 32 -4 34 15 29 15 -4 21 -1 21
11 0 12 -10 16 -45 16 -25 0 -45 -4 -45 -10z"/>
<path d="M2898 4926 c-67 -27 -148 -74 -148 -84 0 -5 12 -13 28 -19 25 -11 25
-12 -13 -7 l-40 5 30 -16 c17 -8 21 -13 10 -9 -11 3 -36 8 -56 11 -32 5 -39 2
-54 -20 -19 -30 -22 -105 -5 -139 25 -47 102 -110 117 -94 3 2 -9 11 -25 20
-66 34 -106 119 -83 176 9 24 10 23 10 -10 1 -22 14 -57 34 -90 40 -67 65 -79
37 -18 -21 45 -26 104 -11 127 10 16 16 7 26 -38 6 -30 9 -32 18 -16 7 14 7
20 -1 23 -15 5 -16 22 -1 22 5 0 15 -13 20 -30 6 -16 16 -30 22 -30 7 0 7 4
-1 12 -7 7 -12 17 -12 23 0 5 5 2 11 -7 5 -9 15 -16 22 -14 6 1 9 1 5 -1 -4
-2 -5 -10 -2 -17 5 -13 -41 -59 -68 -69 -9 -3 -6 -11 10 -26 12 -12 20 -26 18
-30 -3 -4 1 -8 9 -8 8 0 11 5 8 11 -4 6 8 -2 27 -17 29 -25 35 -26 42 -13 5 9
13 14 19 11 5 -4 9 6 9 22 l-1 28 -18 -22 c-16 -19 -20 -20 -25 -7 -10 27 -7
34 19 34 14 0 25 5 25 11 0 5 4 8 9 4 5 -3 8 -19 6 -36 -3 -18 -2 -29 2 -25 3
3 7 16 9 29 1 12 3 25 3 30 1 4 5 7 11 7 5 0 7 -8 4 -17 -4 -13 -2 -13 8 2 13
21 41 22 65 3 7 -5 17 -7 23 -3 5 3 10 1 10 -5 0 -7 6 -8 19 -1 17 10 18 7 9
-37 -9 -53 -59 -138 -77 -134 -17 3 11 -47 47 -86 16 -17 27 -34 24 -36 -3 -3
3 -8 12 -12 12 -5 14 -10 6 -19 -8 -9 -6 -14 4 -18 11 -4 13 -1 10 11 -5 15
-4 15 9 -1 13 -15 16 -16 27 -2 11 13 10 14 -2 10 -8 -3 -21 1 -28 10 -9 11
-9 15 -1 15 8 0 8 4 -1 14 -7 8 -17 11 -22 9 -5 -3 -6 0 -4 8 3 8 11 13 17 11
7 -1 10 2 7 7 -4 5 -2 12 4 16 5 3 10 1 10 -4 0 -6 9 -11 21 -11 16 0 19 4 14
21 -5 14 -4 19 4 15 7 -5 9 -1 5 9 -5 13 -9 13 -22 3 -13 -11 -14 -10 -4 9 14
26 34 41 26 19 -3 -9 -1 -16 5 -16 6 0 11 4 11 9 0 5 6 11 13 14 9 3 22 -11
36 -41 16 -32 18 -42 7 -33 -8 7 -21 9 -27 5 -9 -5 -10 -2 -5 11 5 15 4 16 -9
5 -12 -10 -13 -15 -3 -21 6 -4 15 -6 19 -3 4 2 12 -3 19 -11 23 -28 -54 -115
-103 -115 -21 0 -89 59 -81 71 3 5 3 9 0 9 -8 0 -36 -63 -36 -83 0 -10 7 -46
16 -79 8 -33 13 -63 10 -66 -15 -14 -56 45 -67 94 -7 30 -17 54 -23 54 -19 0
-74 -38 -91 -63 -8 -13 -25 -64 -36 -113 -11 -49 -34 -134 -51 -189 -17 -55
-30 -110 -30 -122 0 -13 -4 -23 -9 -23 -5 0 -9 -7 -9 -15 0 -14 38 -41 53 -37
4 1 7 -2 7 -8 0 -16 -38 -5 -63 18 -24 23 -43 30 -32 12 3 -5 2 -10 -3 -10 -5
0 -12 -8 -15 -19 -3 -12 1 -18 12 -17 13 1 16 -8 15 -41 0 -29 4 -43 12 -43 8
0 12 6 10 13 -1 6 -1 9 1 4 3 -4 8 -5 12 -2 5 2 15 -13 24 -35 11 -30 12 -37
2 -33 -17 6 -27 31 -19 46 5 8 4 9 -3 2 -6 -5 -13 -21 -17 -35 -3 -14 -3 -19
0 -13 7 17 28 -3 39 -37 l8 -25 -21 25 -20 25 1 -26 c2 -18 6 -25 16 -21 11 4
13 0 8 -14 -5 -14 -2 -13 12 6 11 13 17 29 14 34 -3 5 -1 6 6 2 7 -5 19 9 33
41 12 26 21 51 20 56 -1 4 3 7 9 7 6 0 8 7 5 16 -3 8 -2 12 4 9 9 -6 50 73 50
95 0 5 -13 31 -30 57 -35 55 -39 104 -11 149 10 17 68 65 127 106 225 155 250
172 299 205 27 18 54 33 59 33 10 0 -29 -32 -189 -154 -119 -91 -282 -242
-272 -252 3 -4 48 33 99 81 51 48 122 108 157 133 35 26 89 67 119 91 l55 44
-25 -44 c-13 -24 -51 -89 -83 -144 -56 -97 -189 -357 -214 -422 -7 -18 -11
-38 -9 -45 3 -7 27 33 53 89 27 57 50 102 51 100 2 -1 -13 -45 -33 -97 -42
-114 -94 -281 -91 -292 2 -4 34 74 72 175 141 372 223 548 336 720 46 70 54
87 39 87 -10 0 -21 -5 -24 -11 -4 -6 -13 -8 -21 -5 -8 3 -13 1 -11 -5 1 -6
-13 -19 -30 -29 -18 -9 -40 -23 -48 -30 -17 -14 -17 -14 -20 18 -1 12 1 22 6
22 5 0 6 6 3 14 -8 22 24 48 46 36 34 -18 66 -10 108 26 50 43 72 81 72 126 0
39 -30 92 -62 109 -29 16 -142 29 -128 15 15 -15 12 -36 -5 -36 -8 0 -15 7
-15 15 0 10 -6 12 -17 8 -16 -6 -16 -5 -4 11 12 14 12 17 1 14 -10 -2 -16 15
-22 62 -28 214 -176 318 -350 246z m215 -223 c-13 -2 -35 -2 -50 0 -16 2 -5 4
22 4 28 0 40 -2 28 -4z m-36 -48 c-7 -13 -14 -20 -15 -14 -2 5 2 16 8 24 18
21 20 18 7 -10z m50 -91 c-9 -9 -28 6 -21 18 4 6 10 6 17 -1 6 -6 8 -13 4 -17z
m162 -46 c1 -14 -7 -18 -31 -18 -29 0 -30 1 -16 18 8 9 18 26 23 37 l7 20 8
-20 c5 -11 9 -28 9 -37z m171 10 c11 -18 20 -46 19 -63 0 -25 -2 -23 -13 17
-7 26 -18 54 -26 62 -7 9 -10 16 -6 16 3 0 15 -15 26 -32z m-250 -68 c0 -5 -2
-10 -4 -10 -3 0 -8 5 -11 10 -3 6 -1 10 4 10 6 0 11 -4 11 -10z m15 -239 c-8
-26 -91 -85 -109 -78 -8 3 -13 -1 -12 -10 0 -9 -4 -18 -10 -20 -15 -5 -44 57
-44 95 l0 29 40 -19 c33 -17 45 -18 74 -8 19 6 40 18 47 26 15 19 23 11 14
-15z"/>
<path d="M3414 4853 c-19 -18 -24 -28 -16 -31 14 -4 62 35 62 50 0 15 -17 8
-46 -19z"/>
<path d="M8390 4869 c0 -5 5 -7 10 -4 6 3 10 8 10 11 0 2 -4 4 -10 4 -5 0 -10
-5 -10 -11z"/>
<path d="M8425 4870 c3 -5 8 -10 11 -10 2 0 4 5 4 10 0 6 -5 10 -11 10 -5 0
-7 -4 -4 -10z"/>
<path d="M8365 4859 c-4 -6 -5 -12 -2 -15 2 -3 7 2 10 11 7 17 1 20 -8 4z"/>
<path d="M8340 4805 c0 -14 4 -25 9 -25 4 0 6 11 3 25 -2 14 -6 25 -8 25 -2 0
-4 -11 -4 -25z"/>
<path d="M3441 4774 c-41 -18 -35 -29 13 -20 39 7 72 36 40 36 -11 -1 -34 -7
-53 -16z"/>
<path d="M8420 4759 c0 -5 5 -7 10 -4 6 3 10 8 10 11 0 2 -4 4 -10 4 -5 0 -10
-5 -10 -11z"/>
<path d="M2732 4735 c0 -11 3 -29 8 -40 11 -25 11 1 0 35 -6 20 -8 21 -8 5z"/>
<path d="M2948 4557 c-5 -10 -8 -20 -6 -22 5 -5 78 29 78 36 0 15 -63 3 -72
-14z"/>
<path d="M2799 4494 c10 -5 8 -10 -10 -20 l-24 -13 25 0 c25 -1 58 14 50 22
-3 3 -16 7 -30 11 -14 3 -19 3 -11 0z"/>
<path d="M2863 4449 c-34 -13 -27 -29 12 -29 36 0 44 10 23 28 -8 6 -22 6 -35
1z"/>
<path d="M2637 4376 c-4 -10 -7 -30 -6 -44 0 -15 3 -21 6 -14 2 6 9 10 14 6
11 -6 11 23 0 50 -7 18 -8 18 -14 2z"/>
<path d="M2615 4240 c-14 -22 -25 -47 -25 -55 0 -13 -4 -14 -21 -5 -26 15 -34
7 -20 -18 6 -12 11 -27 10 -34 0 -7 -5 -3 -11 10 -13 26 -30 29 -27 5 3 -34
-2 -38 -16 -13 -10 18 -14 20 -15 8 0 -9 -6 -18 -12 -21 -10 -3 -8 -10 5 -25
11 -11 16 -26 12 -32 -3 -6 -3 -10 2 -9 35 6 53 -3 53 -25 0 -14 5 -28 11 -31
6 -4 8 -13 5 -21 -3 -7 8 -24 24 -38 34 -28 38 -39 13 -29 -12 5 -15 2 -10
-10 3 -9 1 -19 -5 -23 -6 -4 -9 -3 -5 2 3 5 -2 18 -10 29 -14 18 -15 18 -9 2
3 -10 6 -26 6 -34 0 -11 7 -14 28 -9 20 5 23 4 11 -3 -9 -6 -35 -13 -57 -17
-37 -6 -42 -4 -42 12 0 17 -1 17 -17 1 -16 -16 -16 -18 -1 -33 19 -20 106 -26
128 -10 13 10 13 9 1 -6 -7 -10 -26 -18 -42 -18 -15 0 -31 -5 -34 -11 -5 -7
-13 -5 -25 6 -12 11 -20 13 -25 6 -20 -33 63 -58 124 -36 22 8 41 10 41 5 0
-5 -8 -11 -17 -13 -10 -3 -6 -4 9 -4 23 1 25 4 17 20 -7 13 -7 23 1 33 7 8 9
21 5 31 -5 10 -7 27 -6 39 1 12 -8 28 -21 37 -49 35 -60 46 -53 57 6 9 10 9
17 -1 7 -10 8 -7 4 10 -3 17 1 30 15 42 13 11 18 23 13 31 -4 7 -4 10 1 6 4
-4 16 2 27 14 15 18 18 35 16 95 -1 59 -4 70 -15 61 -7 -6 -14 -9 -16 -7 -23
41 -25 47 -14 58 6 6 8 11 4 11 -4 0 -18 -18 -32 -40z m59 -146 c3 -8 2 -12
-4 -9 -6 3 -10 10 -10 16 0 14 7 11 14 -7z m-54 -29 c0 -2 -10 -9 -22 -15 -22
-11 -22 -10 -4 4 21 17 26 19 26 11z"/>
<path d="M3572 4228 c-50 -61 -59 -76 -105 -178 -263 -578 -538 -1314 -537
-1439 1 -34 1 -35 16 -16 8 11 22 45 30 75 25 91 116 362 136 405 l18 40 -5
-40 c-2 -22 -9 -134 -15 -250 -16 -323 -29 -449 -55 -553 -27 -103 -27 -127
-2 -63 43 106 58 201 72 469 24 422 32 532 39 539 3 3 7 -90 7 -208 1 -147 4
-195 9 -154 4 33 8 110 9 170 1 118 21 305 32 305 16 0 20 -64 25 -390 8 -442
-1 -550 -56 -730 -47 -153 -111 -304 -171 -398 -35 -57 -40 -71 -37 -116 l3
-51 36 55 c60 93 167 320 193 410 l25 85 3 -405 c2 -223 1 -413 -1 -423 -3
-15 -17 -17 -122 -17 -110 0 -151 -10 -96 -23 12 -4 167 -9 345 -12 l322 -6 0
33 c0 18 -7 102 -15 186 -14 142 -20 170 -84 370 -112 348 -182 601 -191 687
-9 88 -17 115 -32 115 -22 0 16 -233 62 -390 16 -52 36 -125 45 -163 9 -37 23
-86 31 -108 19 -57 19 -59 -18 -47 -32 10 -33 11 -33 69 0 32 -3 59 -6 59 -4
0 -10 37 -14 81 -24 281 -28 -149 -4 -501 5 -74 9 -183 9 -242 l0 -108 -39 0
-40 0 -6 563 c-11 935 -11 987 -1 969 13 -23 87 -201 141 -337 54 -138 139
-320 154 -329 22 -14 10 29 -35 134 -266 612 -353 848 -342 935 2 24 7 29 23
27 11 -2 52 -5 90 -7 45 -1 84 -10 110 -22 22 -11 57 -26 78 -34 30 -11 39
-20 47 -50 19 -69 28 -265 23 -504 l-5 -240 32 30 c18 17 50 56 72 88 l40 59
-11 425 -12 426 83 86 c124 128 237 258 238 273 0 6 -39 39 -137 118 -6 5 -22
7 -36 5 -16 -3 -30 1 -38 13 -13 15 -12 16 3 4 9 -8 22 -11 27 -7 12 7 -36 65
-54 65 -17 0 -85 -72 -107 -112 -9 -18 -17 -28 -18 -22 0 18 56 100 86 123
l29 23 -25 16 c-60 39 -87 76 -94 128 -7 59 -20 73 -68 80 -30 4 -37 -1 -76
-48z m-26 -506 c8 -293 10 -285 -60 -237 -20 14 -43 25 -50 25 -11 0 -10 13 4
68 9 37 22 105 28 152 7 47 21 111 32 142 11 32 20 74 20 95 0 24 3 34 10 27
5 -5 13 -123 16 -272z m270 184 c-3 -23 0 -36 8 -39 10 -4 12 1 9 16 -4 19 -3
20 7 5 8 -13 8 -23 0 -39 -7 -11 -9 -23 -6 -27 3 -3 6 0 6 7 0 7 5 9 11 5 6
-3 9 -15 6 -25 -3 -11 0 -19 5 -19 6 0 8 14 5 34 -4 28 -2 35 14 39 16 4 18 1
13 -19 -3 -13 -2 -24 3 -24 5 0 14 17 19 37 6 25 15 38 27 39 12 1 13 1 2 -3
-22 -7 -18 -22 10 -35 27 -12 31 -23 14 -34 -6 -3 -15 0 -20 7 -13 20 -31 -9
-24 -38 3 -12 2 -23 -3 -25 -7 -3 -87 -97 -104 -123 -4 -5 -23 -28 -42 -51
-20 -23 -33 -43 -30 -46 2 -3 -7 -4 -20 -3 -14 2 -30 -3 -37 -11 -13 -16 -29
-18 -29 -4 0 5 20 41 45 80 45 70 45 71 45 158 0 76 2 89 20 100 11 7 20 20
20 30 0 15 17 42 27 42 2 0 1 -15 -1 -34z m134 -101 c0 -8 -4 -15 -10 -15 -5
0 -10 7 -10 15 0 8 5 15 10 15 6 0 10 -7 10 -15z m-236 -281 c3 -8 2 -12 -4
-9 -6 3 -10 10 -10 16 0 14 7 11 14 -7z m-30 -59 c23 -34 16 -41 -16 -15 -31
24 -46 65 -18 50 9 -5 25 -21 34 -35z m27 28 c13 -16 12 -17 -3 -4 -17 13 -22
21 -14 21 2 0 10 -8 17 -17z m-83 -28 c14 -29 -2 -34 -18 -6 -12 24 -13 31 -2
31 5 0 14 -11 20 -25z m122 21 c0 -2 -8 -10 -17 -17 -16 -13 -17 -12 -4 4 13
16 21 21 21 13z m-160 -36 c0 -5 -10 -10 -22 -9 -22 0 -22 1 -3 9 11 5 21 9
23 9 1 1 2 -3 2 -9z m18 -44 c-7 -8 -15 -12 -17 -11 -5 6 10 25 20 25 5 0 4
-6 -3 -14z m-58 -11 c0 -2 -6 -5 -13 -8 -8 -3 -14 1 -14 8 0 7 6 11 14 8 7 -3
13 -6 13 -8z m-63 -11 c-3 -3 -12 -4 -19 -1 -8 3 -5 6 6 6 11 1 17 -2 13 -5z
m-182 -401 c2 -29 -1 -53 -6 -53 -5 0 -9 13 -9 29 0 15 -2 50 -5 77 -5 42 -4
45 6 24 6 -14 12 -49 14 -77z m-4 -1205 c3 -280 1 -429 -6 -430 -7 -2 -10 166
-11 487 -1 270 2 463 6 431 4 -33 9 -252 11 -488z"/>
<path d="M2532 3910 c0 -14 2 -19 5 -12 2 6 2 18 0 25 -3 6 -5 1 -5 -13z"/>
<path d="M1315 3883 c20 -113 59 -279 68 -288 9 -10 7 36 -9 248 l-7 77 -29 0
c-29 0 -30 -1 -23 -37z"/>
<path d="M1577 3896 c-9 -22 -39 -284 -35 -303 3 -18 57 139 82 240 l14 58
-24 10 c-32 11 -31 12 -37 -5z"/>
<path d="M3026 3868 c-24 -33 -19 -45 5 -14 12 15 19 29 16 32 -3 3 -12 -5
-21 -18z"/>
<path d="M1087 3844 c-4 -4 -7 -13 -7 -19 0 -24 148 -280 157 -272 7 7 -56
169 -90 231 -31 59 -46 73 -60 60z"/>
<path d="M1801 3738 c-53 -71 -133 -208 -129 -220 7 -19 208 223 208 249 0 9
-22 23 -35 23 -3 0 -22 -24 -44 -52z"/>
<path d="M860 3689 c0 -26 146 -160 235 -215 30 -18 30 -18 15 1 -36 49 -117
134 -168 178 -55 46 -82 58 -82 36z"/>
<path d="M2666 3685 c-9 -26 -7 -32 5 -12 6 10 9 21 6 23 -2 3 -7 -2 -11 -11z"/>
<path d="M1965 3554 c-83 -50 -196 -127 -191 -131 7 -8 165 54 229 90 60 34
66 40 57 58 -15 26 -26 24 -95 -17z"/>
<path d="M2610 3571 c0 -6 4 -13 10 -16 6 -3 7 1 4 9 -7 18 -14 21 -14 7z"/>
<path d="M1330 3478 c-11 -18 -20 -39 -20 -46 0 -10 -5 -9 -22 2 -25 18 -54
21 -63 6 -3 -5 7 -12 22 -16 15 -4 35 -14 44 -23 15 -15 12 -20 -40 -67 l-56
-51 -3 -79 c-2 -64 2 -89 21 -134 16 -40 27 -54 40 -52 22 4 21 -6 -4 -47 -25
-41 -21 -59 26 -130 20 -30 32 -57 28 -61 -4 -3 -25 -18 -45 -33 l-36 -27 -18
53 c-19 59 -52 124 -65 133 -5 3 -1 -11 8 -32 12 -25 14 -38 7 -41 -11 -4 15
-59 100 -218 l27 -49 -48 -11 c-56 -13 -108 -39 -141 -68 -22 -20 -22 -20 -37
-1 -7 10 -26 42 -41 71 -16 29 -30 51 -32 48 -7 -6 29 -119 49 -153 23 -40 59
-181 59 -233 0 -43 -12 -53 -73 -64 -20 -4 -37 -12 -37 -17 0 -7 12 -8 33 -3
74 17 84 17 50 1 -40 -18 -46 -40 -7 -26 37 15 54 12 54 -7 0 -38 -18 -47 -97
-54 -100 -8 -185 -26 -209 -43 -29 -22 -3 -90 57 -149 27 -26 49 -48 49 -50 0
-1 -43 -2 -95 -2 -78 0 -95 3 -95 15 0 8 -14 128 -30 265 -40 331 -41 305 20
305 32 0 52 5 54 13 2 6 16 53 31 102 15 50 38 112 51 138 13 27 24 52 24 56
0 5 -44 11 -97 15 -54 3 -120 9 -147 13 -43 5 -48 4 -43 -10 3 -9 9 -58 11
-109 4 -60 2 -80 -3 -55 -11 51 -25 61 -18 12 4 -22 7 -49 7 -60 0 -16 2 -17
10 -5 12 19 17 4 23 -70 3 -30 12 -113 21 -185 20 -159 46 -400 46 -427 0 -16
-6 -19 -32 -16 -28 2 -34 -1 -36 -19 -2 -16 2 -23 14 -23 13 0 15 -6 11 -29
-5 -25 -1 -34 23 -55 l30 -25 0 -170 c0 -164 1 -171 20 -171 16 0 20 7 20 35
l0 35 83 0 83 0 -1 -35 c-2 -35 -2 -35 41 -35 42 0 44 1 44 29 0 17 6 31 16
35 9 3 67 6 130 6 66 0 114 4 114 10 0 5 -86 9 -217 8 -120 0 -235 3 -255 7
l-38 7 0 140 0 139 82 -3 82 -3 1 -130 1 -130 64 -3 c36 -1 115 2 175 6 l110
9 -110 2 c-167 2 -155 -8 -155 132 l0 119 144 0 c79 0 151 -3 160 -6 14 -5 16
-32 16 -190 0 -177 1 -184 20 -184 16 0 20 7 20 35 l0 35 50 0 c38 0 50 4 50
15 0 11 -12 15 -50 15 l-50 0 0 140 0 140 49 0 49 0 -2 183 -1 182 -116 20
c-109 19 -117 22 -146 55 l-31 36 31 107 c22 72 36 105 45 102 7 -2 12 4 12
15 0 11 7 20 15 20 8 0 15 5 15 11 0 6 6 9 14 6 8 -3 17 -1 20 6 2 7 5 4 5 -6
1 -12 -5 -17 -16 -15 -12 2 -19 -4 -21 -19 -2 -13 1 -23 7 -23 6 0 11 7 11 15
0 21 28 19 33 -2 2 -10 3 -5 1 10 -2 17 0 26 6 22 26 -16 1 -85 -31 -85 -9 0
-8 -4 1 -15 10 -12 10 -15 0 -15 -8 0 -11 -3 -8 -6 4 -3 22 -1 41 4 28 8 37 7
41 -4 3 -8 19 -14 36 -14 29 0 30 -2 30 -45 0 -32 5 -47 18 -54 10 -5 77 -17
150 -27 76 -11 126 -21 119 -26 -6 -5 -59 -8 -117 -7 l-105 2 -3 -406 -2 -406
169 0 168 -1 23 123 c12 67 35 181 50 253 45 209 45 216 18 240 -31 29 -158
67 -340 104 -54 11 -58 13 -58 39 l0 28 182 6 c99 4 347 7 550 7 l368 0 0
-400 0 -400 40 0 40 0 0 485 0 485 35 0 c33 0 35 2 35 31 0 26 -3 30 -19 26
-20 -5 -31 15 -31 61 0 21 -4 22 -74 22 -68 0 -74 2 -69 19 3 10 0 21 -5 25
-5 3 9 53 34 116 44 110 51 136 36 126 -15 -9 -29 8 -92 114 -35 58 -77 125
-94 150 -16 24 -30 56 -31 70 0 17 -6 26 -20 28 -33 6 -39 19 -21 47 16 25 16
28 1 51 -13 21 -19 23 -31 13 -12 -10 -13 -9 -8 7 6 16 2 15 -22 -6 -16 -14
-33 -31 -37 -38 -5 -7 -48 -32 -95 -56 -64 -31 -88 -47 -90 -63 -2 -14 4 -23
16 -28 11 -3 39 -26 61 -50 23 -25 47 -45 53 -45 6 0 22 -10 35 -22 13 -12 25
-19 28 -17 9 10 35 124 35 156 0 37 14 43 30 13 6 -11 17 -20 25 -20 20 0 215
-317 215 -349 0 -17 -47 -144 -78 -213 -14 -31 -22 -38 -48 -38 -19 0 -39 -9
-54 -25 -33 -35 -76 -55 -119 -55 -33 0 -38 5 -63 50 -22 39 -33 50 -53 50
-14 0 -25 -4 -25 -8 0 -21 -60 -32 -178 -34 l-127 -2 125 -6 c69 -3 121 -8
115 -11 -13 -8 -238 -14 -425 -10 l-145 2 50 24 c28 13 58 24 68 25 10 0 30 6
45 14 35 18 277 32 286 17 4 -6 11 -11 17 -11 11 0 7 36 -6 47 -4 5 -5 1 0 -7
5 -9 4 -12 -1 -7 -5 5 -9 16 -9 25 0 9 -8 17 -17 17 -9 0 -20 4 -25 9 -5 5 -2
6 6 1 10 -6 12 -4 7 4 -5 7 -16 9 -28 5 -13 -4 -18 -2 -14 4 7 12 -29 23 -41
12 -8 -7 -113 -33 -179 -44 -27 -4 -31 -2 -27 13 3 14 -9 26 -51 50 -37 20
-56 38 -56 50 0 11 -29 42 -70 76 -38 31 -70 65 -70 74 0 9 -11 35 -24 58 -24
41 -19 68 10 56 7 -2 -2 11 -21 31 -18 19 -41 56 -51 82 -18 46 -18 47 4 64
16 13 20 25 16 46 -3 16 -2 26 1 22 4 -3 7 -12 9 -20 2 -19 16 -38 26 -38 6 0
16 16 24 35 19 44 37 51 89 34 39 -12 40 -13 15 -17 -32 -4 -39 -32 -8 -32 16
0 20 -7 20 -30 0 -29 1 -30 43 -24 l42 6 0 -41 c1 -34 -2 -40 -16 -36 -20 7
-35 -10 -19 -20 18 -11 -9 -36 -29 -26 -18 9 -41 4 -41 -10 0 -5 9 -9 21 -9
l20 0 -21 -30 c-12 -16 -17 -30 -12 -30 13 0 76 -105 98 -164 10 -27 20 -44
22 -38 8 26 23 10 17 -18 -4 -19 -3 -30 4 -30 6 0 11 -7 11 -16 0 -14 2 -14
16 1 9 9 14 18 11 21 -3 3 2 25 10 50 14 42 14 45 -9 81 -12 21 -23 40 -23 43
0 3 -9 27 -19 53 l-19 48 30 32 c57 60 68 110 33 142 -19 17 -19 18 18 47 40
32 72 81 72 112 0 33 -40 104 -76 136 -19 16 -67 47 -107 67 -67 35 -78 37
-159 38 l-87 0 32 17 c18 9 42 17 55 18 12 0 22 5 22 10 0 17 -43 11 -83 -10
l-38 -20 16 30 c21 41 0 39 -25 -2z m-12 -130 c-5 -15 -50 -39 -58 -32 -6 7
38 44 52 44 5 0 8 -6 6 -12z m32 -13 c0 -15 -38 -41 -47 -32 -5 5 33 47 42 47
3 0 5 -7 5 -15z m30 -24 c0 -5 14 -12 31 -16 33 -8 29 -18 -11 -30 -23 -7 -24
-7 -10 10 9 11 10 16 3 11 -7 -4 -13 -3 -13 3 0 6 -7 8 -15 5 -15 -6 -21 7 -8
19 9 10 23 9 23 -2z m-54 -152 c19 -21 19 -21 -9 -8 -23 10 -30 10 -42 -2 -28
-29 -23 -96 8 -109 22 -9 22 -9 1 -9 -56 -2 -71 107 -20 141 20 13 42 8 62
-13z m1034 -5 c0 -8 -19 -13 -24 -6 -3 5 1 9 9 9 8 0 15 -2 15 -3z m-1050
-273 c0 -17 -6 -31 -16 -35 -12 -4 -15 -2 -10 9 3 8 1 15 -4 15 -6 0 -5 9 2
20 18 28 28 25 28 -9z m300 -6 c10 -13 11 -18 1 -28 -10 -9 -11 -8 -5 6 5 13
2 16 -10 11 -9 -3 -13 -11 -9 -18 4 -8 3 -8 -6 0 -12 11 -5 44 9 44 4 0 13 -7
20 -15z m70 -173 c-17 -6 -42 7 -35 18 4 6 13 5 26 -3 10 -6 15 -13 9 -15z
m-53 -54 c-3 -8 -6 -5 -6 6 -1 11 2 17 5 13 3 -3 4 -12 1 -19z m49 -65 c-7 -7
-26 7 -26 19 0 6 6 6 15 -2 9 -7 13 -15 11 -17z m-277 -105 c18 -14 27 -15 37
-7 8 6 22 8 31 4 10 -4 38 -9 63 -11 34 -2 41 -1 30 7 -11 8 -8 9 13 4 16 -3
26 -2 24 2 -3 5 6 10 21 11 l27 1 -27 -15 c-37 -20 -35 -26 6 -19 20 4 36 2
40 -4 5 -7 1 -8 -10 -4 -11 4 -15 2 -11 -4 9 -15 -34 -25 -50 -11 -11 8 -12 7
-7 -6 4 -10 1 -16 -8 -16 -7 0 -49 -14 -92 -30 -43 -17 -81 -29 -83 -26 -3 2
5 14 17 26 25 25 18 45 -10 30 -24 -13 -60 -13 -60 0 0 6 11 10 25 10 14 0 25
5 25 10 0 13 -33 13 -47 -1 -8 -8 -17 -5 -32 10 -12 12 -26 19 -31 16 -6 -4
-10 -1 -10 5 0 7 7 10 14 7 10 -4 13 -1 9 8 -3 8 -9 13 -13 10 -5 -3 -5 9 1
27 5 18 9 35 9 37 0 3 30 -18 99 -71z m485 17 c-4 -9 -16 -21 -28 -27 -19 -10
-18 -8 4 15 29 31 31 32 24 12z m-649 -5 c-3 -5 -14 -10 -23 -10 -15 0 -15 -2
-2 -10 9 -6 11 -10 3 -10 -7 0 -10 -7 -7 -15 4 -8 1 -15 -5 -15 -6 0 -11 5
-11 11 0 6 -7 9 -14 6 -25 -10 -8 17 22 36 31 19 46 22 37 7z m32 -16 c-3 -3
-12 -4 -19 -1 -8 3 -5 6 6 6 11 1 17 -2 13 -5z m468 -14 c3 -5 1 -10 -4 -10
-6 0 -11 5 -11 10 0 6 2 10 4 10 3 0 8 -4 11 -10z m-544 -47 c13 -16 12 -17
-3 -4 -10 7 -18 15 -18 17 0 8 8 3 21 -13z m531 -556 c-19 -18 -30 -25 -26
-14 3 9 10 17 15 17 5 0 9 6 9 14 0 8 6 16 13 19 24 9 20 -4 -11 -36z m-396
-54 c-10 -11 -36 -12 -36 -2 0 5 10 9 22 9 12 0 18 -3 14 -7z m276 -35 c-5
-22 26 -37 39 -17 7 11 9 11 9 1 0 -8 -9 -16 -20 -19 -11 -3 -17 -10 -14 -15
3 -5 -1 -17 -10 -27 -8 -9 -25 -55 -37 -101 -12 -47 -26 -89 -30 -94 -4 -5 -7
36 -6 90 l2 99 28 3 c25 3 27 7 27 47 0 33 -4 45 -17 48 -10 3 -6 4 8 4 20 -1
25 -5 21 -19z m100 -35 c-3 -16 -7 -22 -10 -15 -4 13 4 42 11 42 2 0 2 -12 -1
-27z m-24 0 c-1 -10 2 -29 6 -43 6 -19 5 -21 -3 -10 -7 10 -11 11 -11 3 0 -7
-5 -13 -10 -13 -7 0 -7 6 0 19 17 32 11 36 -16 10 -22 -21 -24 -21 -18 -4 6
16 41 53 51 55 1 0 1 -8 1 -17z m42 -73 c-10 -30 -19 -47 -19 -38 -1 18 29
101 35 96 1 -2 -6 -28 -16 -58z m-43 -32 c-3 -8 -6 -5 -6 6 -1 11 2 17 5 13 3
-3 4 -12 1 -19z"/>
<path d="M1501 2450 c-9 -5 -8 -9 5 -14 9 -4 21 -3 26 2 12 12 -15 23 -31 12z"/>
<path d="M736 3464 c-4 -15 -6 -27 -4 -28 10 -7 220 -66 253 -71 22 -4 49 -9
60 -11 31 -7 -153 86 -223 112 -78 30 -78 30 -86 -2z"/>
<path d="M1945 3325 c-33 -8 -67 -14 -74 -14 -11 -1 -12 -4 -4 -12 14 -14 225
-14 252 0 12 7 18 17 15 26 -8 19 -104 19 -189 0z"/>
<path d="M748 3234 c-3 -3 -4 -14 -1 -25 4 -16 14 -19 57 -19 50 0 148 14 191
27 18 6 18 7 -5 14 -30 8 -234 11 -242 3z"/>
<path d="M1480 3026 c0 -2 8 -10 18 -17 15 -13 16 -12 3 4 -13 16 -21 21 -21
13z"/>
<path d="M1083 2830 c-35 -14 -27 -20 10 -8 17 6 34 13 36 14 8 7 -24 3 -46
-6z"/>
<path d="M9433 2763 c9 -2 23 -2 30 0 6 3 -1 5 -18 5 -16 0 -22 -2 -12 -5z"/>
<path d="M9518 2763 c12 -2 30 -2 40 0 9 3 -1 5 -23 4 -22 0 -30 -2 -17 -4z"/>
<path d="M10128 2763 c7 -3 16 -2 19 1 4 3 -2 6 -13 5 -11 0 -14 -3 -6 -6z"/>
<path d="M10210 2760 c19 -4 52 -15 73 -24 20 -9 37 -14 37 -11 0 12 -86 45
-115 44 -30 -1 -30 -1 5 -9z"/>
<path d="M10665 2760 c-3 -6 1 -7 9 -4 18 7 21 14 7 14 -6 0 -13 -4 -16 -10z"/>
<path d="M10770 2766 c0 -2 7 -7 16 -10 8 -3 12 -2 9 4 -6 10 -25 14 -25 6z"/>
<path d="M8583 2753 c70 -2 184 -2 255 0 70 1 12 3 -128 3 -140 0 -198 -2
-127 -3z"/>
<path d="M8978 2753 c7 -3 16 -2 19 1 4 3 -2 6 -13 5 -11 0 -14 -3 -6 -6z"/>
<path d="M9378 2753 c7 -3 16 -2 19 1 4 3 -2 6 -13 5 -11 0 -14 -3 -6 -6z"/>
<path d="M9595 2750 c11 -4 42 -17 68 -29 26 -11 45 -16 41 -10 -8 14 -91 49
-112 48 -14 0 -13 -2 3 -9z"/>
<path d="M9257 2698 c-21 -17 -42 -40 -48 -52 -6 -11 12 1 40 29 46 45 56 56
49 55 -2 -1 -20 -15 -41 -32z"/>
<path d="M10008 2713 c-30 -36 -30 -47 0 -19 18 17 32 31 32 33 0 9 -19 1 -32
-14z"/>
<path d="M8994 2707 c-8 -23 5 -120 19 -133 11 -11 8 119 -3 136 -8 12 -10 12
-16 -3z"/>
<path d="M10737 2697 c-3 -8 1 -14 8 -14 7 0 11 6 8 14 -3 7 -6 13 -8 13 -2 0
-5 -6 -8 -13z"/>
<path d="M10141 2657 c-6 -6 -11 -15 -11 -21 0 -6 5 -5 12 2 7 7 25 12 42 12
16 0 26 3 23 7 -12 11 -54 12 -66 0z"/>
<path d="M1705 2627 c-9 -34 -2 -43 26 -31 l21 10 -20 24 -20 25 -7 -28z"/>
<path d="M10392 2560 c1 -52 3 -63 7 -35 l5 40 6 -45 7 -45 1 50 c1 28 -5 64
-13 80 -13 28 -13 26 -13 -45z"/>
<path d="M9463 2603 c-12 -2 -27 -12 -35 -20 -11 -15 -11 -16 7 -8 39 16 87
18 96 4 7 -11 9 -11 9 -1 0 10 -45 36 -53 31 -1 -1 -12 -4 -24 -6z"/>
<path d="M10228 2579 c2 -17 8 -27 13 -22 9 9 1 53 -10 53 -4 0 -6 -14 -3 -31z"/>
<path d="M1735 2581 c3 -5 -3 -12 -12 -14 -10 -3 -4 -5 14 -6 25 -1 31 2 27
14 -4 8 -13 15 -21 15 -8 0 -12 -4 -8 -9z"/>
<path d="M9805 2548 c13 -71 25 -228 21 -287 -5 -69 -1 -53 19 70 8 52 -8 167
-31 214 -14 29 -14 29 -9 3z"/>
<path d="M8630 2553 c0 -5 57 -7 127 -5 236 4 259 8 66 10 -106 1 -193 -1
-193 -5z"/>
<path d="M1728 2543 c-10 -2 -18 -8 -18 -13 0 -10 38 -1 46 11 5 9 1 10 -28 2z"/>
<path d="M9943 2500 c0 -25 2 -35 4 -22 2 12 2 32 0 45 -2 12 -4 2 -4 -23z"/>
<path d="M10100 2517 c0 -31 9 -57 20 -57 8 0 -4 67 -14 77 -3 4 -6 -5 -6 -20z"/>
<path d="M8601 2504 c0 -11 3 -14 6 -6 3 7 2 16 -1 19 -3 4 -6 -2 -5 -13z"/>
<path d="M9575 2500 c5 -14 11 -52 15 -85 l7 -60 2 71 c1 55 -3 75 -15 85 -15
12 -16 11 -9 -11z"/>
<path d="M8800 2466 c0 -3 15 -9 33 -14 17 -6 49 -17 70 -26 46 -20 41 -5 -5
17 -37 17 -98 31 -98 23z"/>
<path d="M9371 2454 c0 -11 3 -14 6 -6 3 7 2 16 -1 19 -3 4 -6 -2 -5 -13z"/>
<path d="M8630 2450 c-9 -6 -10 -10 -3 -10 6 0 15 5 18 10 8 12 4 12 -15 0z"/>
<path d="M1850 2419 c-100 -4 -91 -5 70 -6 102 0 176 1 165 3 -46 7 -127 9
-235 3z"/>
<path d="M10158 2413 c7 -3 16 -2 19 1 4 3 -2 6 -13 5 -11 0 -14 -3 -6 -6z"/>
<path d="M10350 2389 c-14 -11 -33 -27 -43 -35 -10 -8 -30 -19 -43 -25 -39
-14 -150 -11 -191 6 -48 20 -54 11 -7 -11 25 -12 61 -18 113 -18 88 1 145 24
181 74 25 35 24 36 -10 9z"/>
<path d="M9366 2290 c3 -91 19 -189 29 -178 2 1 0 66 -4 143 -5 93 -9 120 -11
80 l-3 -60 -8 60 c-5 44 -6 32 -3 -45z"/>
<path d="M1648 2383 c23 -2 59 -2 80 0 20 2 1 4 -43 4 -44 0 -61 -2 -37 -4z"/>
<path d="M1287 2361 c-3 -12 -1 -21 3 -21 14 0 19 15 11 29 -6 9 -10 7 -14 -8z"/>
<path d="M1232 2361 c-7 -4 -10 -15 -6 -24 7 -18 24 -23 24 -7 0 6 -5 10 -12
10 -6 0 -8 3 -4 7 4 5 14 -1 22 -11 11 -16 14 -17 14 -4 0 21 -23 39 -38 29z"/>
<path d="M9130 2304 c0 -48 20 -192 30 -216 11 -26 10 -21 -9 141 -12 96 -21
129 -21 75z"/>
<path d="M8595 2292 c-39 -27 -40 -27 -123 -16 -45 6 -85 7 -88 2 -3 -4 1 -8
8 -8 8 0 51 -5 97 -10 77 -10 85 -9 105 8 41 38 109 56 130 35 10 -10 56 -12
50 -1 -3 4 -9 6 -14 3 -5 -3 -11 -1 -15 5 -3 5 -30 10 -58 10 -40 -1 -61 -7
-92 -28z"/>
<path d="M10808 2303 c7 -3 16 -2 19 1 4 3 -2 6 -13 5 -11 0 -14 -3 -6 -6z"/>
<path d="M9028 2247 c5 -54 32 -101 32 -55 0 30 -19 96 -29 102 -4 3 -6 -18
-3 -47z"/>
<path d="M10888 2275 c68 -32 78 -31 27 0 -22 14 -49 25 -60 25 -11 0 4 -11
33 -25z"/>
<path d="M8796 2256 c5 -13 4 -17 -3 -13 -7 5 -7 -7 1 -36 l11 -42 3 44 c2 24
-2 49 -8 55 -8 8 -9 6 -4 -8z"/>
<path d="M10506 2262 c-3 -5 1 -9 9 -9 8 0 12 4 9 9 -3 4 -7 8 -9 8 -2 0 -6
-4 -9 -8z"/>
<path d="M10623 2247 c-35 -39 -37 -53 -2 -20 18 18 31 35 28 38 -3 3 -15 -5
-26 -18z"/>
<path d="M9842 2220 c0 -14 2 -19 5 -12 2 6 2 18 0 25 -3 6 -5 1 -5 -13z"/>
<path d="M10755 2189 c-10 -16 -3 -16 35 -3 l35 13 -32 0 c-17 1 -35 -4 -38
-10z"/>
<path d="M9811 2164 c0 -11 3 -14 6 -6 3 7 2 16 -1 19 -3 4 -6 -2 -5 -13z"/>
<path d="M11004 2157 c3 -10 7 -42 7 -70 1 -29 4 -41 6 -28 4 19 7 21 15 10 8
-11 9 -10 4 4 -3 10 -6 29 -6 41 0 12 -7 31 -16 42 -14 17 -15 17 -10 1z"/>
<path d="M10846 2143 c-2 -10 -1 -36 4 -58 8 -39 8 -39 9 18 1 57 -3 72 -13
40z"/>
<path d="M8483 2133 c9 -2 23 -2 30 0 6 3 -1 5 -18 5 -16 0 -22 -2 -12 -5z"/>
<path d="M9540 2065 c-8 -9 -8 -15 -2 -15 12 0 26 19 19 26 -2 2 -10 -2 -17
-11z"/>
<path d="M10722 2064 c-10 -18 -4 -61 9 -70 5 -3 9 15 9 40 0 49 -4 55 -18 30z"/>
<path d="M8754 2049 c-19 -22 -19 -22 4 -10 12 6 22 16 22 21 0 15 -5 12 -26
-11z"/>
<path d="M10551 2050 c0 -14 4 -34 9 -45 7 -17 9 -16 9 10 0 17 -4 37 -9 45
-8 12 -10 10 -9 -10z"/>
<path d="M9440 2049 c0 -5 9 -9 20 -9 11 0 20 2 20 4 0 2 -9 6 -20 9 -11 3
-20 1 -20 -4z"/>
<path d="M8635 2030 c3 -5 21 -10 38 -9 31 1 31 1 7 9 -36 11 -52 11 -45 0z"/>
<path d="M11001 2014 c0 -11 3 -14 6 -6 3 7 2 16 -1 19 -3 4 -6 -2 -5 -13z"/>
<path d="M8954 1982 c-70 -61 -83 -70 -120 -83 -25 -9 -81 -14 -154 -14 -103
1 -121 4 -173 28 -32 14 -55 21 -51 15 4 -5 27 -20 53 -31 64 -28 242 -35 321
-12 30 9 60 16 67 17 7 1 10 5 8 9 -5 7 25 23 38 20 5 -1 6 3 2 9 -3 5 -2 10
3 10 10 0 46 49 40 55 -2 2 -17 -9 -34 -23z"/>
<path d="M9703 1946 c-48 -36 -72 -47 -128 -57 -74 -13 -200 -6 -222 12 -7 7
-13 8 -13 5 0 -4 -13 2 -30 14 -16 12 -30 17 -30 12 0 -6 7 -13 16 -16 8 -3
13 -9 10 -14 -2 -4 3 -8 12 -9 9 -1 35 -6 57 -12 59 -15 183 -13 245 4 30 9
60 16 67 17 7 1 10 5 7 10 -5 8 11 12 30 9 5 -1 4 5 -3 13 -11 13 -10 15 7 11
13 -2 23 4 31 21 6 13 9 24 7 24 -2 0 -31 -20 -63 -44z"/>
<path d="M10820 1960 c-9 -6 -10 -10 -3 -10 6 0 15 5 18 10 8 12 4 12 -15 0z"/>
<path d="M10760 1950 c0 -5 5 -10 10 -10 6 0 10 5 10 10 0 6 -4 10 -10 10 -5
0 -10 -4 -10 -10z"/>
<path d="M10930 1902 c-19 -18 -53 -37 -75 -43 -54 -15 -138 -5 -180 21 -19
12 -35 17 -35 12 0 -6 19 -20 43 -31 75 -36 209 -24 260 23 13 12 27 22 32 23
13 4 15 30 1 29 -6 0 -27 -16 -46 -34z"/>
<path d="M10315 1909 c-4 -6 -5 -12 -2 -15 2 -3 7 2 10 11 7 17 1 20 -8 4z"/>
<path d="M10240 1850 l-45 -7 58 -1 c37 -1 56 2 52 8 -3 6 -9 9 -13 8 -4 0
-27 -4 -52 -8z"/>
<path d="M1790 981 c0 -10 7 -21 15 -25 11 -4 15 -22 15 -76 0 -54 -4 -72 -15
-76 -8 -4 -15 -15 -15 -25 0 -16 8 -19 50 -19 42 0 50 3 50 19 0 10 -7 21 -15
25 -12 4 -15 25 -15 101 l0 95 -35 0 c-28 0 -35 -4 -35 -19z"/>
<path d="M1900 981 c0 -10 7 -21 15 -25 11 -4 15 -22 15 -76 0 -54 -4 -72 -15
-76 -8 -4 -15 -15 -15 -25 0 -16 8 -19 50 -19 42 0 50 3 50 19 0 10 -7 21 -15
25 -12 4 -15 25 -15 101 l0 95 -35 0 c-28 0 -35 -4 -35 -19z"/>
<path d="M2760 920 c0 -79 0 -80 25 -80 25 0 25 1 25 80 0 79 0 80 -25 80 -25
0 -25 -1 -25 -80z"/>
<path d="M1040 970 c0 -11 5 -20 10 -20 6 0 10 -32 10 -75 0 -43 -4 -75 -10
-75 -5 0 -10 -9 -10 -20 0 -19 7 -20 95 -20 l95 0 0 40 c0 38 -2 40 -30 40
-23 0 -30 -4 -30 -20 0 -15 -7 -20 -25 -20 -20 0 -25 5 -25 25 0 18 5 25 20
25 15 0 20 7 20 25 0 18 -5 25 -20 25 -15 0 -20 7 -20 25 0 20 5 25 24 25 16
0 26 -7 29 -21 4 -15 12 -20 29 -17 19 2 24 10 26 41 l3 37 -95 0 c-89 0 -96
-1 -96 -20z"/>
<path d="M1240 899 c0 -10 5 -19 10 -19 6 0 10 -18 10 -40 0 -22 -4 -40 -10
-40 -5 0 -10 -9 -10 -20 0 -17 7 -20 50 -20 43 0 50 3 50 20 0 11 -7 20 -16
20 -24 0 -15 74 10 78 26 5 36 -15 36 -70 l0 -48 35 0 c28 0 35 4 35 20 0 11
-4 20 -10 20 -5 0 -10 17 -10 38 0 21 -7 47 -15 59 -13 19 -25 22 -90 22 -68
0 -75 -2 -75 -20z"/>
<path d="M1450 899 c0 -10 5 -19 10 -19 6 0 10 -18 10 -40 0 -22 -4 -40 -10
-40 -5 0 -10 -9 -10 -20 0 -18 7 -20 55 -20 47 0 55 3 55 19 0 10 -9 21 -20
24 -24 6 -27 48 -5 67 10 9 15 9 15 1 0 -6 11 -11 25 -11 21 0 25 5 25 29 l0
30 -75 0 c-68 0 -75 -2 -75 -20z"/>
<path d="M1635 895 c-31 -30 -32 -73 -4 -109 16 -21 29 -26 64 -26 35 0 48 5
64 26 45 58 11 134 -60 134 -29 0 -47 -7 -64 -25z m79 -21 c24 -9 21 -61 -4
-69 -27 -8 -50 11 -50 40 0 29 23 41 54 29z"/>
<path d="M2070 899 c0 -10 5 -19 10 -19 6 0 10 -18 10 -40 0 -22 -4 -40 -10
-40 -5 0 -10 -9 -10 -20 0 -17 7 -20 50 -20 42 0 50 3 50 19 0 10 -7 21 -15
25 -19 7 -19 50 0 66 29 24 45 4 45 -55 l0 -55 35 0 c28 0 35 4 35 20 0 11 -4
20 -10 20 -5 0 -10 20 -10 43 0 62 -18 75 -107 75 -66 1 -73 -1 -73 -19z"/>
<path d="M2310 900 c-60 -60 -10 -154 75 -141 61 9 88 96 42 139 -30 29 -89
30 -117 2z m90 -40 c22 -40 -26 -80 -58 -48 -25 25 -6 68 30 68 9 0 22 -9 28
-20z"/>
<path d="M2460 901 c0 -11 4 -22 10 -26 5 -3 17 -30 26 -60 15 -46 21 -55 41
-55 17 0 26 8 33 28 26 69 26 70 42 22 11 -35 20 -46 39 -48 22 -3 27 4 44 54
10 31 25 58 32 61 7 3 13 14 13 24 0 16 -8 19 -45 19 -38 0 -45 -3 -45 -19 0
-11 5 -21 11 -23 6 -2 7 -12 1 -27 -10 -27 -14 -23 -31 32 -10 29 -18 37 -37
37 -20 0 -26 -7 -36 -44 -14 -54 -32 -50 -23 5 l7 39 -41 0 c-34 0 -41 -3 -41
-19z"/>
<path d="M2767 804 c-12 -12 -8 -42 6 -47 21 -8 39 8 35 29 -3 19 -29 30 -41
18z"/>
</g>
</svg>
