<?xml version="1.0" encoding="UTF-8"?>
<svg version="1.1" xmlns="http://www.w3.org/2000/svg" width="300" height="200">
<path d="M0 0 C99 0 198 0 300 0 C300 66 300 132 300 200 C201 200 102 200 0 200 C0 134 0 68 0 0 Z " fill="#F5F0E4" transform="translate(0,0)"/>
<path d="M0 0 C7.69265911 6.59337009 14.17074949 13.79681217 19.58886719 22.36181641 C20.35457031 23.51037109 20.35457031 23.51037109 21.13574219 24.68212891 C36.04542283 47.96889815 39.17024339 76.23443107 33.53808594 102.99462891 C32.44973024 106.85538038 30.99730205 110.6059901 29.58886719 114.36181641 C-34.10113281 114.36181641 -97.79113281 114.36181641 -163.41113281 114.36181641 C-171.92104064 87.13011135 -172.69053586 58.5925507 -159.66088867 32.57958984 C-146.47829189 7.45700491 -124.38491543 -12.03547116 -97.16113281 -20.57568359 C-63.14981422 -30.54316965 -27.19865066 -22.55637645 0 0 Z " fill="#F8CD5D" transform="translate(223.4111328125,85.63818359375)"/>
<path d="M0 0 C0.72953384 -0.00807175 1.45906769 -0.01614349 2.21070862 -0.02445984 C3.76341361 -0.03832632 5.31614941 -0.04903695 6.86889648 -0.05688477 C9.21334696 -0.07392397 11.55632174 -0.11776012 13.90039062 -0.16210938 C23.02676724 -0.25758607 31.36652513 0.01774527 38.87280273 5.83081055 C41.427051 7.68048286 43.72356347 7.88682184 46.81640625 8.23828125 C46.65785156 8.90214844 46.49929687 9.56601563 46.3359375 10.25 C45.83093277 13.15472644 45.66981529 15.96777947 45.57592773 18.91088867 C45.29509885 27.25483847 43.95746705 34.73259254 41.65625 42.75 C40.56311917 47.29030617 39.81842779 50.58373801 42.30078125 54.69921875 C44.23347159 57.93697319 44.15240551 60.12231349 44.06640625 63.86328125 C44.0509375 64.98992187 44.03546875 66.1165625 44.01953125 67.27734375 C43.81640625 70.23828125 43.81640625 70.23828125 42.81640625 73.23828125 C48.54554976 73.38164329 54.27471638 73.52403021 60.00390625 73.66552734 C61.951504 73.71376406 63.89909526 73.76226371 65.84667969 73.81103516 C68.65167589 73.88123169 71.45669435 73.95047177 74.26171875 74.01953125 C75.12757599 74.04140503 75.99343323 74.06327881 76.88552856 74.08581543 C81.1971665 74.19103542 85.50304274 74.26282386 89.81640625 74.23828125 C90.30109333 80.66038511 90.30109333 80.66038511 88.19140625 83.17578125 C85.25610172 84.4889438 82.99777019 84.45519243 79.81640625 84.23828125 C79.32140625 80.77328125 79.32140625 80.77328125 78.81640625 77.23828125 C76.31602891 79.41252242 75.38012039 80.96873923 74.81640625 84.23828125 C69.40102163 84.60751202 69.40102163 84.60751202 66.44140625 82.73828125 C65.90515625 82.24328125 65.36890625 81.74828125 64.81640625 81.23828125 C64.81640625 82.22828125 64.81640625 83.21828125 64.81640625 84.23828125 C52.60640625 84.23828125 40.39640625 84.23828125 27.81640625 84.23828125 C28.80640625 86.21828125 29.79640625 88.19828125 30.81640625 90.23828125 C30.81640625 90.89828125 30.81640625 91.55828125 30.81640625 92.23828125 C28.85492751 93.62766202 26.85474049 94.96432235 24.81640625 96.23828125 C24.15640625 95.24828125 23.49640625 94.25828125 22.81640625 93.23828125 C22.48640625 98.51828125 22.15640625 103.79828125 21.81640625 109.23828125 C12.57640625 109.23828125 3.33640625 109.23828125 -6.18359375 109.23828125 C-6.18359375 102.63828125 -6.18359375 96.03828125 -6.18359375 89.23828125 C-7.17359375 89.73328125 -7.17359375 89.73328125 -8.18359375 90.23828125 C-11.18359375 90.48828125 -11.18359375 90.48828125 -14.18359375 90.23828125 C-16.39498195 86.92119895 -16.42364411 85.73529792 -16.55859375 81.86328125 C-16.8468406 77.29484057 -17.64223862 73.64022826 -19.24609375 69.36328125 C-22.42717186 59.98082343 -21.52602486 50.0199575 -21.18359375 40.23828125 C-17.91283492 40.18023365 -14.64220851 40.1446696 -11.37109375 40.11328125 C-10.44232422 40.09652344 -9.51355469 40.07976562 -8.55664062 40.0625 C-7.21762695 40.05283203 -7.21762695 40.05283203 -5.8515625 40.04296875 C-5.02938232 40.03249512 -4.20720215 40.02202148 -3.36010742 40.01123047 C-1.18359375 40.23828125 -1.18359375 40.23828125 1.81640625 42.23828125 C2.14640625 41.57828125 2.47640625 40.91828125 2.81640625 40.23828125 C5.29140625 39.74328125 5.29140625 39.74328125 7.81640625 39.23828125 C7.81640625 34.61828125 7.81640625 29.99828125 7.81640625 25.23828125 C1.87640625 24.90828125 -4.06359375 24.57828125 -10.18359375 24.23828125 C-10.18359375 20.27828125 -10.18359375 16.31828125 -10.18359375 12.23828125 C-9.52359375 12.23828125 -8.86359375 12.23828125 -8.18359375 12.23828125 C-8.19519531 11.45582031 -8.20679687 10.67335938 -8.21875 9.8671875 C-8.22777344 8.85527344 -8.23679687 7.84335938 -8.24609375 6.80078125 C-8.25769531 5.79144531 -8.26929687 4.78210938 -8.28125 3.7421875 C-8.08339897 -1.33071302 -4.08377913 0.0426578 0 0 Z " fill="#FCFCFB" transform="translate(124.18359375,81.76171875)"/>
<path d="M0 0 C4.81947249 2.96740344 8.11350664 6.6383873 10 12 C10.55246774 15.02381199 11.01811458 18.05553696 11.484375 21.09375 C12.41251359 26.32507661 13.46830562 29.89726098 17.95703125 33.12890625 C21.95028855 36.35506644 22.54642078 40.12084621 23.4375 45 C23.69563477 46.19109375 23.69563477 46.19109375 23.95898438 47.40625 C25.54987086 55.26247956 25.54987086 55.26247956 24 59 C21.93359375 60.66015625 21.93359375 60.66015625 19.4375 62.0625 C16.95160362 63.3773042 16.95160362 63.3773042 15 65 C15 66.32 15 67.64 15 69 C5.1 69 -4.8 69 -15 69 C-14.67 67.68 -14.34 66.36 -14 65 C-13.85769859 62.85726916 -13.77978836 60.70974423 -13.75 58.5625 C-13.72421875 57.45003906 -13.6984375 56.33757812 -13.671875 55.19140625 C-14.03567913 51.65297794 -15.15038435 49.97504317 -17 47 C-17.42077642 41.72200013 -15.90083248 36.48604477 -14.5 31.4375 C-12.92547929 25.60117562 -12.55915405 19.97740732 -12.46679688 13.96264648 C-12.32978357 9.25612911 -11.5234165 5.98747419 -9 2 C-5.42529543 -0.38313638 -4.21446465 -0.64837918 0 0 Z " fill="#FA6B6B" transform="translate(181,87)"/>
<path d="M0 0 C0.66 0.99 1.32 1.98 2 3 C4.59120557 3.50902409 4.59120557 3.50902409 7.5 3.5625 C12.79229711 3.79229711 12.79229711 3.79229711 15 6 C18.41600593 6.41692853 18.41600593 6.41692853 22 6 C22.87510223 5.25836861 22.87510223 5.25836861 23.7678833 4.50175476 C26.87523688 2.41114586 29.72408119 2.60266581 33.33886719 2.65942383 C34.07096909 2.65898575 34.80307098 2.65854767 35.55735779 2.65809631 C37.97080399 2.66018192 40.38355056 2.68350145 42.796875 2.70703125 C44.47267273 2.71262803 46.14847538 2.71689774 47.82427979 2.71989441 C52.23026127 2.73133675 56.63594504 2.76079857 61.04180908 2.79400635 C65.5395505 2.82472045 70.03734013 2.83840261 74.53515625 2.85351562 C83.35690148 2.88566893 92.17842596 2.93685785 101 3 C101.203125 9.7578125 101.203125 9.7578125 99.375 11.9375 C96.43969547 13.25066255 94.18136394 13.21691118 91 13 C90.505 9.535 90.505 9.535 90 6 C87.49962266 8.17424117 86.56371414 9.73045798 86 13 C80.58461538 13.36923077 80.58461538 13.36923077 77.625 11.5 C77.08875 11.005 76.5525 10.51 76 10 C76 10.99 76 11.98 76 13 C63.79 13 51.58 13 39 13 C39.99 14.98 40.98 16.96 42 19 C42 19.66 42 20.32 42 21 C40.03852126 22.38938077 38.03833424 23.7260411 36 25 C35.34 24.01 34.68 23.02 34 22 C33.67 27.28 33.34 32.56 33 38 C23.76 38 14.52 38 5 38 C5 31.4 5 24.8 5 18 C4.34 18.33 3.68 18.66 3 19 C0 19.25 0 19.25 -3 19 C-5.49118953 15.2632157 -5.2065226 13.25548181 -5.125 8.8125 C-5.10695313 7.54019531 -5.08890625 6.26789063 -5.0703125 4.95703125 C-5.04710938 3.98121094 -5.02390625 3.00539062 -5 2 C-3.35 1.34 -1.7 0.68 0 0 Z " fill="#6283F0" transform="translate(113,153)"/>
<path d="M0 0 C0.66 0 1.32 0 2 0 C2.495 3.465 2.495 3.465 3 7 C6.35433109 6.05066101 9.69246505 5.10251165 13 4 C12.76753726 11.20634505 11.45828818 17.86710977 6 23 C2.19792123 23.84084434 -1.17423382 23.61266718 -5 23 C-5 22.34 -5 21.68 -5 21 C-7.69682467 21.69512279 -7.69682467 21.69512279 -10 24 C-10.30358452 26.68237267 -10.30358452 26.68237267 -10.15625 29.63671875 C-10.12241211 31.13851685 -10.12241211 31.13851685 -10.08789062 32.6706543 C-10.05888672 33.43933838 -10.02988281 34.20802246 -10 35 C-15.55011716 35.04969113 -21.10010282 35.08585685 -26.65039062 35.10986328 C-28.53583026 35.11987847 -30.42125453 35.13349452 -32.30664062 35.15087891 C-35.02738249 35.17532532 -37.74791777 35.18652816 -40.46875 35.1953125 C-41.71924133 35.21079636 -41.71924133 35.21079636 -42.99499512 35.22659302 C-48.32762391 35.22759968 -52.87442038 34.48724147 -58 33 C-56.515 32.505 -56.515 32.505 -55 32 C-55 26.39 -55 20.78 -55 15 C-53.68 15.99 -52.36 16.98 -51 18 C-50.54625 17.505 -50.0925 17.01 -49.625 16.5 C-48 15 -48 15 -46 15 C-46.495 14.05125 -46.99 13.1025 -47.5 12.125 C-49 9 -49 9 -49 7 C-36.79 7 -24.58 7 -12 7 C-12 6.01 -12 5.02 -12 4 C-11.46375 4.309375 -10.9275 4.61875 -10.375 4.9375 C-7.6015043 6.17827439 -4.99957163 6.5909675 -2 7 C-1.855625 6.030625 -1.71125 5.06125 -1.5625 4.0625 C-1 1 -1 1 0 0 Z " fill="#E6DA75" transform="translate(201,159)"/>
<path d="M0 0 C3.27075883 -0.0580476 6.54138524 -0.09361165 9.8125 -0.125 C10.74126953 -0.14175781 11.67003906 -0.15851563 12.62695312 -0.17578125 C13.51962891 -0.18222656 14.41230469 -0.18867187 15.33203125 -0.1953125 C16.15421143 -0.20578613 16.9763916 -0.21625977 17.82348633 -0.22705078 C20 0 20 0 23 2 C23.66 1.34 24.32 0.68 25 0 C25 1.32 25 2.64 25 4 C25.83144531 3.96519531 26.66289062 3.93039063 27.51953125 3.89453125 C29.14955078 3.85392578 29.14955078 3.85392578 30.8125 3.8125 C31.89144531 3.77769531 32.97039062 3.74289063 34.08203125 3.70703125 C37 4 37 4 38.86328125 5.0859375 C40.5876426 7.98950129 40.39638827 10.46523525 40.375 13.8125 C40.38660156 15.61654297 40.38660156 15.61654297 40.3984375 17.45703125 C39.86218824 22.22544377 38.39896221 25.60103779 35 29 C34.3574765 31.06874034 34.3574765 31.06874034 34 33 C34.66 33 35.32 33 36 33 C34.25 36.875 34.25 36.875 32 38 C28.5 38.1875 28.5 38.1875 25 38 C24.34 37.34 23.68 36.68 23 36 C20.17464058 35.65555032 17.37450983 35.55738132 14.53125 35.44140625 C13.6959375 35.29574219 12.860625 35.15007812 12 35 C11.34 34.01 10.68 33.02 10 32 C7.52733235 32.34444881 7.52733235 32.34444881 5 33 C4.67 33.66 4.34 34.32 4 35 C-0.87449113 23.46660581 -0.43065721 12.30188878 0 0 Z " fill="#FBF9F8" transform="translate(103,122)"/>
<path d="M0 0 C18.2198315 20.52688808 27.91360253 48.20806778 26.56738281 75.60839844 C25.76321019 86.10163275 23.99877357 96.79964908 20.40625 106.7109375 C19.41625 106.7109375 18.42625 106.7109375 17.40625 106.7109375 C18.06184038 101.85956868 19.3225442 97.27846691 20.6875 92.58984375 C26.85206811 67.8980682 21.70382345 41.55875859 9.6796875 19.55078125 C-6.5197808 -6.74561591 -29.13850763 -21.82110163 -58.59375 -29.2890625 C-59.53476563 -29.5365625 -60.47578125 -29.7840625 -61.4453125 -30.0390625 C-87.16312613 -35.77182591 -114.75451807 -28.09423835 -136.59375 -14.2890625 C-140.49846995 -11.51961315 -144.06594923 -8.52156156 -147.59375 -5.2890625 C-148.50769531 -4.46792969 -149.42164063 -3.64679688 -150.36328125 -2.80078125 C-167.86440247 13.72125627 -179.76195504 37.30533108 -180.70214844 61.50048828 C-180.76326393 64.52971272 -180.77933482 67.55612276 -180.78125 70.5859375 C-180.79349609 71.59785156 -180.80574219 72.60976562 -180.81835938 73.65234375 C-180.83161712 80.55521161 -180.06592494 86.97226756 -178.59375 93.7109375 C-178.37319946 94.74009277 -178.37319946 94.74009277 -178.14819336 95.79003906 C-177.77141391 97.49653503 -177.37105641 99.19777857 -176.96875 100.8984375 C-176.57816406 102.55939453 -176.57816406 102.55939453 -176.1796875 104.25390625 C-175.98632812 105.06472656 -175.79296875 105.87554687 -175.59375 106.7109375 C-176.58375 106.7109375 -177.57375 106.7109375 -178.59375 106.7109375 C-179.22342954 104.73325467 -179.84722489 102.75369815 -180.46875 100.7734375 C-180.99082031 99.12021484 -180.99082031 99.12021484 -181.5234375 97.43359375 C-183.88736896 89.21159857 -184.953811 81.79052787 -184.90625 73.2109375 C-184.89887817 71.63034546 -184.89887817 71.63034546 -184.89135742 70.01782227 C-184.51384787 44.56980644 -176.10802759 19.51545184 -158.59375 0.7109375 C-158.12485352 0.1957959 -157.65595703 -0.3193457 -157.17285156 -0.85009766 C-137.08227865 -22.76767736 -110.69261809 -33.90290015 -81.08837891 -35.26806641 C-49.96686802 -36.05621302 -21.32273822 -21.9300314 0 0 Z " fill="#FEFCF6" transform="translate(235.59375,93.2890625)"/>
<path d="M0 0 C3.77068832 -0.086985 7.54111932 -0.14038579 11.3125 -0.1875 C12.38435547 -0.21263672 13.45621094 -0.23777344 14.56054688 -0.26367188 C15.58857422 -0.27333984 16.61660156 -0.28300781 17.67578125 -0.29296875 C19.0975769 -0.31653442 19.0975769 -0.31653442 20.5480957 -0.34057617 C23 0 23 0 24.80517578 1.20092773 C26.39128195 3.58916157 26.39884714 5.2208032 26.44140625 8.078125 C26.46783203 9.07457031 26.49425781 10.07101563 26.52148438 11.09765625 C26.53501953 12.13792969 26.54855469 13.17820312 26.5625 14.25 C26.67605896 20.93736125 27.13847079 26.55060747 29 33 C29.31403709 36.5858906 29.3330213 40.15203465 29.3125 43.75 C29.30730347 45.21119263 29.30730347 45.21119263 29.30200195 46.7019043 C29.09529482 60.35713743 29.09529482 60.35713743 26 66 C22.71480525 67.09506492 20.26336585 67.09960608 16.8125 67.0625 C15.72582031 67.05347656 14.63914063 67.04445313 13.51953125 67.03515625 C12.27236328 67.01775391 12.27236328 67.01775391 11 67 C10.505 64.525 10.505 64.525 10 62 C13.3 59.69 16.6 57.38 20 55 C19.27716601 42.37591157 19.27716601 42.37591157 14.57421875 31.234375 C13.07629372 30.11929433 11.53881623 29.05793616 10 28 C7.53006442 23.67761274 6.77995939 19.91183737 6.0625 15 C5.28577306 9.74721952 3.95269207 6.38141405 1 2 C0.67 1.34 0.34 0.68 0 0 Z " fill="#FCFAFA" transform="translate(185,90)"/>
<path d="M0 0 C4.81947249 2.96740344 8.11350664 6.6383873 10 12 C10.28974082 13.87217145 10.55827897 15.74767548 10.8125 17.625 C11.49113143 22.39902462 12.7868451 25.85163087 15.125 30.0625 C18.195749 35.79757534 19.22846289 40.55858157 18 47 C16.4375 50.125 16.4375 50.125 14 52 C10.3125 52.875 10.3125 52.875 7 53 C6.505 52.505 6.505 52.505 6 52 C6.09329561 50.5373656 6.25176342 49.07879001 6.4375 47.625 C7.90044462 38.16978264 7.90044462 38.16978264 6.015625 29.18359375 C4.22566201 25.33517332 4.60025808 20.94587027 4.52148438 16.75585938 C4.39355525 12.66370755 4.39355525 12.66370755 2.6640625 9.046875 C0.23035365 7.51580934 -2.17768511 7.31359054 -5 7 C-5.144375 8.051875 -5.28875 9.10375 -5.4375 10.1875 C-6 14 -6 14 -6.75 16.625 C-7.09276353 19.88125357 -5.70366313 21.274139 -4 24 C-3.8125 26.8125 -3.8125 26.8125 -4 29 C-4.66 29 -5.32 29 -6 29 C-5.67 29.99 -5.34 30.98 -5 32 C-4.90721665 33.61513051 -4.86931497 35.23377055 -4.8671875 36.8515625 C-4.86525391 38.25148438 -4.86525391 38.25148438 -4.86328125 39.6796875 C-4.86714844 40.65164062 -4.87101563 41.62359375 -4.875 42.625 C-4.87113281 43.6046875 -4.86726562 44.584375 -4.86328125 45.59375 C-4.86457031 46.52445313 -4.86585938 47.45515625 -4.8671875 48.4140625 C-4.86831543 49.2695166 -4.86944336 50.1249707 -4.87060547 51.00634766 C-5 53 -5 53 -6 54 C-10.3277382 53.91834456 -12.35755038 53.62638838 -15.5 50.5625 C-18.25413372 44.02143241 -16.32740267 38.06524403 -14.5 31.4375 C-12.92547929 25.60117562 -12.55915405 19.97740732 -12.46679688 13.96264648 C-12.32978357 9.25612911 -11.5234165 5.98747419 -9 2 C-5.42529543 -0.38313638 -4.21446465 -0.64837918 0 0 Z " fill="#504E4D" transform="translate(181,87)"/>
<path d="M0 0 C0.66 0 1.32 0 2 0 C2.495 3.465 2.495 3.465 3 7 C6.35433109 6.05066101 9.69246505 5.10251165 13 4 C12.76753726 11.20634505 11.45828818 17.86710977 6 23 C2.19792123 23.84084434 -1.17423382 23.61266718 -5 23 C-5 22.34 -5 21.68 -5 21 C-5.9075 21.66 -6.815 22.32 -7.75 23 C-11 25 -11 25 -15 25 C-15 22.03 -15 19.06 -15 16 C-24.9 16 -34.8 16 -45 16 C-49 9 -49 9 -49 7 C-36.79 7 -24.58 7 -12 7 C-12 6.01 -12 5.02 -12 4 C-11.46375 4.309375 -10.9275 4.61875 -10.375 4.9375 C-7.6015043 6.17827439 -4.99957163 6.5909675 -2 7 C-1.855625 6.030625 -1.71125 5.06125 -1.5625 4.0625 C-1 1 -1 1 0 0 Z " fill="#EFF2FC" transform="translate(201,159)"/>
<path d="M0 0 C1.43352212 0.00015908 2.86704998 0.00585132 4.30053711 0.01586914 C5.43041298 0.01799156 5.43041298 0.01799156 6.58311462 0.02015686 C8.99807646 0.02577163 11.41294687 0.03832656 13.82788086 0.05102539 C15.46134307 0.05603849 17.09480672 0.06060173 18.72827148 0.06469727 C22.74070516 0.07489664 26.75294021 0.09446894 30.76538086 0.11352539 C30.76538086 6.05352539 30.76538086 11.99352539 30.76538086 18.11352539 C29.11538086 18.11352539 27.46538086 18.11352539 25.76538086 18.11352539 C25.76538086 19.10352539 25.76538086 20.09352539 25.76538086 21.11352539 C25.22550537 20.79134033 24.68562988 20.46915527 24.12939453 20.13720703 C21.27248336 18.90008749 19.05002524 18.81098407 15.94116211 18.73461914 C14.83063477 18.70045898 13.72010742 18.66629883 12.57592773 18.63110352 C10.84439453 18.59146484 10.84439453 18.59146484 9.07788086 18.55102539 C6.78219616 18.49138074 4.48660912 18.42780074 2.19116211 18.35961914 C1.17449463 18.33569092 0.15782715 18.3117627 -0.88964844 18.28710938 C-3.23461914 18.11352539 -3.23461914 18.11352539 -4.23461914 17.11352539 C-4.33443128 14.43621159 -4.37341789 11.79048365 -4.35961914 9.11352539 C-4.36348633 8.36329102 -4.36735352 7.61305664 -4.37133789 6.84008789 C-4.35926733 0.15299716 -4.35926733 0.15299716 0 0 Z " fill="#26DDA8" transform="translate(120.234619140625,81.886474609375)"/>
<path d="M0 0 C23.76 0 47.52 0 72 0 C72 7 72 7 70.375 8.9375 C67.43969547 10.25066255 65.18136394 10.21691118 62 10 C61.505 6.535 61.505 6.535 61 3 C58.49962266 5.17424117 57.56371414 6.73045798 57 10 C51.58461538 10.36923077 51.58461538 10.36923077 48.625 8.5 C48.08875 8.005 47.5525 7.51 47 7 C47 7.99 47 8.98 47 10 C41.66158219 10.14841624 36.32436658 10.2572453 30.984375 10.32958984 C29.16840701 10.35974788 27.35258451 10.40068198 25.53710938 10.45263672 C22.92541645 10.52550124 20.31564942 10.55946367 17.703125 10.5859375 C16.89256653 10.61690521 16.08200806 10.64787292 15.24688721 10.67977905 C13.0135434 10.68110994 11.14756786 10.61674077 9 10 C6.76855469 7.21337891 6.76855469 7.21337891 5 4 C3.35 2.68 1.7 1.36 0 0 Z " fill="#7D919C" transform="translate(142,156)"/>
<path d="M0 0 C2.625 0.375 2.625 0.375 5 1 C5.33 2.32 5.66 3.64 6 5 C6.66 5 7.32 5 8 5 C7.125 10.875 7.125 10.875 6 12 C5.95919217 13.99958364 5.95745644 16.00045254 6 18 C8.31 15.03 10.62 12.06 13 9 C14.08457253 13.33829013 13.70835375 16.13087755 13.05859375 20.46484375 C12.81076411 23.07587383 12.81076411 23.07587383 14.1640625 25.49609375 C15 28 15 28 13.83984375 30.5703125 C12.89818359 31.83488281 12.89818359 31.83488281 11.9375 33.125 C11.32777344 33.97320312 10.71804687 34.82140625 10.08984375 35.6953125 C7.88568377 38.12606837 5.94198253 39.56453992 3 41 C0.25 40.8125 0.25 40.8125 -2 40 C-5.54224167 32.91551666 -2.93413747 19.49556299 -2.625 11.6875 C-2.59422363 10.76219482 -2.56344727 9.83688965 -2.53173828 8.88354492 C-2.49290527 8.01834229 -2.45407227 7.15313965 -2.4140625 6.26171875 C-2.3826416 5.48787842 -2.3512207 4.71403809 -2.31884766 3.91674805 C-2 2 -2 2 0 0 Z " fill="#FEC1B1" transform="translate(152,111)"/>
<path d="M0 0 C1.0209375 0.00193359 1.0209375 0.00193359 2.0625 0.00390625 C7.09338846 0.09338846 7.09338846 0.09338846 9.375 2.375 C9.67578125 5.421875 9.67578125 5.421875 9.6875 9.125 C9.70425781 10.33671875 9.72101563 11.5484375 9.73828125 12.796875 C9.2683521 17.42542443 7.79307732 20.73875693 4.75 24.25 C0.99299314 26.02963483 -2.56734041 26.29357891 -6.625 25.375 C-9.41778995 23.22619456 -11.05251862 20.51996277 -12.625 17.375 C-12.63932527 15.24912935 -12.56387578 13.12215937 -12.4375 11 C-12.38207031 9.85789063 -12.32664062 8.71578125 -12.26953125 7.5390625 C-10.81846319 0.41563749 -6.5628187 -0.23887654 0 0 Z " fill="#4D4D4D" transform="translate(133.625,126.625)"/>
<path d="M0 0 C2.97 0 5.94 0 9 0 C10.77469292 11.65381682 12.49422371 23.30808999 14 35 C12.00045254 35.04254356 9.99958364 35.04080783 8 35 C7 34 7 34 6.9375 31.4375 C6.958125 30.633125 6.97875 29.82875 7 29 C5.35 29 3.7 29 2 29 C2 30.98 2 32.96 2 35 C0.02 35 -1.96 35 -4 35 C-2.71667426 23.32719672 -1.3874977 11.66088494 0 0 Z " fill="#E9901E" transform="translate(187,15)"/>
<path d="M0 0 C1.734375 1.171875 1.734375 1.171875 3 3 C3.29296875 5.69921875 3.29296875 5.69921875 3.1875 8.6875 C3.16042969 9.68136719 3.13335937 10.67523438 3.10546875 11.69921875 C3.07066406 12.45847656 3.03585938 13.21773437 3 14 C1.02 14 -0.96 14 -3 14 C-3 11.03 -3 8.06 -3 5 C-3.99 5.495 -3.99 5.495 -5 6 C-5 13.59 -5 21.18 -5 29 C-4.34 29.33 -3.68 29.66 -3 30 C-3 26.7 -3 23.4 -3 20 C-0.69 20 1.62 20 4 20 C4.29268781 25.65863105 4.03522952 29.02222358 1 34 C0 35 0 35 -3.875 35.25 C-7.7056638 35.20888375 -7.7056638 35.20888375 -9.9375 33.625 C-13.18183239 28.66307988 -12.26630513 22.88395987 -12.3125 17.125 C-12.34150391 15.92746094 -12.37050781 14.72992188 -12.40039062 13.49609375 C-12.40876953 12.34496094 -12.41714844 11.19382812 -12.42578125 10.0078125 C-12.44036377 8.95223145 -12.45494629 7.89665039 -12.4699707 6.80908203 C-11.25011713 -0.48215707 -6.15733111 -0.6841479 0 0 Z " fill="#E99120" transform="translate(152,15)"/>
<path d="M0 0 C2.0625 1.5 2.0625 1.5 3 4 C3.21804607 6.72038436 3.13699388 9.26012239 3 12 C1.02 12 -0.96 12 -3 12 C-3 9.69 -3 7.38 -3 5 C-3.99 5 -4.98 5 -6 5 C-4.89183447 10.4300111 -3.12373564 13.47659541 0.66015625 17.51953125 C3.11251512 20.22928056 3.18660097 22.31408779 3.25 25.875 C3.28867188 27.17050781 3.28867188 27.17050781 3.328125 28.4921875 C2.92842357 31.54704841 2.20716667 32.8611969 0 35 C-2.15625 35.53125 -2.15625 35.53125 -4.5 35.5 C-5.2734375 35.5103125 -6.046875 35.520625 -6.84375 35.53125 C-9 35 -9 35 -10.76953125 33.296875 C-12.23864355 30.55453204 -12.30945152 28.83943842 -12.1875 25.75 C-12.16042969 24.85796875 -12.13335937 23.9659375 -12.10546875 23.046875 C-12.07066406 22.37140625 -12.03585938 21.6959375 -12 21 C-10.02 21 -8.04 21 -6 21 C-5.8046875 23.05078125 -5.609375 25.1015625 -5.4140625 27.15234375 C-5.27742187 27.76207031 -5.14078125 28.37179688 -5 29 C-4.34 29.33 -3.68 29.66 -3 30 C-3.81408979 23.8101104 -5.2934375 19.92634703 -9.66015625 15.41015625 C-12.04747033 12.89756038 -12.18375972 10.92419443 -12.25 7.5625 C-12.28867188 6.38880859 -12.28867188 6.38880859 -12.328125 5.19140625 C-12 3 -12 3 -10.765625 1.2421875 C-7.49742802 -1.05711923 -3.81651737 -0.61831846 0 0 Z " fill="#E99120" transform="translate(243,15)"/>
<path d="M0 0 C2.0625 1.5 2.0625 1.5 3 4 C3.21804607 6.72038436 3.13699388 9.26012239 3 12 C1.02 12 -0.96 12 -3 12 C-3 9.69 -3 7.38 -3 5 C-3.99 5 -4.98 5 -6 5 C-4.89183447 10.4300111 -3.12373564 13.47659541 0.66015625 17.51953125 C3.11251512 20.22928056 3.18660097 22.31408779 3.25 25.875 C3.28867188 27.17050781 3.28867188 27.17050781 3.328125 28.4921875 C2.92842357 31.54704841 2.20716667 32.8611969 0 35 C-2.15625 35.53125 -2.15625 35.53125 -4.5 35.5 C-5.2734375 35.5103125 -6.046875 35.520625 -6.84375 35.53125 C-9 35 -9 35 -10.76953125 33.296875 C-12.23864355 30.55453204 -12.30945152 28.83943842 -12.1875 25.75 C-12.16042969 24.85796875 -12.13335937 23.9659375 -12.10546875 23.046875 C-12.07066406 22.37140625 -12.03585938 21.6959375 -12 21 C-10.02 21 -8.04 21 -6 21 C-5.8046875 23.05078125 -5.609375 25.1015625 -5.4140625 27.15234375 C-5.27742187 27.76207031 -5.14078125 28.37179688 -5 29 C-4.34 29.33 -3.68 29.66 -3 30 C-3.81408979 23.8101104 -5.2934375 19.92634703 -9.66015625 15.41015625 C-12.04747033 12.89756038 -12.18375972 10.92419443 -12.25 7.5625 C-12.28867188 6.38880859 -12.28867188 6.38880859 -12.328125 5.19140625 C-12 3 -12 3 -10.765625 1.2421875 C-7.49742802 -1.05711923 -3.81651737 -0.61831846 0 0 Z " fill="#E99120" transform="translate(220,15)"/>
<path d="M0 0 C2.09765625 0.375 2.09765625 0.375 4.16015625 1.875 C5.51728795 5.49401787 5.29040393 8.52004636 5.09765625 12.375 C3.11765625 12.375 1.13765625 12.375 -0.90234375 12.375 C-0.90234375 10.065 -0.90234375 7.755 -0.90234375 5.375 C-1.89234375 5.375 -2.88234375 5.375 -3.90234375 5.375 C-2.79417822 10.8050111 -1.02607939 13.85159541 2.7578125 17.89453125 C5.21017137 20.60428056 5.28425722 22.68908779 5.34765625 26.25 C5.38632812 27.54550781 5.38632812 27.54550781 5.42578125 28.8671875 C5.02797975 31.9075275 4.27530545 33.23168311 2.09765625 35.375 C-0.60858979 36.06792993 -3.16132588 35.86140192 -5.90234375 35.375 C-8.07710776 33.83161909 -8.72067012 32.73834727 -9.90234375 30.375 C-9.97184916 28.83476004 -9.98686732 27.29165012 -9.96484375 25.75 C-9.95582031 24.93273437 -9.94679688 24.11546875 -9.9375 23.2734375 C-9.92589844 22.64695312 -9.91429687 22.02046875 -9.90234375 21.375 C-7.92234375 21.375 -5.94234375 21.375 -3.90234375 21.375 C-3.70703125 23.42578125 -3.51171875 25.4765625 -3.31640625 27.52734375 C-3.17976563 28.13707031 -3.043125 28.74679688 -2.90234375 29.375 C-2.24234375 29.705 -1.58234375 30.035 -0.90234375 30.375 C-1.02102838 23.72866095 -2.64944373 20.84360596 -7.30859375 16.13671875 C-9.68288299 13.51219804 -9.89802799 11.4343417 -10.15234375 7.9375 C-9.90234375 4.375 -9.90234375 4.375 -8.96484375 1.9375 C-6.03682584 -0.28069538 -3.60162376 -0.18740156 0 0 Z " fill="#E9911F" transform="translate(284.90234375,14.625)"/>
<path d="M0 0 C1.98 0 3.96 0 6 0 C6.99 5.61 7.98 11.22 9 17 C9.99 11.39 10.98 5.78 12 0 C13.65 0 15.3 0 17 0 C17.32208664 7.90677955 16.33910806 15.34369643 15 23.125 C14.80921875 24.27226563 14.6184375 25.41953125 14.421875 26.6015625 C13.9550807 29.40232829 13.48099729 32.20164474 13 35 C10.36 35 7.72 35 5 35 C4.28266058 30.81997165 3.570754 26.6390645 2.86376953 22.45727539 C2.62273222 21.03612587 2.38023711 19.61522278 2.13623047 18.19458008 C1.78485588 16.14728527 1.43881068 14.09914849 1.09375 12.05078125 C0.88427734 10.82012939 0.67480469 9.58947754 0.45898438 8.3215332 C0.06688597 5.48403385 -0.0948144 2.85628383 0 0 Z " fill="#E99222" transform="translate(51,15)"/>
<path d="M0 0 C3.77068832 -0.086985 7.54111932 -0.14038579 11.3125 -0.1875 C12.38435547 -0.21263672 13.45621094 -0.23777344 14.56054688 -0.26367188 C15.58857422 -0.27333984 16.61660156 -0.28300781 17.67578125 -0.29296875 C19.0975769 -0.31653442 19.0975769 -0.31653442 20.5480957 -0.34057617 C23 0 23 0 24.80517578 1.20092773 C26.39128195 3.58916157 26.39884714 5.2208032 26.44140625 8.078125 C26.46783203 9.07457031 26.49425781 10.07101563 26.52148438 11.09765625 C26.53501953 12.13792969 26.54855469 13.17820312 26.5625 14.25 C26.67605896 20.93736125 27.13847079 26.55060747 29 33 C29.31404014 36.58592547 29.33210421 40.15201489 29.3125 43.75 C29.31121094 44.72340332 29.30992187 45.69680664 29.30859375 46.69970703 C29.21790523 53.47300555 28.5489688 59.65792287 26 66 C25.01 66 24.02 66 23 66 C23 45.54 23 25.08 23 4 C16.4 4.33 9.8 4.66 3 5 C2.01 3.35 1.02 1.7 0 0 Z " fill="#B3BEC0" transform="translate(185,90)"/>
<path d="M0 0 C0.66 0 1.32 0 2 0 C2.33 2.31 2.66 4.62 3 7 C6.35433109 6.05066101 9.69246505 5.10251165 13 4 C12.76561031 11.26608038 11.418283 17.77109389 6 23 C2.05070683 24.34726985 -1.04712026 24.33168662 -5 23 C-7.49025603 20.65982637 -8.71156467 18.13324047 -10 15 C-10.433125 14.13375 -10.86625 13.2675 -11.3125 12.375 C-12.14270272 9.50702697 -12.13813425 6.96988633 -12 4 C-11.195625 4.4640625 -11.195625 4.4640625 -10.375 4.9375 C-7.6015043 6.17827439 -4.99957163 6.5909675 -2 7 C-1.855625 6.030625 -1.71125 5.06125 -1.5625 4.0625 C-1 1 -1 1 0 0 Z " fill="#BBB9B8" transform="translate(201,159)"/>
<path d="M0 0 C4.29 0 8.58 0 13 0 C13 1.98 13 3.96 13 6 C11.02 6 9.04 6 7 6 C7 8.64 7 11.28 7 14 C8.98 14 10.96 14 13 14 C13 15.98 13 17.96 13 20 C11.02 20 9.04 20 7 20 C7 22.97 7 25.94 7 29 C8.98 29 10.96 29 13 29 C13 30.98 13 32.96 13 35 C8.71 35 4.42 35 0 35 C0 23.45 0 11.9 0 0 Z " fill="#EA972C" transform="translate(254,15)"/>
<path d="M0 0 C3.63 0 7.26 0 11 0 C12.76417248 22.41856102 12.76417248 22.41856102 11 31 C8 33 8 33 5 33 C4.67 33.66 4.34 34.32 4 35 C-0.88509777 23.44150975 -0.39805196 12.32855362 0 0 Z " fill="#F6C1B4" transform="translate(103,122)"/>
<path d="M0 0 C6.26886383 0.48222029 6.26886383 0.48222029 9.1953125 2.5546875 C11.64500241 5.87396431 11.59581736 8.89886523 11.625 12.875 C11.71848646 17.91392026 12.14069443 22.25505218 14 27 C9.51925805 30.36055646 6.39449293 30.27429625 1 30 C0.67 27.69 0.34 25.38 0 23 C0.66 23 1.32 23 2 23 C0.69827309 18.84429597 0.69827309 18.84429597 -1.1875 14.9375 C-2.30675177 12.268515 -1.71227931 10.78436458 -1 8 C-0.30369303 4.01992212 -0.30369303 4.01992212 0 0 Z " fill="#F8D2C7" transform="translate(175,93)"/>
<path d="M0 0 C3.96 0 7.92 0 12 0 C12 1.65 12 3.3 12 5 C10.02 5 8.04 5 6 5 C6 7.97 6 10.94 6 14 C7.98 14 9.96 14 12 14 C12 15.98 12 17.96 12 20 C10.02 20 8.04 20 6 20 C6 22.97 6 25.94 6 29 C7.98 29 9.96 29 12 29 C12 30.98 12 32.96 12 35 C8.04 35 4.08 35 0 35 C0 23.45 0 11.9 0 0 Z " fill="#E9901E" transform="translate(77,15)"/>
<path d="M0 0 C10.56 0 21.12 0 32 0 C32 2.97 32 5.94 32 9 C27.4793335 9.02468857 22.9587061 9.04285449 18.43798828 9.05493164 C16.89956987 9.05996552 15.36115625 9.06679308 13.82275391 9.07543945 C11.61359474 9.08754639 9.40449874 9.09323769 7.1953125 9.09765625 C6.16085495 9.10539818 6.16085495 9.10539818 5.10549927 9.11329651 C0.22774341 9.11387171 0.22774341 9.11387171 -2 8 C-2 6.35 -2 4.7 -2 3 C-1.34 3 -0.68 3 0 3 C0 2.01 0 1.02 0 0 Z " fill="#49DCA4" transform="translate(159,185)"/>
<path d="M0 0 C2.31 0 4.62 0 7 0 C7 9.57 7 19.14 7 29 C8.98 29 10.96 29 13 29 C13 30.98 13 32.96 13 35 C8.71 35 4.42 35 0 35 C0 23.45 0 11.9 0 0 Z " fill="#EA972C" transform="translate(16,15)"/>
<path d="M0 0 C1.98 0 3.96 0 6 0 C6 9.9 6 19.8 6 30 C8.31 30 10.62 30 13 30 C13 31.65 13 33.3 13 35 C8.71 35 4.42 35 0 35 C0 23.45 0 11.9 0 0 Z " fill="#E98F1C" transform="translate(164,15)"/>
<path d="M0 0 C1.32 0.99 2.64 1.98 4 3 C4.433125 2.505 4.86625 2.01 5.3125 1.5 C7 0 7 0 10 0 C13.72660355 4.27869296 13.31468062 8.65042945 13 14 C12.34 14 11.68 14 11 14 C11 15.65 11 17.3 11 19 C11.66 19.33 12.32 19.66 13 20 C7.21101581 20.20674944 2.57067277 19.59162079 -3 18 C-2.01 17.67 -1.02 17.34 0 17 C0 11.39 0 5.78 0 0 Z " fill="#FAC2B1" transform="translate(146,174)"/>
<path d="M0 0 C1.98 0 3.96 0 6 0 C6 11.55 6 23.1 6 35 C4.02 35 2.04 35 0 35 C0 23.45 0 11.9 0 0 Z " fill="#E9901D" transform="translate(37,15)"/>
<path d="M0 0 C12.21 0 24.42 0 37 0 C37.495 2.475 37.495 2.475 38 5 C26.12 5.33 14.24 5.66 2 6 C1.34 4.02 0.68 2.04 0 0 Z " fill="#E7ECF8" transform="translate(152,166)"/>
<path d="M0 0 C0.33 0 0.66 0 1 0 C1 20.79 1 41.58 1 63 C-2.96 63 -6.92 63 -11 63 C-11.33 61.35 -11.66 59.7 -12 58 C-10.3790787 56.82767315 -8.75313167 55.6622923 -7.125 54.5 C-5.76761719 53.52546875 -5.76761719 53.52546875 -4.3828125 52.53125 C-2 51 -2 51 0 51 C0 34.17 0 17.34 0 0 Z " fill="#F2F1F1" transform="translate(207,94)"/>
<path d="M0 0 C0.66 0 1.32 0 2 0 C1.67 6.27 1.34 12.54 1 19 C-5.27 19 -11.54 19 -18 19 C-13.87517554 14.87517554 -9.690698 11.22354261 -5.109375 7.66210938 C-2.81372538 5.81124187 -1.18425389 4.49497294 -0.140625 1.69140625 C-0.07101563 0.85416016 -0.07101563 0.85416016 0 0 Z " fill="#86A6F6" transform="translate(145,172)"/>
<path d="M0 0 C4.95 0 9.9 0 15 0 C13.125 10.875 13.125 10.875 12 12 C10.48071962 12.07179964 8.95832518 12.08392007 7.4375 12.0625 C6.61121094 12.05347656 5.78492188 12.04445312 4.93359375 12.03515625 C4.29550781 12.02355469 3.65742188 12.01195312 3 12 C1.07833955 7.77234701 0.69952914 4.89670397 0 0 Z " fill="#FD689C" transform="translate(194,182)"/>
<path d="M0 0 C6.66666667 1.11111111 6.66666667 1.11111111 10 3.5 C13.31921631 5.71493857 15.95316172 6.69648713 20 7 C19.67 8.65 19.34 10.3 19 12 C13.06 11.67 7.12 11.34 1 11 C1 12.65 1 14.3 1 16 C0.67 16 0.34 16 0 16 C0 10.72 0 5.44 0 0 Z " fill="#B3C9C8" transform="translate(151,83)"/>
<path d="M0 0 C2.64 0 5.28 0 8 0 C8 3.63 8 7.26 8 11 C6.35 11.66 4.7 12.32 3 13 C3.144375 14.03125 3.28875 15.0625 3.4375 16.125 C4.2293822 22.39218196 4.58406166 28.69897659 5 35 C-0.51634039 29.48365961 -0.16977301 20.69020191 -0.20654297 13.36230469 C-0.17872422 8.90702532 -0.11492769 4.45389007 0 0 Z " fill="#E5E9F6" transform="translate(103,122)"/>
<path d="M0 0 C1.01847715 3.21898252 0.92388043 5.61475367 0.4375 8.9375 C-0.08348846 12.93069487 -0.08348846 12.93069487 1.25 16.6875 C2 19 2 19 1.09375 20.8515625 C-0.18060235 22.71122785 -1.40292526 24.40751455 -3 26 C-3.66 26 -4.32 26 -5 26 C-8.42176026 20.86735961 -7.88436429 14.96461755 -7 9 C-5.11720033 5.48794475 -2.86124719 2.75905979 0 0 Z " fill="#FC6E6E" transform="translate(165,120)"/>
<path d="M0 0 C0.33 0 0.66 0 1 0 C1.04898438 1.08539063 1.09796875 2.17078125 1.1484375 3.2890625 C1.22351986 4.73439784 1.29906528 6.17970919 1.375 7.625 C1.4059375 8.33785156 1.436875 9.05070312 1.46875 9.78515625 C1.71020155 14.17152608 2.39342731 17.8594834 4 22 C-0.48074195 25.36055646 -3.60550707 25.27429625 -9 25 C-9.33 22.69 -9.66 20.38 -10 18 C-9.34 18 -8.68 18 -8 18 C-8 16.68 -8 15.36 -8 14 C-5.36 14 -2.72 14 0 14 C0 9.38 0 4.76 0 0 Z " fill="#EFB6A6" transform="translate(185,98)"/>
<path d="M0 0 C0.66 0 1.32 0 2 0 C2.12375 1.134375 2.2475 2.26875 2.375 3.4375 C2.58125 4.613125 2.7875 5.78875 3 7 C3.66 7.33 4.32 7.66 5 8 C4.85866501 9.77119803 4.71176792 11.54195287 4.5625 13.3125 C4.48128906 14.29863281 4.40007812 15.28476563 4.31640625 16.30078125 C4 19 4 19 3 22 C1.35 22 -0.3 22 -2 22 C-2.20496094 21.16855469 -2.40992188 20.33710938 -2.62109375 19.48046875 C-2.89050781 18.39378906 -3.15992188 17.30710938 -3.4375 16.1875 C-3.70433594 15.10855469 -3.97117188 14.02960938 -4.24609375 12.91796875 C-4.76077412 10.9259157 -5.34937175 8.95188476 -6 7 C-4.68 7 -3.36 7 -2 7 C-1.855625 6.030625 -1.71125 5.06125 -1.5625 4.0625 C-1 1 -1 1 0 0 Z " fill="#D1D1D0" transform="translate(201,159)"/>
<path d="M0 0 C0.33 1.32 0.66 2.64 1 4 C1.66 4 2.32 4 3 4 C1.25 7.875 1.25 7.875 -1 9 C-4.5 9.1875 -4.5 9.1875 -8 9 C-8.66 8.34 -9.32 7.68 -10 7 C-12.66242821 6.53709779 -12.66242821 6.53709779 -15.625 6.375 C-16.62789063 6.30023438 -17.63078125 6.22546875 -18.6640625 6.1484375 C-19.43492188 6.09945312 -20.20578125 6.05046875 -21 6 C-21 5.67 -21 5.34 -21 5 C-14.565 4.505 -14.565 4.505 -8 4 C-8 3.01 -8 2.02 -8 1 C-5.36 0.67 -2.72 0.34 0 0 Z " fill="#ECC6BE" transform="translate(136,151)"/>
<path d="M0 0 C4.42458569 4.42458569 3.18360504 11.94279757 3.1875 17.8125 C3.20586914 19.25206055 3.20586914 19.25206055 3.22460938 20.72070312 C3.23645639 26.50599537 2.66051663 31.45400571 1 37 C0.67 37 0.34 37 0 37 C0 24.79 0 12.58 0 0 Z " fill="#E2E7F2" transform="translate(211,116)"/>
<path d="M0 0 C1.43352212 0.00015908 2.86704998 0.00585132 4.30053711 0.01586914 C5.43041298 0.01799156 5.43041298 0.01799156 6.58311462 0.02015686 C8.99807646 0.02577163 11.41294687 0.03832656 13.82788086 0.05102539 C15.46134307 0.05603849 17.09480672 0.06060173 18.72827148 0.06469727 C22.74067671 0.07574585 26.75301326 0.09302033 30.76538086 0.11352539 C30.76538086 0.44352539 30.76538086 0.77352539 30.76538086 1.11352539 C20.20538086 1.11352539 9.64538086 1.11352539 -1.23461914 1.11352539 C-1.23461914 6.72352539 -1.23461914 12.33352539 -1.23461914 18.11352539 C-2.22461914 17.78352539 -3.21461914 17.45352539 -4.23461914 17.11352539 C-4.26146593 14.46762525 -4.28138271 11.82199443 -4.29711914 9.17602539 C-4.30549805 8.4212793 -4.31387695 7.6665332 -4.32250977 6.88891602 C-4.33114355 4.96358226 -4.28686247 3.03816958 -4.23461914 1.11352539 C-3.23461914 0.11352539 -3.23461914 0.11352539 0 0 Z " fill="#36CE87" transform="translate(120.234619140625,81.886474609375)"/>
<path d="M0 0 C7.26 0 14.52 0 22 0 C22 2.64 22 5.28 22 8 C15.07 8 8.14 8 1 8 C1 7.67 1 7.34 1 7 C6.28 7 11.56 7 17 7 C17 5.02 17 3.04 17 1 C11.39 1 5.78 1 0 1 C0 0.67 0 0.34 0 0 Z " fill="#19DBA3" transform="translate(168,185)"/>
<path d="M0 0 C6.93 0 13.86 0 21 0 C21 2.64 21 5.28 21 8 C14.4 8 7.8 8 1 8 C1 7.67 1 7.34 1 7 C6.28 7 11.56 7 17 7 C17 5.02 17 3.04 17 1 C11.39 1 5.78 1 0 1 C0 0.67 0 0.34 0 0 Z " fill="#FDD44E" transform="translate(164,176)"/>
<path d="M0 0 C5.28 0 10.56 0 16 0 C16 1.32 16 2.64 16 4 C10.72 4 5.44 4 0 4 C0 2.68 0 1.36 0 0 Z " fill="#FAFDFC" transform="translate(169,187)"/>
<path d="M0 0 C5.28 0 10.56 0 16 0 C16 1.32 16 2.64 16 4 C10.72 4 5.44 4 0 4 C0 2.68 0 1.36 0 0 Z " fill="#FFFDFA" transform="translate(164,178)"/>
<path d="M0 0 C1.9451 2.91765 2.45276317 4.62537285 3 8 C4.32 8.33 5.64 8.66 7 9 C3.04 9 -0.92 9 -5 9 C-5.33 7.35 -5.66 5.7 -6 4 C-4.02 2.68 -2.04 1.36 0 0 Z " fill="#EFBAAE" transform="translate(201,148)"/>
<path d="M0 0 C1.42122098 0.4008572 2.83686706 0.82150163 4.25 1.25 C5.43335938 1.59804687 5.43335938 1.59804687 6.640625 1.953125 C9 3 9 3 13 7 C8.71 7 4.42 7 0 7 C0 4.69 0 2.38 0 0 Z " fill="#EEF0F7" transform="translate(152,83)"/>
<path d="M0 0 C0 1.32 0 2.64 0 4 C-0.66 4 -1.32 4 -2 4 C-2 7.96 -2 11.92 -2 16 C-3.65 16 -5.3 16 -7 16 C-6.67 15.01 -6.34 14.02 -6 13 C-5.77266072 10.16667896 -5.61981954 7.33484519 -5.4765625 4.49609375 C-5.31929688 3.67238281 -5.16203125 2.84867187 -5 2 C-2 0 -2 0 0 0 Z " fill="#B7C1C2" transform="translate(116,90)"/>
<path d="M0 0 C0.66 0 1.32 0 2 0 C2 5.61 2 11.22 2 17 C1.34 17 0.68 17 0 17 C-0.20496094 16.16855469 -0.40992188 15.33710938 -0.62109375 14.48046875 C-0.89050781 13.39378906 -1.15992188 12.30710938 -1.4375 11.1875 C-1.70433594 10.10855469 -1.97117188 9.02960938 -2.24609375 7.91796875 C-2.76077412 5.9259157 -3.34937175 3.95188476 -4 2 C-2.68 2 -1.36 2 0 2 C0 1.34 0 0.68 0 0 Z " fill="#D3D3D3" transform="translate(199,164)"/>
<path d="M0 0 C3.63 0.33 7.26 0.66 11 1 C11 2.32 11 3.64 11 5 C11.66 5.33 12.32 5.66 13 6 C7.21101581 6.20674944 2.57067277 5.59162079 -3 4 C-2.01 3.67 -1.02 3.34 0 3 C0 2.01 0 1.02 0 0 Z " fill="#E9ECF2" transform="translate(146,188)"/>
<path d="M0 0 C0.66 0 1.32 0 2 0 C1.67 7.26 1.34 14.52 1 22 C0.34 22.33 -0.32 22.66 -1 23 C-1.02902429 19.72918529 -1.04680684 16.4584037 -1.0625 13.1875 C-1.07087891 12.25873047 -1.07925781 11.32996094 -1.08789062 10.37304688 C-1.09111328 9.48037109 -1.09433594 8.58769531 -1.09765625 7.66796875 C-1.10289307 6.84578857 -1.10812988 6.0236084 -1.11352539 5.17651367 C-1 3 -1 3 0 0 Z " fill="#434343" transform="translate(170,92)"/>
<path d="M0 0 C1.45606519 4.52092968 0.27032841 7.51648796 -1 12 C-1.66 11.34 -2.32 10.68 -3 10 C-4.32 10.99 -5.64 11.98 -7 13 C-6.65986985 7.55791766 -3.29703472 4.06331802 0 0 Z " fill="#E56464" transform="translate(165,120)"/>
<path d="M0 0 C0.99 0 1.98 0 3 0 C3 4.62 3 9.24 3 14 C2.34 14 1.68 14 1 14 C-0.38226016 11.23547967 -0.09525387 8.9538637 -0.0625 5.875 C-0.05347656 4.77929688 -0.04445313 3.68359375 -0.03515625 2.5546875 C-0.02355469 1.71164063 -0.01195313 0.86859375 0 0 Z " fill="#B1BEC4" transform="translate(111,122)"/>
<path d="M0 0 C0.66 0 1.32 0 2 0 C2.06058594 0.90363281 2.12117188 1.80726563 2.18359375 2.73828125 C2.26738281 3.91777344 2.35117188 5.09726563 2.4375 6.3125 C2.55931641 8.07013672 2.55931641 8.07013672 2.68359375 9.86328125 C2.8867371 13.02590958 2.8867371 13.02590958 4 16 C3.01 16 2.02 16 1 16 C-0.50156874 12.99686252 -0.09281204 10.20932478 -0.0625 6.875 C-0.05347656 5.59367188 -0.04445313 4.31234375 -0.03515625 2.9921875 C-0.02355469 2.00476563 -0.01195313 1.01734375 0 0 Z " fill="#6967E6" transform="translate(108,155)"/>
<path d="M0 0 C1.53760842 3.07521683 0.36599236 5.34675118 -0.4375 8.625 C-0.72496094 9.81351563 -1.01242188 11.00203125 -1.30859375 12.2265625 C-1.53675781 13.14179688 -1.76492187 14.05703125 -2 15 C-2.66 15 -3.32 15 -4 15 C-3.85795259 13.41632253 -3.71119847 11.83306682 -3.5625 10.25 C-3.48128906 9.36828125 -3.40007812 8.4865625 -3.31640625 7.578125 C-3.03486592 5.28409266 -2.74405173 3.18780774 -2 1 C-1.34 0.67 -0.68 0.34 0 0 Z " fill="#4A4141" transform="translate(168,119)"/>
<path d="M0 0 C0.99 0 1.98 0 3 0 C3.75 1.5625 3.75 1.5625 4 4 C2.86915563 6.50286409 1.47860484 8.67007722 0 11 C-0.33 11 -0.66 11 -1 11 C-1.02688151 9.35425434 -1.04634123 7.70838587 -1.0625 6.0625 C-1.07410156 5.14597656 -1.08570313 4.22945312 -1.09765625 3.28515625 C-1 1 -1 1 0 0 Z M1 2 C1.33 2.66 1.66 3.32 2 4 C2.33 3.34 2.66 2.68 3 2 C2.34 2 1.68 2 1 2 Z " fill="#CCBF9D" transform="translate(206,166)"/>
<path d="M0 0 C0 3.3 0 6.6 0 10 C-0.99 10 -1.98 10 -3 10 C-3.6875 6.6875 -3.6875 6.6875 -4 3 C-1.87096774 0 -1.87096774 0 0 0 Z " fill="#FEFDFC" transform="translate(207,146)"/>
<path d="M0 0 C0.69738281 0.01804687 1.39476562 0.03609375 2.11328125 0.0546875 C3.82611539 0.10161446 5.53823824 0.17335395 7.25 0.25 C7.25 0.58 7.25 0.91 7.25 1.25 C6.35796875 1.28738281 5.4659375 1.32476562 4.546875 1.36328125 C3.37640625 1.42902344 2.2059375 1.49476563 1 1.5625 C-0.16015625 1.62050781 -1.3203125 1.67851562 -2.515625 1.73828125 C-5.89638863 2.27316052 -7.31591952 2.90777161 -9.75 5.25 C-11.0016467 7.33334635 -11.0016467 7.33334635 -11.75 9.25 C-12.09636113 6.13274982 -12.06212929 4.689529 -10.21875 2.09375 C-6.87553419 -0.40308206 -3.99238664 -0.19622316 0 0 Z " fill="#696969" transform="translate(133.75,126.75)"/>
<path d="M0 0 C3.10551666 3.10551666 3.81323934 4.89198233 5 9 C3.35 9 1.7 9 0 9 C0 6.03 0 3.06 0 0 Z " fill="#E9E9F7" transform="translate(146,174)"/>
<path d="M0 0 C0.66 0 1.32 0 2 0 C2.99 3.63 3.98 7.26 5 11 C3.68 10.67 2.36 10.34 1 10 C0.67 6.7 0.34 3.4 0 0 Z " fill="#F0598A" transform="translate(195,183)"/>
<path d="M0 0 C2.35333796 4.70667591 2.17102038 6.8693886 2 12 C1.01 12 0.02 12 -1 12 C-0.67 8.04 -0.34 4.08 0 0 Z " fill="#F3DCBB" transform="translate(191,27)"/>
<path d="M0 0 C0.99 0 1.98 0 3 0 C3 2.64 3 5.28 3 8 C2.01 7.34 1.02 6.68 0 6 C-0.1875 2.875 -0.1875 2.875 0 0 Z " fill="#F4E8D3" transform="translate(237,20)"/>
<path d="M0 0 C0.99 0 1.98 0 3 0 C3 2.64 3 5.28 3 8 C2.01 7.34 1.02 6.68 0 6 C-0.1875 2.875 -0.1875 2.875 0 0 Z " fill="#F4E8D3" transform="translate(214,20)"/>
<path d="M0 0 C0.99 0 1.98 0 3 0 C3 2.64 3 5.28 3 8 C1.5 6.8125 1.5 6.8125 0 5 C-0.1875 2.3125 -0.1875 2.3125 0 0 Z " fill="#F4E9D6" transform="translate(281,20)"/>
<path d="M0 0 C0.33 0 0.66 0 1 0 C1 2.64 1 5.28 1 8 C0.01 8 -0.98 8 -2 8 C-2 6.35 -2 4.7 -2 3 C-1.34 3 -0.68 3 0 3 C0 2.01 0 1.02 0 0 Z " fill="#2FCA89" transform="translate(159,185)"/>
<path d="M0 0 C0.99 0.495 0.99 0.495 2 1 C1.01 1.495 1.01 1.495 0 2 C0 1.34 0 0.68 0 0 Z M-4 2 C-2.68 2 -1.36 2 0 2 C0 3.65 0 5.3 0 7 C-0.66 7 -1.32 7 -2 7 C-2.66 5.35 -3.32 3.7 -4 2 Z " fill="#DCE0E7" transform="translate(199,164)"/>
<path d="M0 0 C1.98 0 3.96 0 6 0 C4.71937515 1.7074998 3.38232443 3.37373596 2 5 C1.34 5 0.68 5 0 5 C0 3.35 0 1.7 0 0 Z " fill="#738DA5" transform="translate(115,157)"/>
</svg>
