<?xml version="1.0" encoding="UTF-8"?>
<svg version="1.1" xmlns="http://www.w3.org/2000/svg" width="300" height="200">
<path d="M0 0 C99 0 198 0 300 0 C300 66 300 132 300 200 C201 200 102 200 0 200 C0 134 0 68 0 0 Z " fill="#F5F0E4" transform="translate(0,0)"/>
<path d="M0 0 C2.46936246 1.93773685 4.83387566 3.95557445 7.19140625 6.02734375 C7.99835938 6.67960937 8.8053125 7.331875 9.63671875 8.00390625 C24.7252394 20.63285614 35.13417807 39.142139 40.19140625 58.02734375 C40.48917969 59.11660156 40.78695312 60.20585937 41.09375 61.328125 C46.98070602 86.15100406 41.48872921 107.78403635 32.19140625 131.02734375 C-14.00859375 131.02734375 -60.20859375 131.02734375 -107.80859375 131.02734375 C-107.80859375 85.48734375 -107.80859375 39.94734375 -107.80859375 -6.97265625 C-72.40915671 -23.31085796 -32.74883745 -23.0016174 0 0 Z " fill="#F8CD5D" transform="translate(107.80859375,68.97265625)"/>
<path d="M0 0 C28.71 0 57.42 0 87 0 C87.061875 10.498125 87.12375 20.99625 87.1875 31.8125 C87.22846802 36.78340698 87.22846802 36.78340698 87.27026367 41.85473633 C87.27902289 44.47216425 87.28666816 47.08959625 87.29296875 49.70703125 C87.30080887 50.38755051 87.30864899 51.06806976 87.31672668 51.76921082 C87.33866937 53.77417751 87.34001656 55.77933714 87.34057617 57.78442383 C87.35056892 59.47986076 87.35056892 59.47986076 87.36076355 61.20954895 C87 64 87 64 85.96847534 65.86520386 C82.8548517 67.66016061 79.65881633 67.40780023 76.16381836 67.37231445 C75.36680008 67.37596512 74.5697818 67.37961578 73.74861145 67.38337708 C71.11213933 67.39148822 68.47628067 67.37786922 65.83984375 67.36328125 C64.01046245 67.36276276 62.18108058 67.36328003 60.35169983 67.36479187 C56.51750371 67.36470212 52.68351776 67.35426706 48.84936523 67.33618164 C43.92723501 67.31347837 39.00541156 67.312953 34.08324337 67.31969929 C30.30608885 67.32303552 26.52900467 67.31641599 22.75186348 67.30657005 C20.93652273 67.30271299 19.12117416 67.30157193 17.30583 67.3031559 C14.7726631 67.30352546 12.23989438 67.29093771 9.70678711 67.2746582 C8.95193024 67.27713562 8.19707336 67.27961304 7.41934204 67.28216553 C2.22874345 67.22874345 2.22874345 67.22874345 0 65 C-0.24050903 62.2918396 -0.24050903 62.2918396 -0.22705078 58.80615234 C-0.22680908 57.48671631 -0.22656738 56.16728027 -0.22631836 54.80786133 C-0.21624631 53.40055148 -0.2059131 51.99324347 -0.1953125 50.5859375 C-0.19329834 49.31016846 -0.19128418 48.03439941 -0.18920898 46.7199707 C-0.17871722 41.93827741 -0.15079485 37.15663523 -0.125 32.375 C-0.08375 21.69125 -0.0425 11.0075 0 0 Z " fill="#F1E4E0" transform="translate(15,110)"/>
<path d="M0 0 C1.22355698 0.00222061 2.44711395 0.00444122 3.70774841 0.00672913 C4.71746201 0.00651009 4.71746201 0.00651009 5.74757385 0.00628662 C7.98229649 0.00698573 10.21693674 0.01477799 12.4516449 0.02259827 C13.99721226 0.02446245 15.54278022 0.02588635 17.08834839 0.02688599 C21.16380941 0.03071112 25.23923502 0.04054135 29.31468201 0.05158997 C33.47035747 0.0618042 37.62603864 0.06638363 41.78172302 0.07142639 C49.94124452 0.08216363 58.10073718 0.09923998 66.26023865 0.12025452 C66.2848857 5.7985553 66.30307327 11.47682521 66.31517029 17.15516663 C66.32021121 19.08844037 66.32704383 21.02171028 66.3356781 22.95497131 C66.34775429 25.72752323 66.35346921 28.50002493 66.3578949 31.27259827 C66.36305618 32.14238815 66.36821747 33.01217804 66.37353516 33.9083252 C66.3737305 35.97931266 66.32232032 38.05019776 66.26023865 40.12025452 C64.41226664 41.96822653 61.39227788 41.24801399 58.9203949 41.24964905 C57.9277211 41.25227753 57.9277211 41.25227753 56.91499329 41.25495911 C54.71754875 41.25937669 52.52018407 41.25643998 50.32273865 41.25306702 C48.80198654 41.25374008 47.28123453 41.25471013 45.76048279 41.25596619 C42.56931029 41.25744303 39.37816572 41.25528904 36.18699646 41.25062561 C32.08759334 41.24492832 27.98825569 41.2482074 23.88885498 41.25419807 C20.74741621 41.25780405 17.60599307 41.25666493 14.46455383 41.25407028 C12.95261121 41.25340111 11.44066719 41.25422908 9.9287262 41.25654984 C7.81913978 41.25907697 5.70966077 41.25523495 3.6000824 41.24964905 C2.39730652 41.24885345 1.19453064 41.24805786 -0.04469299 41.24723816 C-2.73976135 41.12025452 -2.73976135 41.12025452 -3.73976135 40.12025452 C-3.84083009 37.24761395 -3.87945807 34.39951823 -3.87257385 31.52650452 C-3.87353058 30.66464539 -3.8744873 29.80278625 -3.87547302 28.91481018 C-3.87615485 27.0889224 -3.8743004 25.2630322 -3.87013245 23.43714905 C-3.86478421 20.63224373 -3.87007735 17.82749856 -3.8764801 15.02259827 C-3.87581932 13.25306666 -3.87453816 11.48353516 -3.87257385 9.71400452 C-3.87459808 8.86922546 -3.87662231 8.02444641 -3.87870789 7.15406799 C-3.85038907 0.16900256 -3.85038907 0.16900256 0 0 Z " fill="#F87270" transform="translate(26.739761352539063,115.87974548339844)"/>
<path d="M0 0 C0.79526596 -0.00335861 1.59053192 -0.00671722 2.40989685 -0.01017761 C5.0467992 -0.01970032 7.68363815 -0.02163135 10.32055664 -0.02270508 C12.14897183 -0.02591663 13.97738675 -0.02928063 15.80580139 -0.03279114 C19.64169918 -0.03878564 23.47757442 -0.0406307 27.31347656 -0.04003906 C32.23438581 -0.0399374 37.1551509 -0.05359269 42.07602596 -0.07081127 C45.85320198 -0.08191668 49.63034297 -0.08395872 53.40753365 -0.08342934 C55.22205668 -0.08461154 57.03658055 -0.08904671 58.85108757 -0.0967617 C61.38650556 -0.10653264 63.92160844 -0.10369514 66.45703125 -0.09765625 C67.20986389 -0.10327576 67.96269653 -0.10889526 68.73834229 -0.11468506 C72.47574716 -0.09200475 74.10027968 0.01664153 77.29321289 2.14526367 C77.29321289 8.08526367 77.29321289 14.02526367 77.29321289 20.14526367 C48.58321289 20.14526367 19.87321289 20.14526367 -9.70678711 20.14526367 C-9.70678711 13.87526367 -9.70678711 7.60526367 -9.70678711 1.14526367 C-6.62476656 -0.3957466 -3.38221573 -0.00203055 0 0 Z " fill="#AC9387" transform="translate(24.706787109375,89.854736328125)"/>
<path d="M0 0 C2.46871583 1.93699242 4.85586413 3.93678403 7.2265625 5.9921875 C8.05414063 6.68699219 8.88171875 7.38179687 9.734375 8.09765625 C15.82549141 13.3172142 15.82549141 13.3172142 17.66796875 16.41796875 C19.16995334 19.12978914 19.16995334 19.12978914 21.66796875 21.43359375 C39.54765416 39.31327916 43.90361733 68.09711961 44.26025391 92.15283203 C44.10243511 105.45306807 39.67017267 121.27653264 33.2265625 132.9921875 C32.2365625 132.9921875 31.2465625 132.9921875 30.2265625 132.9921875 C30.6184375 131.8578125 31.0103125 130.7234375 31.4140625 129.5546875 C32.95650509 124.9126698 34.38924355 120.24126271 35.7890625 115.5546875 C35.99877686 114.86383057 36.20849121 114.17297363 36.42456055 113.46118164 C39.10688638 104.39549216 40.59629236 95.7762297 40.5390625 86.3046875 C40.53487305 85.34643066 40.53068359 84.38817383 40.52636719 83.40087891 C40.39853042 75.2886842 39.372568 67.84229419 37.2265625 59.9921875 C36.95972656 58.99574219 36.69289062 57.99929687 36.41796875 56.97265625 C32.27903116 43.23138345 25.32814557 31.01414004 16.2265625 19.9921875 C15.60265625 19.20457031 14.97875 18.41695312 14.3359375 17.60546875 C-0.67133006 -0.4600025 -24.71776965 -12.21343947 -47.7734375 -15.0078125 C-52.75577178 -15.36563688 -57.71649089 -15.48419956 -62.7109375 -15.5078125 C-63.7211647 -15.51282776 -63.7211647 -15.51282776 -64.75180054 -15.51794434 C-81.09926825 -15.52277536 -94.78086203 -11.12498746 -109.7734375 -5.0078125 C-109.44067383 -6.91015625 -109.44067383 -6.91015625 -108.7734375 -9.0078125 C-98.23613075 -15.16098433 -85.62658841 -16.98654701 -73.7734375 -19.0078125 C-72.15115234 -19.29785156 -72.15115234 -19.29785156 -70.49609375 -19.59375 C-46.69161925 -23.21394268 -19.19622823 -13.89698776 0 0 Z " fill="#FEFBF4" transform="translate(109.7734375,67.0078125)"/>
<path d="M0 0 C12 0 12 0 15.21484375 1.6875 C18.06071477 6.96824097 17.68213699 12.10221982 17.5625 18 C17.57345703 19.175625 17.58441406 20.35125 17.59570312 21.5625 C17.51292065 31.27564329 17.51292065 31.27564329 13 36 C11 37 11 37 0 37 C0 24.79 0 12.58 0 0 Z " fill="#E99427" transform="translate(237,19)"/>
<path d="M0 0 C3.96 0 7.92 0 12 0 C17.97813822 5.97813822 17.24116249 9.62703576 17.3125 17.75 C17.34150391 18.83539063 17.37050781 19.92078125 17.40039062 21.0390625 C17.45028887 27.31856431 17.3266507 31.28001742 13 36 C11 37 11 37 0 37 C0 24.79 0 12.58 0 0 Z " fill="#E99426" transform="translate(276,19)"/>
<path d="M0 0 C2.76850863 2.16906773 3.88487786 3.34528835 4.50170898 6.85327148 C4.49985596 7.93165283 4.49800293 9.01003418 4.49609375 10.12109375 C4.49673828 11.30380859 4.49738281 12.48652344 4.49804688 13.70507812 C4.47806641 14.93677734 4.45808594 16.16847656 4.4375 17.4375 C4.44458984 18.66533203 4.45167969 19.89316406 4.45898438 21.15820312 C4.38652311 31.39753658 4.38652311 31.39753658 1 36 C-2.12860495 37.56430248 -4.55602925 37.35627284 -8 37 C-12.12909363 32.97956673 -13.11818256 29.46665281 -13.203125 23.8515625 C-13.22441188 21.77609201 -13.23980071 19.70055459 -13.25 17.625 C-13.270625 16.5834375 -13.29125 15.541875 -13.3125 14.46875 C-13.3617773 4.83503721 -13.3617773 4.83503721 -10 1 C-6.87057535 -0.56471233 -3.38917777 -0.69701958 0 0 Z " fill="#E9911F" transform="translate(207,19)"/>
<path d="M0 0 C4.29 0 8.58 0 13 0 C16 3 16 3 16.34057617 6.36987305 C16.34010247 7.7505794 16.32322783 9.13134393 16.29296875 10.51171875 C16.28872391 11.23994339 16.28447906 11.96816803 16.28010559 12.71846008 C16.26332733 15.04185127 16.22567855 17.3643715 16.1875 19.6875 C16.17245197 21.26365934 16.15876377 22.83983229 16.14648438 24.41601562 C16.11342685 28.27767877 16.06165194 32.13869178 16 36 C14.02 36 12.04 36 10 36 C10 30.72 10 25.44 10 20 C8.68 20 7.36 20 6 20 C6 25.61 6 31.22 6 37 C4.02 37 2.04 37 0 37 C0 24.79 0 12.58 0 0 Z " fill="#E98E1A" transform="translate(216,19)"/>
<path d="M0 0 C12 0 12 0 16 3 C16.42578125 5.55859375 16.42578125 5.55859375 16.3125 8.4375 C16.28800781 9.38496094 16.26351562 10.33242188 16.23828125 11.30859375 C16 14 16 14 15.41796875 16.28515625 C15.28003906 16.85105469 15.14210937 17.41695312 15 18 C15.33 18.33 15.66 18.66 16 19 C16.07325168 21.86267567 16.09238205 24.700719 16.0625 27.5625 C16.05798828 28.36880859 16.05347656 29.17511719 16.04882812 30.00585938 C16.03700518 32.00393756 16.01906914 34.00197783 16 36 C14.02 36 12.04 36 10 36 C9.67 31.05 9.34 26.1 9 21 C8.01 20.67 7.02 20.34 6 20 C6 25.28 6 30.56 6 36 C4.02 36 2.04 36 0 36 C0 24.12 0 12.24 0 0 Z " fill="#E98D18" transform="translate(136,19)"/>
<path d="M0 0 C3.625 0.375 3.625 0.375 6 2.25 C8.532726 5.5620263 8.74031654 7.38031026 8.6875 11.5 C8.67847656 12.41007812 8.66945312 13.32015625 8.66015625 14.2578125 C8.64855469 14.95648438 8.63695312 15.65515625 8.625 16.375 C6.315 16.375 4.005 16.375 1.625 16.375 C1.625 13.075 1.625 9.775 1.625 6.375 C0.635 6.375 -0.355 6.375 -1.375 6.375 C-1.045 14.625 -0.715 22.875 -0.375 31.375 C-0.045 31.375 0.285 31.375 0.625 31.375 C0.955 28.075 1.285 24.775 1.625 21.375 C3.935 21.375 6.245 21.375 8.625 21.375 C9.23658301 31.0753861 9.23658301 31.0753861 7.125 35.5625 C4.08219707 37.76853212 2.22061803 38.03555474 -1.47265625 37.80859375 C-4.35524213 37.15157726 -5.65836232 35.70962725 -7.375 33.375 C-9.41661111 29.29177778 -8.60406579 24.05027192 -8.625 19.5625 C-8.645625 18.46873047 -8.66625 17.37496094 -8.6875 16.24804688 C-8.69265625 15.19037109 -8.6978125 14.13269531 -8.703125 13.04296875 C-8.7124707 12.07641357 -8.72181641 11.1098584 -8.73144531 10.11401367 C-8.04005025 4.80116351 -5.45640303 0.606267 0 0 Z " fill="#EA9528" transform="translate(172.375,62.625)"/>
<path d="M0 0 C2.64 0 5.28 0 8 0 C13.35947003 27.83351434 13.35947003 27.83351434 13 37 C11.02 37 9.04 37 7 37 C7 35.02 7 33.04 7 31 C5.35 31 3.7 31 2 31 C1.67 32.98 1.34 34.96 1 37 C-0.98 37 -2.96 37 -5 37 C-1.83112696 11.0298471 -1.83112696 11.0298471 0 0 Z " fill="#E99120" transform="translate(205,63)"/>
<path d="M0 0 C3.31179922 0.10996208 5.53063686 0.3824906 8.5 1.94140625 C10.91756131 6.27287027 10.30103515 10.77889553 10 15.62890625 C8.02 15.62890625 6.04 15.62890625 4 15.62890625 C4 12.65890625 4 9.68890625 4 6.62890625 C3.01 6.62890625 2.02 6.62890625 1 6.62890625 C1 14.87890625 1 23.12890625 1 31.62890625 C1.99 31.62890625 2.98 31.62890625 4 31.62890625 C4 28.32890625 4 25.02890625 4 21.62890625 C6.31 21.62890625 8.62 21.62890625 11 21.62890625 C11.29003091 27.23617048 11.13444318 30.75310575 8 35.62890625 C4.50875983 37.9563997 3.10777749 38.13189941 -1 37.62890625 C-3.30275556 35.76180715 -4.67823871 34.27242884 -6 31.62890625 C-6.29785272 27.36406614 -6.27808765 23.09041955 -6.3125 18.81640625 C-6.34150391 17.62724609 -6.37050781 16.43808594 -6.40039062 15.21289062 C-6.40876953 14.06498047 -6.41714844 12.91707031 -6.42578125 11.734375 C-6.44036377 10.68403076 -6.45494629 9.63368652 -6.4699707 8.55151367 C-5.82867328 4.56347656 -4.01908332 1.26381331 0 0 Z " fill="#E99323" transform="translate(180,18.37109375)"/>
<path d="M0 0 C2.4375 1.4375 2.4375 1.4375 4 4 C4.31821008 7.03082057 4.23343667 9.96532334 4 13 C2.02 13 0.04 13 -2 13 C-2 10.69 -2 8.38 -2 6 C-2.99 6 -3.98 6 -5 6 C-3.9022882 11.85446292 -1.63341005 14.98876151 2.44140625 19.30078125 C5.23860675 22.35036074 5.26764079 24.87201259 5.23046875 28.9609375 C4.85797515 32.25655889 3.31839875 34.68160125 1 37 C-5.96238651 37.57068742 -5.96238651 37.57068742 -9.5 35.625 C-11.81720603 31.56988944 -11.3135704 27.56419136 -11 23 C-9.02 23 -7.04 23 -5 23 C-4.67 25.64 -4.34 28.28 -4 31 C-3.34 31 -2.68 31 -2 31 C-1.66017227 27.31044179 -1.7009332 25.47142192 -3.71484375 22.296875 C-4.44832031 21.45640625 -5.18179688 20.6159375 -5.9375 19.75 C-10.10028909 14.9044254 -11.37609952 12.57453022 -11.2734375 6.19921875 C-11 4 -11 4 -9.4375 1.4375 C-6.04481874 -0.56331202 -3.87285839 -0.55326548 0 0 Z " fill="#E9901E" transform="translate(252,63)"/>
<path d="M0 0 C2.4375 1.4375 2.4375 1.4375 4 4 C4.31821008 7.03082057 4.23343667 9.96532334 4 13 C2.02 13 0.04 13 -2 13 C-2 10.69 -2 8.38 -2 6 C-2.99 6 -3.98 6 -5 6 C-3.89183447 11.4300111 -2.12373564 14.47659541 1.66015625 18.51953125 C4.36055006 21.50334832 4.19299375 24.01832034 4.25 27.9375 C4.28867188 29.52884766 4.28867188 29.52884766 4.328125 31.15234375 C4 34 4 34 2.765625 35.8515625 C0.54835804 37.29376712 -0.86544055 37.43310907 -3.5 37.4375 C-4.2734375 37.45683594 -5.046875 37.47617188 -5.84375 37.49609375 C-8 37 -8 37 -9.76953125 35.30078125 C-11.2372966 32.55629303 -11.3095015 30.84070458 -11.1875 27.75 C-11.16042969 26.85796875 -11.13335937 25.9659375 -11.10546875 25.046875 C-11.07066406 24.37140625 -11.03585938 23.6959375 -11 23 C-9.02 23 -7.04 23 -5 23 C-4.8046875 25.05078125 -4.609375 27.1015625 -4.4140625 29.15234375 C-4.27742187 29.76207031 -4.14078125 30.37179688 -4 31 C-3.34 31.33 -2.68 31.66 -2 32 C-2 26.09769129 -3.10012835 23.54161178 -7.0625 19.125 C-10.10514593 15.5852611 -11.60433709 13.34170364 -11.75 8.625 C-11.46375863 5.5394151 -11.04582391 4.07698417 -9.4375 1.375 C-6.03897329 -0.54211763 -3.84031465 -0.54861638 0 0 Z " fill="#E9901E" transform="translate(233,63)"/>
<path d="M0 0 C2.63409871 2.16131176 3.85103073 3.67881352 4.23828125 7.11328125 C4.24874565 9.07709981 4.1328372 11.04065135 4 13 C2.02 13 0.04 13 -2 13 C-2 10.69 -2 8.38 -2 6 C-2.99 6 -3.98 6 -5 6 C-3.89183447 11.4300111 -2.12373564 14.47659541 1.66015625 18.51953125 C4.23317619 21.36260576 4.18989821 23.63867176 4.25 27.375 C4.28867187 28.80972656 4.28867187 28.80972656 4.328125 30.2734375 C3.94420002 33.46367129 3.32164007 34.79136011 1 37 C-1.15625 37.53125 -1.15625 37.53125 -3.5 37.5 C-4.2734375 37.5103125 -5.046875 37.520625 -5.84375 37.53125 C-8 37 -8 37 -9.76953125 35.296875 C-11.23864355 32.55453204 -11.30945152 30.83943842 -11.1875 27.75 C-11.16042969 26.85796875 -11.13335937 25.9659375 -11.10546875 25.046875 C-11.07066406 24.37140625 -11.03585937 23.6959375 -11 23 C-9.02 23 -7.04 23 -5 23 C-5 25.97 -5 28.94 -5 32 C-4.01 32 -3.02 32 -2 32 C-2 26.10203596 -3.07981181 23.57758839 -7.0625 19.1875 C-11.06313754 14.54762235 -11.84592569 11.39591766 -11.671875 5.34765625 C-10.04071287 -0.35192772 -5.25413363 -0.75059052 0 0 Z " fill="#E9901E" transform="translate(289,63)"/>
<path d="M0 0 C4.29 0 8.58 0 13 0 C13 1.98 13 3.96 13 6 C11.02 6 9.04 6 7 6 C7 8.97 7 11.94 7 15 C8.98 15 10.96 15 13 15 C13 16.98 13 18.96 13 21 C11.02 21 9.04 21 7 21 C7 24.3 7 27.6 7 31 C8.98 31 10.96 31 13 31 C13 32.98 13 34.96 13 37 C8.71 37 4.42 37 0 37 C0 24.79 0 12.58 0 0 Z " fill="#E99325" transform="translate(157,19)"/>
<path d="M0 0 C4.29 0 8.58 0 13 0 C13 1.98 13 3.96 13 6 C10.69 6 8.38 6 6 6 C6 8.97 6 11.94 6 15 C7.98 15 9.96 15 12 15 C12 16.98 12 18.96 12 21 C10.02 21 8.04 21 6 21 C6 24.3 6 27.6 6 31 C8.31 31 10.62 31 13 31 C13 32.98 13 34.96 13 37 C8.71 37 4.42 37 0 37 C0 24.79 0 12.58 0 0 Z " fill="#E9911F" transform="translate(259,19)"/>
<path d="M0 0 C3.96 0 7.92 0 12 0 C12 1.65 12 3.3 12 5 C10.02 5 8.04 5 6 5 C6 8.3 6 11.6 6 15 C7.98 15 9.96 15 12 15 C12 16.65 12 18.3 12 20 C10.02 20 8.04 20 6 20 C6 23.3 6 26.6 6 30 C8.31 30 10.62 30 13 30 C13 31.98 13 33.96 13 36 C8.71 36 4.42 36 0 36 C0 24.12 0 12.24 0 0 Z " fill="#E98D18" transform="translate(261,64)"/>
<path d="M0 0 C2.31 0 4.62 0 7 0 C7 10.23 7 20.46 7 31 C9.31 31 11.62 31 14 31 C14 32.98 14 34.96 14 37 C9.38 37 4.76 37 0 37 C0 24.79 0 12.58 0 0 Z " fill="#EA9529" transform="translate(185,63)"/>
<path d="M0 0 C0.99 0 1.98 0 3 0 C3 0.66 3 1.32 3 2 C19.83 2 36.66 2 54 2 C54 3.32 54 4.64 54 6 C37.17 6 20.34 6 3 6 C3 6.66 3 7.32 3 8 C2.01 8 1.02 8 0 8 C0 7.01 0 6.02 0 5 C-4.95 5 -9.9 5 -15 5 C-14.67 4.01 -14.34 3.02 -14 2 C-9.38 2 -4.76 2 0 2 C0 1.34 0 0.68 0 0 Z " fill="#BAA49C" transform="translate(38,160)"/>
<path d="M0 0 C10.56 0 21.12 0 32 0 C32 2.64 32 5.28 32 8 C21.44 8 10.88 8 0 8 C0 5.36 0 2.72 0 0 Z " fill="#F0E4E2" transform="translate(64,96)"/>
<path d="M0 0 C4.40719692 0.88143938 6.25045275 1.50030183 9.8125 3.875 C10.60269531 4.38804687 11.39289062 4.90109375 12.20703125 5.4296875 C12.79871094 5.94789063 13.39039062 6.46609375 14 7 C14 7.99 14 8.98 14 10 C11.69921875 11.82421875 11.69921875 11.82421875 8.6875 13.6875 C7.70136719 14.31011719 6.71523438 14.93273437 5.69921875 15.57421875 C3 17 3 17 0 17 C0 11.39 0 5.78 0 0 Z " fill="#F1E1DF" transform="translate(51,128)"/>
<path d="M0 0 C0.99 0.33 1.98 0.66 3 1 C3 8.92 3 16.84 3 25 C1.68 25 0.36 25 -1 25 C-1.02886984 21.02084841 -1.04675406 17.04172347 -1.0625 13.0625 C-1.07087891 11.92619141 -1.07925781 10.78988281 -1.08789062 9.61914062 C-1.09111328 8.53955078 -1.09433594 7.45996094 -1.09765625 6.34765625 C-1.10289307 5.34742432 -1.10812988 4.34719238 -1.11352539 3.31665039 C-1 1 -1 1 0 0 Z " fill="#F4E8D3" transform="translate(202,24)"/>
<path d="M0 0 C0.99 0.33 1.98 0.66 3 1 C3 9.25 3 17.5 3 26 C2.01 26 1.02 26 0 26 C0 17.42 0 8.84 0 0 Z " fill="#F5EFE2" transform="translate(283,24)"/>
<path d="M0 0 C0.99 0.33 1.98 0.66 3 1 C3 9.25 3 17.5 3 26 C2.01 26 1.02 26 0 26 C0 17.42 0 8.84 0 0 Z " fill="#F5F0E4" transform="translate(244,24)"/>
<path d="M0 0 C2.5625 0.1875 2.5625 0.1875 4.5625 2.1875 C4.00694444 6.74305556 4.00694444 6.74305556 2.5625 8.1875 C0.125 8.375 0.125 8.375 -2.4375 8.1875 C-3.0975 7.5275 -3.7575 6.8675 -4.4375 6.1875 C-3.71780303 0.28598485 -3.71780303 0.28598485 0 0 Z " fill="#DABFB5" transform="translate(36.4375,95.8125)"/>
<path d="M0 0 C2.5625 0.1875 2.5625 0.1875 4.5625 2.1875 C4.00694444 6.74305556 4.00694444 6.74305556 2.5625 8.1875 C0.125 8.375 0.125 8.375 -2.4375 8.1875 C-3.0975 7.5275 -3.7575 6.8675 -4.4375 6.1875 C-3.71780303 0.28598485 -3.71780303 0.28598485 0 0 Z " fill="#DABFB5" transform="translate(24.4375,95.8125)"/>
<path d="M0 0 C0.33 0 0.66 0 1 0 C1 4.29 1 8.58 1 13 C5.62 13 10.24 13 15 13 C15 12.34 15 11.68 15 11 C15.99 11 16.98 11 18 11 C18 11.66 18 12.32 18 13 C19.32 13.66 20.64 14.32 22 15 C18.52085059 15.02887814 15.04173169 15.04675687 11.5625 15.0625 C10.07266602 15.07506836 10.07266602 15.07506836 8.55273438 15.08789062 C7.60849609 15.09111328 6.66425781 15.09433594 5.69140625 15.09765625 C4.81685791 15.10289307 3.94230957 15.10812988 3.04125977 15.11352539 C1 15 1 15 0 14 C-0.07271741 11.64686445 -0.08370868 9.29166332 -0.0625 6.9375 C-0.05347656 5.64714844 -0.04445313 4.35679687 -0.03515625 3.02734375 C-0.02355469 2.02832031 -0.01195312 1.02929688 0 0 Z " fill="#ECE6DC" transform="translate(272,146)"/>
<path d="M0 0 C2.5625 0.1875 2.5625 0.1875 4.5625 2.1875 C4.1875 5.3125 4.1875 5.3125 3.5625 8.1875 C1.56295254 8.23004356 -0.43791636 8.22830783 -2.4375 8.1875 C-3.4375 7.1875 -3.4375 7.1875 -3.5625 4.1875 C-3.39891479 0.26145498 -3.39891479 0.26145498 0 0 Z " fill="#DBC0B6" transform="translate(47.4375,95.8125)"/>
<path d="M0 0 C0.33 0 0.66 0 1 0 C1 3.96 1 7.92 1 12 C2.10859375 11.91621094 3.2171875 11.83242187 4.359375 11.74609375 C5.82289328 11.64289695 7.28643631 11.54005074 8.75 11.4375 C9.47960937 11.38142578 10.20921875 11.32535156 10.9609375 11.26757812 C14.65283533 11.01585782 17.37017885 11.09254471 21 12 C21 8.04 21 4.08 21 0 C21.33 0 21.66 0 22 0 C22 4.29 22 8.58 22 13 C16.85910079 13.90249856 12.30273626 13.97986395 7.0625 13.5625 C6.37865234 13.51029297 5.69480469 13.45808594 4.99023438 13.40429688 C3.32628831 13.27630102 1.6630527 13.13912281 0 13 C0 8.71 0 4.42 0 0 Z " fill="#E9E3D9" transform="translate(128,71)"/>
<path d="M0 0 C0 0.99 0 1.98 0 3 C-6.93 3 -13.86 3 -21 3 C-21 2.01 -21 1.02 -21 0 C-6.21867882 -1.33257403 -6.21867882 -1.33257403 0 0 Z " fill="#E7E1D8" transform="translate(33,19)"/>
<path d="M0 0 C6.0546875 -0.1953125 6.0546875 -0.1953125 8 0 C10 2 10 2 10.1953125 3.9453125 C10.13020833 5.96354167 10.06510417 7.98177083 10 10 C9.01 10 8.02 10 7 10 C7 7.03 7 4.06 7 1 C5.02 1 3.04 1 1 1 C1 3.64 1 6.28 1 9 C0.67 9 0.34 9 0 9 C0 6.03 0 3.06 0 0 Z " fill="#F3E0C3" transform="translate(277,85)"/>
<path d="M0 0 C0.33 0 0.66 0 1 0 C1 3.63 1 7.26 1 11 C2.86205078 10.87431641 2.86205078 10.87431641 4.76171875 10.74609375 C6.40362444 10.64288825 8.04555278 10.54004258 9.6875 10.4375 C10.50412109 10.38142578 11.32074219 10.32535156 12.16210938 10.26757812 C16.29514123 10.01658429 19.95824282 9.88872257 24 11 C24 11.33 24 11.66 24 12 C18.63510405 12.90483637 13.49682543 13.12303662 8.0625 13.0625 C7.28326172 13.05798828 6.50402344 13.05347656 5.70117188 13.04882812 C3.80074732 13.03716908 1.90036294 13.01923877 0 13 C0 8.71 0 4.42 0 0 Z " fill="#E6E1D6" transform="translate(276,0)"/>
<path d="M0 0 C1.32 0.33 2.64 0.66 4 1 C4 3.64 4 6.28 4 9 C2.68 9.33 1.36 9.66 0 10 C0 6.7 0 3.4 0 0 Z " fill="#F3DDBE" transform="translate(222,24)"/>
<path d="M0 0 C1.32 0.33 2.64 0.66 4 1 C4 3.64 4 6.28 4 9 C2.68 9.33 1.36 9.66 0 10 C0 6.7 0 3.4 0 0 Z " fill="#F3DEBF" transform="translate(142,24)"/>
<path d="M0 0 C1.98 0.99 1.98 0.99 4 2 C4 3.98 4 5.96 4 8 C2.68 8 1.36 8 0 8 C0 5.36 0 2.72 0 0 Z " fill="#F4E3CA" transform="translate(247,86)"/>
<path d="M0 0 C0.99 0 1.98 0 3 0 C3 2.31 3 4.62 3 7 C4.98 7 6.96 7 9 7 C9 7.33 9 7.66 9 8 C3.57534247 9.3260274 3.57534247 9.3260274 1.125 7.9375 C-0.44071111 5.24099753 -0.20391303 3.05869541 0 0 Z " fill="#F4EAD9" transform="translate(228,69)"/>
<path d="M0 0 C0.66 0.33 1.32 0.66 2 1 C2 1.66 2 2.32 2 3 C2.66 3.66 3.32 4.32 4 5 C-1.94 5 -7.88 5 -14 5 C-14 4.67 -14 4.34 -14 4 C-7.565 3.505 -7.565 3.505 -1 3 C-0.67 2.01 -0.34 1.02 0 0 Z " fill="#EAE5DA" transform="translate(202,195)"/>
<path d="M0 0 C1.98 0.99 3.96 1.98 6 3 C4.71034824 4.37562854 3.37310707 5.70766393 2 7 C1.34 7 0.68 7 0 7 C0 4.69 0 2.38 0 0 Z " fill="#D3CFC6" transform="translate(286,1)"/>
<path d="M0 0 C1.98 0.66 3.96 1.32 6 2 C6 2.66 6 3.32 6 4 C4.02 4.66 2.04 5.32 0 6 C0 4.02 0 2.04 0 0 Z " fill="#D7D2C9" transform="translate(195,188)"/>
<path d="M0 0 C1.98 0.66 3.96 1.32 6 2 C6 2.66 6 3.32 6 4 C4.02 4.66 2.04 5.32 0 6 C0 4.02 0 2.04 0 0 Z " fill="#D4D0C7" transform="translate(281,149)"/>
<path d="M0 0 C0.33 0 0.66 0 1 0 C1.33 3.63 1.66 7.26 2 11 C1.01 11 0.02 11 -1 11 C-1.0270043 9.54176788 -1.04639787 8.08339325 -1.0625 6.625 C-1.07410156 5.81289062 -1.08570313 5.00078125 -1.09765625 4.1640625 C-1 2 -1 2 0 0 Z " fill="#F3DFC2" transform="translate(209,77)"/>
<path d="M0 0 C0.99 0 1.98 0 3 0 C3 2.31 3 4.62 3 7 C3.66 7.33 4.32 7.66 5 8 C4.01 8 3.02 8 2 8 C-0.1519437 4.77208445 -0.20086443 3.71599191 0 0 Z " fill="#F4E9D6" transform="translate(247,69)"/>
<path d="M0 0 C4.875 1.75 4.875 1.75 6 4 C3 6 3 6 0 6 C0 4.02 0 2.04 0 0 Z " fill="#D4D0C6" transform="translate(20,10)"/>
<path d="M0 0 C2.475 0.99 2.475 0.99 5 2 C5 2.66 5 3.32 5 4 C3.35 4.66 1.7 5.32 0 6 C0 4.02 0 2.04 0 0 Z " fill="#D3CFC5" transform="translate(137,75)"/>
</svg>
