<?xml version="1.0" encoding="UTF-8"?>
<svg version="1.1" xmlns="http://www.w3.org/2000/svg" width="191" height="215">
<path d="M0 0 C63.03 0 126.06 0 191 0 C191 70.95 191 141.9 191 215 C127.97 215 64.94 215 0 215 C0 144.05 0 73.1 0 0 Z " fill="#DDEDFE" transform="translate(0,0)"/>
<path d="M0 0 C15.37782006 12.09323714 25.78232259 28.90809282 28.47265625 48.4296875 C29.9965302 64.99962728 27.47298412 80.05403177 20 95 C22.97 95 25.94 95 29 95 C28.67 95.66 28.34 96.32 28 97 C26.51987892 96.96710842 25.04052626 96.89781509 23.5625 96.8125 C19.50768449 97.10750084 18.26380954 97.72590703 15.39453125 100.70703125 C13.21848342 103.55243844 11.19332534 106.50773311 9.14208984 109.44384766 C1.01412866 120.51858571 -13.43004905 126.72362493 -26 131 C-26.7940625 131.3196875 -27.588125 131.639375 -28.40625 131.96875 C-39.44411788 136.05124908 -53.19436353 135.3607836 -64 131 C-65.01191406 130.64808594 -66.02382812 130.29617187 -67.06640625 129.93359375 C-73.91570544 127.4833722 -80.05126906 124.45666074 -86.24609375 120.6484375 C-89.00501704 118.9206567 -89.00501704 118.9206567 -92.16015625 117.6015625 C-95.44095398 115.75131894 -96.26241047 114.27772571 -98 111 C-99.29917826 109.47032238 -100.63358672 107.96992943 -102 106.5 C-104.20325081 104.12983624 -105.92322641 102.14702668 -107.42578125 99.26953125 C-108.80229794 96.77296626 -108.80229794 96.77296626 -111.48046875 96.29296875 C-112.37378906 96.25816406 -113.26710938 96.22335938 -114.1875 96.1875 C-115.53908203 96.11595703 -115.53908203 96.11595703 -116.91796875 96.04296875 C-117.60503906 96.02878906 -118.29210937 96.01460938 -119 96 C-119 95.34 -119 94.68 -119 94 C-116.36 94 -113.72 94 -111 94 C-111.48919922 92.94425781 -111.48919922 92.94425781 -111.98828125 91.8671875 C-120.30041744 73.08519246 -122.11950787 52.4613337 -115 33 C-111.42915124 23.98541447 -106.50394912 16.19452287 -100 9 C-99.06027344 7.93845703 -99.06027344 7.93845703 -98.1015625 6.85546875 C-72.39870563 -20.57839684 -29.45609546 -21.59550184 0 0 Z " fill="#EFD820" transform="translate(142,41)"/>
<path d="M0 0 C0.99 0.33 1.98 0.66 3 1 C3 17.5 3 34 3 51 C-0.97711139 47.02288861 -2.65872552 45.20286212 -4.9375 40.5 C-7.39354347 35.77291374 -9.63577265 33.01339508 -14 30 C-14 30.99 -14 31.98 -14 33 C-12.65282453 34.29558805 -12.65282453 34.29558805 -10.875 35.5 C-6.71021752 38.84023968 -4.74137317 42.75212449 -2.45703125 47.51171875 C-1.20479097 50.11768859 -1.20479097 50.11768859 1.16015625 51.2578125 C3.44312073 53.41960052 3.29590558 54.16356379 3.390625 57.23046875 C3.36407407 58.88326401 3.31642461 60.53582663 3.25 62.1875 C3.23195313 63.03248047 3.21390625 63.87746094 3.1953125 64.74804688 C3.14820586 66.83251573 3.07646233 68.91640144 3 71 C-1.70851773 72.33978732 -3.64050741 71.0959099 -8 69 C-8 68.67 -8 68.34 -8 68 C-6.35 68 -4.7 68 -3 68 C-3 66.68 -3 65.36 -3 64 C-3.804375 64.495 -3.804375 64.495 -4.625 65 C-7.83509397 66.35161851 -9.51480955 66.52606648 -13 66 C-17.55145568 63.73985934 -21.12574161 61.28406701 -24 57.0625 C-26.41300309 49.67267804 -25.83379126 45.06046296 -23 38 C-22.0925 38.61875 -21.185 39.2375 -20.25 39.875 C-17.85051183 41.44389611 -15.59038388 42.80443821 -13 44 C-13.68878163 40.84396994 -13.68878163 40.84396994 -16.3125 39.625 C-20.31397782 37.20550178 -22.52559366 34.42321901 -24 30 C-24.43696288 24.75644546 -24.28281272 21.03246129 -21.40625 16.54296875 C-18.8365943 13.72348541 -15.60941775 12.13499269 -12 11 C-10.68 11 -9.36 11 -8 11 C-7.67 10.01 -7.34 9.02 -7 8 C-9.64 8.66 -12.28 9.32 -15 10 C-12.94926484 6.00646311 -11.17369302 3.78872558 -7 2 C-4.1875 2.3125 -4.1875 2.3125 -2 3 C-0.91641479 8.87485958 -0.4631389 12.82102482 -4 18 C-4.99 18.66 -5.98 19.32 -7 20 C-7.33 20.99 -7.66 21.98 -8 23 C-4.24918482 21.79438084 -2.57758051 19.48880778 -0.75390625 16.0703125 C0.80941902 11.7772431 0.57230658 7.17015583 -0.58203125 2.79296875 C-0.71996094 2.20128906 -0.85789062 1.60960938 -1 1 C-0.67 0.67 -0.34 0.34 0 0 Z " fill="#FDE838" transform="translate(90,101)"/>
<path d="M0 0 C0.99 0 1.98 0 3 0 C2.835 0.639375 2.67 1.27875 2.5 1.9375 C1.29889357 9.29427686 1.4199471 14.1220821 5.61328125 20.46875 C7.02714622 22.28177877 7.02714622 22.28177877 10 23 C9.22156216 19.82182064 9.22156216 19.82182064 6.5 17.8125 C3.35952795 14.27946894 2.79349774 11.65568737 3 7 C3.9375 4 3.9375 4 5 2 C11.35714286 2.48901099 11.35714286 2.48901099 14.4375 4.9375 C16 7 16 7 16 9 C13.69 8.67 11.38 8.34 9 8 C9.33 8.99 9.66 9.98 10 11 C11.03125 11.0825 12.0625 11.165 13.125 11.25 C18.5449666 12.29902579 21.70219422 14.13981171 24.875 18.6875 C26.31737805 22.93450205 26.72507472 26.56190527 26 31 C23.93932029 34.90057232 21.43483085 38.20919993 18 41 C16.68 41 15.36 41 14 41 C14.33 41.99 14.66 42.98 15 44 C18.5786304 42.34832443 21.74820188 40.21713508 25 38 C27.71952849 43.98296268 28.87380308 48.56892278 27 55 C24.34230318 60.57896687 20.58496539 63.55045378 15 66 C10.9950666 66.47116864 8.4389365 66.11626861 5 64 C5 65.32 5 66.64 5 68 C6.65 68 8.3 68 10 68 C6.8083482 70.82338429 4.23169259 71.62384955 0 72 C-2.16974123 69.83025877 -1.32401042 65.17966132 -1.375 62.1875 C-1.41238281 61.36701172 -1.44976562 60.54652344 -1.48828125 59.70117188 C-1.52234884 57.36754176 -1.48095426 55.28502583 -1 53 C1.33203125 50.76953125 1.33203125 50.76953125 4 49 C5.70933884 46.36384847 5.70933884 46.36384847 7.0625 43.5 C8.96090515 39.67163727 10.73637551 36.79921009 14 34 C15.485 33.505 15.485 33.505 17 33 C16.67 32.01 16.34 31.02 16 30 C11.20982427 33.58750679 8.53662895 36.89948499 5.8125 42.1875 C2.37204414 48.75197057 2.37204414 48.75197057 -1 51 C-1.02526787 43.89755001 -1.04283201 36.79511152 -1.05493164 29.69262695 C-1.05997349 27.27432828 -1.06680678 24.85603267 -1.07543945 22.43774414 C-1.08751157 18.97020717 -1.09322963 15.50271034 -1.09765625 12.03515625 C-1.10281754 10.94662857 -1.10797882 9.85810089 -1.11329651 8.73658752 C-1.11337204 7.73562546 -1.11344757 6.73466339 -1.11352539 5.70336914 C-1.115746 4.81734512 -1.11796661 3.93132111 -1.12025452 3.01844788 C-1 1 -1 1 0 0 Z " fill="#FDE736" transform="translate(102,101)"/>
<path d="M0 0 C6.80558359 -0.52350643 12.66977481 1.15523839 18 5.375 C20.09206307 8.12083279 20.37580133 9.70066418 21 13 C22.84971696 14.05021103 22.84971696 14.05021103 25 15 C28.21436327 18.40344346 30.01094541 21.41438324 31 26 C30.87104707 29.63933819 30.2512553 33.12060643 29.25 36.625 C28.75909652 39.15420685 28.75909652 39.15420685 30.4375 41.6875 C32.84643132 46.7944344 32.9537246 51.78685639 31.34375 57.2109375 C27.85131368 65.06891921 21.83203271 68.97711018 14 72 C12.66434217 72.74585249 11.33106701 73.49598516 10 74.25 C5.91381998 76.35693657 3.40300826 76.10075206 -1 75 C-2.12657015 71.62028956 -2.13384319 69.04391878 -2.14526367 65.48071289 C-2.14862228 64.82345718 -2.1519809 64.16620148 -2.15544128 63.48902893 C-2.16493824 61.31688547 -2.1668937 59.14481918 -2.16796875 56.97265625 C-2.17118201 55.46194934 -2.17454613 53.95124275 -2.17805481 52.4405365 C-2.18404279 49.27390827 -2.18589503 46.10730732 -2.18530273 42.94067383 C-2.18520109 38.88417247 -2.19885751 34.82784604 -2.21607494 30.77138615 C-2.2271959 27.65127255 -2.22922192 24.53120125 -2.22869301 21.41106987 C-2.22987282 19.91555617 -2.23429466 18.42004138 -2.24202538 16.9245472 C-2.2518281 14.83246746 -2.24894641 12.74076756 -2.24291992 10.64868164 C-2.24505745 8.86355919 -2.24505745 8.86355919 -2.24723816 7.04237366 C-2.00989235 4.12172972 -1.52961079 2.46096674 0 0 Z M2 2 C0.77571959 3.0030131 0.77571959 3.0030131 0.87974548 5.01844788 C0.88196609 5.90447189 0.88418671 6.79049591 0.88647461 7.70336914 C0.88655014 8.70433121 0.88662567 9.70529327 0.88670349 10.73658752 C0.89186478 11.8251152 0.89702606 12.91364288 0.90234375 14.03515625 C0.9037587 15.14354355 0.90517365 16.25193085 0.90663147 17.39390564 C0.91224967 20.95013069 0.92480525 24.50629383 0.9375 28.0625 C0.94251266 30.46679597 0.94707597 32.87109292 0.95117188 35.27539062 C0.96222501 41.18361504 0.97898083 47.0918031 1 53 C4.45056129 49.65085356 6.83773258 46.83343306 8.9375 42.5 C11.39354347 37.77291374 13.63577265 35.01339508 18 32 C18.33 32.99 18.66 33.98 19 35 C17.88625 35.5878125 17.88625 35.5878125 16.75 36.1875 C11.77911559 39.46376473 9.49597469 43.69550131 7.22265625 49.03515625 C6 51 6 51 3.390625 52.66796875 C0.69575742 55.29678566 0.64036293 55.7549674 0.51171875 59.328125 C0.54481023 60.96946243 0.60424118 62.61044165 0.6875 64.25 C0.71005859 65.09046875 0.73261719 65.9309375 0.75585938 66.796875 C0.81462286 68.86534964 0.90430115 70.93290488 1 73 C4.23253661 73.9198036 5.6861785 74.03549111 8.75 72.5625 C9.8225 72.046875 10.895 71.53125 12 71 C12 70.67 12 70.34 12 70 C10.35 70 8.7 70 7 70 C7 68.68 7 67.36 7 66 C7.53625 66.33 8.0725 66.66 8.625 67 C11.83509397 68.35161851 13.51480955 68.52606648 17 68 C22.03054849 65.42442809 26.96456838 62.47022247 29 57 C30.58851453 50.44422576 29.76991404 46.09381089 27 40 C26.44570312 40.433125 25.89140625 40.86625 25.3203125 41.3125 C24.59585938 41.869375 23.87140625 42.42625 23.125 43 C22.40570313 43.556875 21.68640625 44.11375 20.9453125 44.6875 C19 46 19 46 17 46 C16.505 44.515 16.505 44.515 16 43 C16.70125 42.979375 17.4025 42.95875 18.125 42.9375 C22.36757751 41.55405081 24.42179573 38.53279256 27 35 C28.9791404 31.04171921 28.66156177 26.1658774 27.38671875 21.9921875 C25.22600941 17.59462048 22.37598234 15.67160113 18 13.62890625 C15.7134597 12.80001871 15.7134597 12.80001871 12 13 C11.67 12.01 11.34 11.02 11 10 C13.31 10.33 15.62 10.66 18 11 C16.95902262 8.2556051 16.02715813 7.0212861 13.6875 5.1875 C10.5761278 3.81270763 9.19123321 3.99704099 6 5 C4.80576118 11.18832842 4.89939401 14.46320359 8 20 C8.99 20.66 9.98 21.32 11 22 C11.33 22.99 11.66 23.98 12 25 C8.02643425 23.67547808 7.10501183 21.82561289 5.01171875 18.32421875 C2.75020416 13.1288474 3.61478395 7.36771218 5 2 C4.01 2 3.02 2 2 2 Z " fill="#100D02" transform="translate(100,99)"/>
<path d="M0 0 C2.23331761 3.58736458 2.25873015 6.56487367 2.2746582 10.74047852 C2.27976913 11.40924011 2.28488007 12.07800171 2.29014587 12.76702881 C2.30401309 14.97107969 2.3030878 17.17481701 2.30078125 19.37890625 C2.30466883 20.91300065 2.30900363 22.44709398 2.31376648 23.98118591 C2.32122179 27.19314061 2.32094175 30.40498535 2.31567383 33.61694336 C2.30986992 37.73527175 2.32683534 41.85315177 2.3500185 45.97140598 C2.364738 49.13781876 2.36563018 52.30412297 2.36250877 55.47056389 C2.36302255 56.98923572 2.36827096 58.50791354 2.37832069 60.0265522 C2.39063829 62.14763868 2.38392347 64.26784398 2.37231445 66.38891602 C2.37294388 67.59596695 2.3735733 68.80301788 2.3742218 70.04664612 C2 73 2 73 0.70329285 74.91319275 C-1.7782817 76.49659235 -3.93856535 76.11461569 -6.75390625 75.64453125 C-10.88317679 74.45961014 -14.3552659 72.2196759 -18 70 C-19.24981269 69.35380426 -20.49979731 68.70794087 -21.75 68.0625 C-26.74399084 64.89323658 -30.49712762 60.87486475 -32 55 C-32.50148676 50.26274112 -32.40498112 46.87226703 -30.375 42.5 C-28.71047072 38.26301639 -29.34798141 36.49929333 -30.5 32.265625 C-31.6117711 27.22791221 -30.67255327 23.18817745 -28.125 18.6875 C-24.77844311 14.45508982 -24.77844311 14.45508982 -23 13 C-22.34 13 -21.68 13 -21 13 C-20.9071875 11.9171875 -20.9071875 11.9171875 -20.8125 10.8125 C-19.69371803 6.93979317 -18.16003068 5.50169095 -15 3 C-10.06708961 0.71977807 -5.46750881 -0.4205776 0 0 Z M-4 2 C-4.33 2.66 -4.66 3.32 -5 4 C-4.67 4.99 -4.34 5.98 -4 7 C-3.14241906 13.21133626 -4.17277544 17.26149797 -7.61328125 22.46875 C-9 24 -9 24 -12 25 C-11 22 -11 22 -8.5 19.875 C-5.55321644 16.48619891 -5.26067873 14.51657503 -4.84765625 10.18359375 C-5.02140284 7.69322602 -5.75243793 6.14075826 -7 4 C-11.66399644 4.12770647 -11.66399644 4.12770647 -15.578125 6.40234375 C-16.78844931 7.88046971 -17.90220903 9.43647953 -19 11 C-16.87060172 12.35026777 -16.87060172 12.35026777 -13.875 11.0625 C-12.92625 10.711875 -11.9775 10.36125 -11 10 C-11.33 10.99 -11.66 11.98 -12 13 C-13.546875 13.12375 -13.546875 13.12375 -15.125 13.25 C-20.57174014 14.30420777 -23.73412909 16.14338933 -26.875 20.75 C-28.67567279 25.95194361 -28.70871789 29.99196597 -26.875 35.1875 C-24.57836531 38.63245204 -22.35238601 40.5748697 -19 43 C-18.34 43 -17.68 43 -17 43 C-17.33 43.99 -17.66 44.98 -18 46 C-20.97 44.02 -23.94 42.04 -27 40 C-29.92917461 46.98495483 -30.55840673 51.78073348 -28 59 C-25.25596139 63.67502874 -21.81532576 65.75838284 -17 68 C-12.9950666 68.47116864 -10.4389365 68.11626861 -7 66 C-7 67.32 -7 68.64 -7 70 C-8.65 70 -10.3 70 -12 70 C-8.8083482 72.82338429 -6.23169259 73.62384955 -2 74 C0.16974123 71.83025877 -0.67598958 67.17966132 -0.625 64.1875 C-0.58761719 63.36701172 -0.55023438 62.54652344 -0.51171875 61.70117188 C-0.47764674 59.36723901 -0.51828354 57.28519529 -1 55 C-3.27779378 52.69337322 -3.27779378 52.69337322 -6 51 C-7.5546875 48.4140625 -7.5546875 48.4140625 -8.875 45.625 C-11.55552919 40.41053307 -14.30979944 37.47074842 -19 34 C-18.34 33.34 -17.68 32.68 -17 32 C-12.04068886 37.12070884 -8.52731182 42.29042166 -5.359375 48.6796875 C-4.06915857 51.2698799 -4.06915857 51.2698799 -1 53 C-1 36.5 -1 20 -1 3 C-1.99 2.67 -2.98 2.34 -4 2 Z " fill="#0A0901" transform="translate(94,99)"/>
<path d="M0 0 C0.99 0 1.98 0 3 0 C2.835 0.639375 2.67 1.27875 2.5 1.9375 C1.29889357 9.29427686 1.4199471 14.1220821 5.61328125 20.46875 C7.02714622 22.28177877 7.02714622 22.28177877 10 23 C9.22156216 19.82182064 9.22156216 19.82182064 6.5 17.8125 C3.35952795 14.27946894 2.79349774 11.65568737 3 7 C3.9375 4 3.9375 4 5 2 C11.35714286 2.48901099 11.35714286 2.48901099 14.4375 4.9375 C16 7 16 7 16 9 C13.69 8.67 11.38 8.34 9 8 C9.33 8.99 9.66 9.98 10 11 C11.03125 11.0825 12.0625 11.165 13.125 11.25 C18.5449666 12.29902579 21.70219422 14.13981171 24.875 18.6875 C26.31631514 22.93137236 26.73119554 26.56514009 26 31 C24.1875 34.375 24.1875 34.375 22 37 C21.2575 37.9590625 21.2575 37.9590625 20.5 38.9375 C19 40 19 40 16.8125 39.6875 C16.214375 39.460625 15.61625 39.23375 15 39 C15.7425 38.62875 16.485 38.2575 17.25 37.875 C20.60326619 35.58868214 22.13067274 33.60018583 24 30 C24.64987517 24.80099864 23.88402967 21.37576915 21 17 C17.61101532 14.39308871 16.37265387 14 12 14 C12 18.95 12 23.9 12 29 C13.65 28.67 15.3 28.34 17 28 C15.948125 28.9590625 15.948125 28.9590625 14.875 29.9375 C9.57061012 35.24188988 5.89207054 42.06132149 2.078125 48.46875 C1 50 1 50 -1 51 C-1.02526787 43.89755001 -1.04283201 36.79511152 -1.05493164 29.69262695 C-1.05997349 27.27432828 -1.06680678 24.85603267 -1.07543945 22.43774414 C-1.08751157 18.97020717 -1.09322963 15.50271034 -1.09765625 12.03515625 C-1.10281754 10.94662857 -1.10797882 9.85810089 -1.11329651 8.73658752 C-1.11337204 7.73562546 -1.11344757 6.73466339 -1.11352539 5.70336914 C-1.115746 4.81734512 -1.11796661 3.93132111 -1.12025452 3.01844788 C-1 1 -1 1 0 0 Z " fill="#FDF246" transform="translate(102,101)"/>
<path d="M0 0 C0.66 0.33 1.32 0.66 2 1 C2 17.17 2 33.34 2 50 C5.34834936 44.64301113 5.34834936 44.64301113 8.6953125 39.28515625 C9.40300781 38.18494141 9.40300781 38.18494141 10.125 37.0625 C10.60195312 36.31097656 11.07890625 35.55945313 11.5703125 34.78515625 C13 33 13 33 16 32 C16.33 31.01 16.66 30.02 17 29 C17.99 29.66 18.98 30.32 20 31 C19 34 19 34 16.6875 35.3125 C12.33029831 38.04841734 10.38673456 42.29928807 7.9375 46.6875 C5.27230047 51.24413146 5.27230047 51.24413146 3 53 C2.34 53 1.68 53 1 53 C1.33 59.6 1.66 66.2 2 73 C1.01 73 0.02 73 -1 73 C-2.12948862 69.61153413 -2.13387028 67.02175946 -2.14526367 63.44897461 C-2.14862228 62.78850632 -2.1519809 62.12803802 -2.15544128 61.44755554 C-2.16493571 59.26579913 -2.16689336 57.08411953 -2.16796875 54.90234375 C-2.1711814 53.38684558 -2.17454548 51.87134773 -2.17805481 50.35585022 C-2.1840416 47.18082967 -2.18589507 44.00583634 -2.18530273 40.83081055 C-2.18520091 36.7561766 -2.19887573 32.68171613 -2.21607494 28.60712337 C-2.2271728 25.4785125 -2.22922266 22.34994393 -2.22869301 19.22131538 C-2.2298756 17.71856651 -2.23431296 16.21581663 -2.24202538 14.71308708 C-2.25178473 12.61580969 -2.24896406 10.51891394 -2.24291992 8.42163086 C-2.24434494 7.227108 -2.24576996 6.03258514 -2.24723816 4.80186462 C-2 2 -2 2 0 0 Z " fill="#322B05" transform="translate(100,101)"/>
<path d="M0 0 C0.99 0.33 1.98 0.66 3 1 C3 17.5 3 34 3 51 C-2.67790262 45.32209738 -2.67790262 45.32209738 -4.375 41.8125 C-4.71273437 41.13832031 -5.05046875 40.46414062 -5.3984375 39.76953125 C-5.59695312 39.18558594 -5.79546875 38.60164063 -6 38 C-5.67 37.34 -5.34 36.68 -5 36 C-4.67 36.33 -4.34 36.66 -4 37 C-3.67 32.38 -3.34 27.76 -3 23 C-3.66 22.67 -4.32 22.34 -5 22 C-4.6390625 21.52691406 -4.278125 21.05382812 -3.90625 20.56640625 C-0.21305356 15.30360132 0.83964594 11.38130916 0 5 C-0.19335938 4.27296875 -0.38671875 3.5459375 -0.5859375 2.796875 C-0.72257812 2.20390625 -0.85921875 1.6109375 -1 1 C-0.67 0.67 -0.34 0.34 0 0 Z " fill="#FEF448" transform="translate(90,101)"/>
<path d="M0 0 C0.33 0 0.66 0 1 0 C1.06946766 8.94463131 1.12279465 17.88916996 1.15543652 26.83401203 C1.17110189 30.98733857 1.19235582 35.14048075 1.22631836 39.29370117 C1.2588811 43.30075585 1.27684645 47.30763304 1.28463173 51.3148098 C1.29018082 52.84466535 1.30101676 54.37451103 1.31719017 55.90429115 C1.33892415 58.04488855 1.34196872 60.18474973 1.34057617 62.32543945 C1.34723801 63.54455521 1.35389984 64.76367096 1.36076355 66.01972961 C1 69 1 69 -0.29472351 70.91716003 C-2.7781357 72.49411133 -4.93974653 72.11441847 -7.75390625 71.64453125 C-11.88317679 70.45961014 -15.3552659 68.2196759 -19 66 C-20.24981269 65.35380426 -21.49979731 64.70794087 -22.75 64.0625 C-27.77014851 60.87663652 -31.40776023 56.89128716 -33 51 C-32.67 50.01 -32.34 49.02 -32 48 C-31.01 47.505 -31.01 47.505 -30 47 C-29.84144531 47.59167969 -29.68289062 48.18335938 -29.51953125 48.79296875 C-27.69712995 54.96496872 -25.51787935 58.61692044 -20.0625 62.3125 C-16.00498872 63.66500376 -12.03606507 63.24186618 -8 62 C-8 63.32 -8 64.64 -8 66 C-9.485 66.495 -9.485 66.495 -11 67 C-8.09399739 68.25664978 -6.20395416 69 -3 69 C-2.67 63.39 -2.34 57.78 -2 52 C-1.67 52 -1.34 52 -1 52 C-0.67 34.84 -0.34 17.68 0 0 Z " fill="#28210F" transform="translate(95,103)"/>
<path d="M0 0 C0.33 1.32 0.66 2.64 1 4 C-0.299375 4.6496875 -0.299375 4.6496875 -1.625 5.3125 C-5.83672052 8.05361977 -7.59239045 12.26051126 -9.80078125 16.63671875 C-11 19 -11 19 -12 20 C-12.23481693 22.18292774 -12.41363323 24.37203174 -12.5625 26.5625 C-12.68818359 28.35880859 -12.68818359 28.35880859 -12.81640625 30.19140625 C-12.87699219 31.11824219 -12.93757813 32.04507813 -13 33 C-12.01 33.33 -11.02 33.66 -10 34 C-10.99 34 -11.98 34 -13 34 C-13 35.32 -13 36.64 -13 38 C-11.35 38 -9.7 38 -8 38 C-11.1916518 40.82338429 -13.76830741 41.62384955 -18 42 C-20.16974123 39.83025877 -19.32401042 35.17966132 -19.375 32.1875 C-19.41238281 31.36701172 -19.44976562 30.54652344 -19.48828125 29.70117188 C-19.52234884 27.36754176 -19.48095426 25.28502583 -19 23 C-16.66796875 20.76953125 -16.66796875 20.76953125 -14 19 C-12.29066116 16.36384847 -12.29066116 16.36384847 -10.9375 13.5 C-9.03909485 9.67163727 -7.26362449 6.79921009 -4 4 C-3.01 3.67 -2.02 3.34 -1 3 C-0.67 2.01 -0.34 1.02 0 0 Z " fill="#FEF246" transform="translate(120,131)"/>
<path d="M0 0 C0.61875 0.165 1.2375 0.33 1.875 0.5 C4.92432753 1.21748883 7.01229281 0.79672192 10 0 C9.51202438 0.67886765 9.02404877 1.35773529 8.52128601 2.05717468 C6.66146104 5.65488081 6.63789822 8.04556656 6.65942383 12.08520508 C6.65898575 12.77843872 6.65854767 13.47167236 6.65809631 14.18591309 C6.6601767 16.46407811 6.68347107 18.74149571 6.70703125 21.01953125 C6.7126299 22.60421853 6.71689873 24.18891101 6.71989441 25.77360535 C6.73132206 29.93462584 6.76077108 34.09532975 6.79400635 38.25622559 C6.82475225 42.50605996 6.83840938 46.75594572 6.85351562 51.00585938 C6.88564301 59.33738449 6.9368139 67.66865281 7 76 C5.68 76 4.36 76 3 76 C3.00222061 75.11716843 3.00444122 74.23433685 3.00672913 73.32475281 C3.02675356 65.01106707 3.04198515 56.69738941 3.05181217 48.38368511 C3.05703414 44.10937663 3.06411938 39.83508805 3.07543945 35.56079102 C3.08629265 31.43704342 3.09228202 27.31331499 3.09487724 23.18955421 C3.09672709 21.61506664 3.1003393 20.04058013 3.10573006 18.46610069 C3.11297274 16.26342871 3.11398957 14.06083624 3.11352539 11.8581543 C3.115746 10.60350876 3.11796661 9.34886322 3.12025452 8.05619812 C2.97526395 4.37134765 2.630887 2.630887 0 0 Z " fill="#FEF84E" transform="translate(92,98)"/>
<path d="M0 0 C0.763125 0.78375 1.52625 1.5675 2.3125 2.375 C4.90891805 5.07257717 4.90891805 5.07257717 8 7 C8.34057617 8.87939453 8.34057617 8.87939453 8.29296875 11.1328125 C8.28330078 11.93847656 8.27363281 12.74414062 8.26367188 13.57421875 C8.23853516 14.41597656 8.21339844 15.25773438 8.1875 16.125 C8.17396484 16.97449219 8.16042969 17.82398438 8.14648438 18.69921875 C8.11108219 20.79974837 8.05727401 22.89995293 8 25 C3.29148227 26.33978732 1.35949259 25.0959099 -3 23 C-3 22.67 -3 22.34 -3 22 C-1.35 22 0.3 22 2 22 C2 20.68 2 19.36 2 18 C1.443125 18.33 0.88625 18.66 0.3125 19 C-2.30284522 20.1309601 -4.1806646 20.15662974 -7 20 C-4.33440687 18.22293791 -1.9719385 17.12451727 1 16 C1.02712153 14.083412 1.04645097 12.1667127 1.0625 10.25 C1.07410156 9.18265625 1.08570312 8.1153125 1.09765625 7.015625 C1.01510087 4.46631499 0.74617558 2.42066409 0 0 Z " fill="#FEF247" transform="translate(85,147)"/>
<path d="M0 0 C6.83571917 -0.52582455 12.74625028 1.12187523 18 5.5 C20 8 20 8 21 11 C14.375 14.125 14.375 14.125 11 13 C11 12.01 11 11.02 11 10 C13.31 10.33 15.62 10.66 18 11 C16.45198044 8.4158995 16.45198044 8.4158995 14 6 C10.35817665 5.10944264 10.35817665 5.10944264 7 5 C5.80576118 11.18832842 5.89939401 14.46320359 9 20 C9.99 20.66 10.98 21.32 12 22 C12 22.99 12 23.98 12 25 C9.53132589 24.62020398 8.27788151 24.28665672 6.515625 22.46875 C3.16222723 17.25235347 2.07271956 13.17404446 3 7 C4 3.9375 4 3.9375 5 2 C3.02 2.33 1.04 2.66 -1 3 C-0.67 2.01 -0.34 1.02 0 0 Z " fill="#110E01" transform="translate(100,99)"/>
<path d="M0 0 C1.08358521 5.87485958 1.5368611 9.82102482 -2 15 C-2.99 15.66 -3.98 16.32 -5 17 C-5 18.32 -5 19.64 -5 21 C-5.66 21 -6.32 21 -7 21 C-7 19.02 -7 17.04 -7 15 C-6.34 15 -5.68 15 -5 15 C-5 11.7 -5 8.4 -5 5 C-7.64 5.66 -10.28 6.32 -13 7 C-10.00607699 1.16972888 -6.69232264 -2.1033014 0 0 Z " fill="#FBF047" transform="translate(88,104)"/>
<path d="M0 0 C0.74886475 0.00523682 1.49772949 0.01047363 2.26928711 0.01586914 C3.07817383 0.0190918 3.88706055 0.02231445 4.72045898 0.02563477 C5.5705957 0.03401367 6.42073242 0.04239258 7.29663086 0.05102539 C8.15063477 0.05553711 9.00463867 0.06004883 9.88452148 0.06469727 C12.00108749 0.07652166 14.11761771 0.0944577 16.23413086 0.11352539 C16.56413086 0.77352539 16.89413086 1.43352539 17.23413086 2.11352539 C16.24413086 2.11352539 15.25413086 2.11352539 14.23413086 2.11352539 C14.13100586 2.89727539 14.02788086 3.68102539 13.92163086 4.48852539 C13.23413086 7.11352539 13.23413086 7.11352539 10.23413086 9.11352539 C6.50117931 9.5900724 4.88996167 9.61402785 1.85913086 7.30102539 C0.23413086 5.11352539 0.23413086 5.11352539 0.23413086 2.11352539 C-0.75586914 1.78352539 -1.74586914 1.45352539 -2.76586914 1.11352539 C-1.76586914 0.11352539 -1.76586914 0.11352539 0 0 Z " fill="#353859" transform="translate(89.765869140625,187.886474609375)"/>
<path d="M0 0 C0.99 0.66 1.98 1.32 3 2 C3 3.96890543 2.99351144 5.93850987 2.92578125 7.90625 C3.04233772 11.19436929 4.21079464 13.28534359 6 16 C8.68673501 18.48522988 10.52547139 19.8418238 14 21 C13.67 22.32 13.34 23.64 13 25 C9.84866512 23.16172132 6.88035092 21.24027294 4 19 C1.99706653 22.00440021 1.50728374 23.70993945 0.875 27.1875 C0.70742187 28.08855469 0.53984375 28.98960937 0.3671875 29.91796875 C0.24601562 30.60503906 0.12484375 31.29210937 0 32 C-2 30 -2 30 -2.046875 27.72265625 C-1.94890625 26.84480469 -1.8509375 25.96695313 -1.75 25.0625 C-1.66234375 24.18722656 -1.5746875 23.31195313 -1.484375 22.41015625 C-1 20 -1 20 1 17 C0.76492238 14.95862042 0.76492238 14.95862042 0.0625 12.8125 C-1.13481225 8.16052245 -0.85520209 4.70361147 0 0 Z " fill="#171408" transform="translate(64,121)"/>
<path d="M0 0 C0.99 0.33 1.98 0.66 3 1 C1.36503491 8.51062088 -1.63222653 12.69585682 -8 17 C-11.5 18.6875 -11.5 18.6875 -15 20 C-16.38023715 20.71920403 -17.75514966 21.44870431 -19.125 22.1875 C-22.21837122 23.770295 -24.46566488 24.44179189 -28 24 C-26.694761 21.38952199 -25.64173426 21.31933577 -22.9375 20.375 C-21.83728516 19.98441406 -21.83728516 19.98441406 -20.71484375 19.5859375 C-20.14894531 19.39257812 -19.58304688 19.19921875 -19 19 C-19.99 18.67 -20.98 18.34 -22 18 C-22 16.68 -22 15.36 -22 14 C-21.3709375 14.13019531 -20.741875 14.26039063 -20.09375 14.39453125 C-15.2458628 15.17574199 -11.87346081 15.45194305 -7.5625 12.875 C-3.52330008 9.92703554 -1.50766435 7.07680871 -0.3125 2.1875 C-0.209375 1.465625 -0.10625 0.74375 0 0 Z " fill="#1C1A15" transform="translate(129,151)"/>
<path d="M0 0 C0.66 0.33 1.32 0.66 2 1 C1.360625 1.598125 0.72125 2.19625 0.0625 2.8125 C-2.20310389 4.90810337 -2.20310389 4.90810337 -3 8 C-2.34 8.33 -1.68 8.66 -1 9 C-1.66 9 -2.32 9 -3 9 C-3.08636719 9.57234375 -3.17273438 10.1446875 -3.26171875 10.734375 C-4.20882112 13.64082671 -5.66053601 15.0940435 -7.8125 17.25 C-8.84310547 18.30960938 -8.84310547 18.30960938 -9.89453125 19.390625 C-12 21 -12 21 -16 21 C-16.41841612 17.58596704 -16.25315694 16.3338275 -14.13671875 13.54296875 C-13.32847656 12.76566406 -12.52023438 11.98835938 -11.6875 11.1875 C-10.48673828 10.00220703 -10.48673828 10.00220703 -9.26171875 8.79296875 C-7 7 -7 7 -4 7 C-3.896875 6.401875 -3.79375 5.80375 -3.6875 5.1875 C-2.91123545 2.71756736 -1.92911079 1.67748765 0 0 Z " fill="#FEEE3F" transform="translate(145,84)"/>
<path d="M0 0 C0.99 0.66 1.98 1.32 3 2 C0.2594938 3.82700413 -0.87189957 4.29836115 -3.9375 4.875 C-7.68123395 5.76113152 -9.64525814 6.83015519 -12 10 C-12.433125 11.2065625 -12.433125 11.2065625 -12.875 12.4375 C-14.19396252 15.44180352 -16.0009052 16.57791584 -18.53125 18.5625 C-21.23478625 21.2085142 -22.31616622 24.33031772 -23 28 C-22.97941921 31.71826351 -22.19413389 35.20581589 -21.3125 38.8125 C-21 41 -21 41 -23 44 C-23.66 44 -24.32 44 -25 44 C-24.814375 42.88625 -24.62875 41.7725 -24.4375 40.625 C-23.68319343 37.17431139 -23.68319343 37.17431139 -25 35 C-25.84273499 28.52297964 -25.12109126 24.0630712 -21.38671875 18.69140625 C-20 17 -20 17 -18.42578125 15.4609375 C-16.32127527 13.30453959 -15.31875617 10.69246052 -14 8 C-11.76565728 4.34006438 -10.00424656 3.3538406 -5.875 2.3125 C-2.654409 1.67851089 -2.654409 1.67851089 0 0 Z " fill="#FCED40" transform="translate(87,97)"/>
<path d="M0 0 C4.57167782 5.61069551 5.23901086 9.94917972 5 17 C4.34 17 3.68 17 3 17 C2.01 13.37 1.02 9.74 0 6 C-2.3984964 5.78087708 -2.3984964 5.78087708 -4.9375 8.5625 C-5.948125 9.366875 -6.95875 10.17125 -8 11 C-8.99 10.67 -9.98 10.34 -11 10 C-11 9.01 -11 8.02 -11 7 C-9.948125 6.6596875 -9.948125 6.6596875 -8.875 6.3125 C-5.30656387 4.68343133 -2.93485489 2.59359269 0 0 Z " fill="#181408" transform="translate(127,135)"/>
<path d="M0 0 C3.51149841 0.58395206 5.29031758 1.83279645 7.8125 4.3125 C8.43769531 4.90675781 9.06289063 5.50101562 9.70703125 6.11328125 C11 8 11 8 10.69921875 10.23046875 C10.46847656 10.81441406 10.23773438 11.39835937 10 12 C7.1657676 11.91664022 5.44298455 11.38608745 3.296875 9.515625 C0.13129894 6.05420072 0.13129894 6.05420072 -1 4 C-0.6640625 1.76953125 -0.6640625 1.76953125 0 0 Z " fill="#FAE840" transform="translate(44,82)"/>
<path d="M0 0 C0.33 0 0.66 0 1 0 C1.02578125 0.7734375 1.0515625 1.546875 1.078125 2.34375 C1.5428986 10.87868343 2.68195331 16.68195331 8.8125 22.8125 C12.16122819 25.1106468 15.2622768 26.46093751 19 28 C19.33 28.66 19.66 29.32 20 30 C17.03 29.34 14.06 28.68 11 28 C11 27.34 11 26.68 11 26 C10.1646875 25.690625 10.1646875 25.690625 9.3125 25.375 C4.35362813 22.42648159 1.01790712 17.31028189 -1 12 C-1.43387281 7.9294842 -1.30351908 3.91055723 0 0 Z " fill="#FDED42" transform="translate(61,142)"/>
<path d="M0 0 C5.94 0 11.88 0 18 0 C18 0.99 18 1.98 18 3 C12.06 3 6.12 3 0 3 C0 2.01 0 1.02 0 0 Z " fill="#2D3570" transform="translate(88,184)"/>
<path d="M0 0 C0.33 0 0.66 0 1 0 C1.15855469 0.59167969 1.31710938 1.18335938 1.48046875 1.79296875 C3.31578188 8.00869776 5.46973111 11.99633388 11.3125 15.3125 C11.869375 15.539375 12.42625 15.76625 13 16 C12.67 16.99 12.34 17.98 12 19 C5.73556695 15.80636746 1.90112731 12.71583974 -1.375 6.3125 C-2 4 -2 4 -1 1 C-0.67 0.67 -0.34 0.34 0 0 Z " fill="#231F14" transform="translate(64,150)"/>
<path d="M0 0 C3.30429164 2.85370642 4.6471115 5.65514876 5.296875 9.97265625 C5.71412491 16.54434229 3.60944729 21.56631854 0 27 C-2.8125 29.625 -2.8125 29.625 -5 31 C-3.82690214 28.45828796 -2.5091503 26.27116256 -0.9375 23.9375 C2.47276712 18.76709501 2.5463943 14.02855048 2 8 C1.22465589 5.44857695 0.24073247 3.37807056 -1 1 C-0.67 0.67 -0.34 0.34 0 0 Z " fill="#FEEF43" transform="translate(129,136)"/>
<path d="M0 0 C1.32 0.33 2.64 0.66 4 1 C3.46930939 4.82097239 2.50298434 7.06171403 0 10 C-1.32 9.67 -2.64 9.34 -4 9 C-3.46930939 5.17902761 -2.50298434 2.93828597 0 0 Z " fill="#FDEC3F" transform="translate(122,75)"/>
<path d="M0 0 C2.25 0.125 2.25 0.125 5 1 C7.3125 4.0625 7.3125 4.0625 9 7 C8.34 7.66 7.68 8.32 7 9 C5.68 9 4.36 9 3 9 C0.43228397 5.69865082 0 4.27125508 0 0 Z " fill="#FEEE40" transform="translate(76,87)"/>
<path d="M0 0 C0.66 0.33 1.32 0.66 2 1 C2 1.66 2 2.32 2 3 C2.59296875 3.22429687 3.1859375 3.44859375 3.796875 3.6796875 C6.64501417 5.38655104 7.62802017 7.24967212 9.25 10.125 C9.77078125 11.03507813 10.2915625 11.94515625 10.828125 12.8828125 C11.40820312 13.93082031 11.40820312 13.93082031 12 15 C11.01 15.33 10.02 15.66 9 16 C8.70867187 15.48050781 8.41734375 14.96101562 8.1171875 14.42578125 C5.27299212 9.58707149 2.50278218 6.35090767 -2 3 C-1.34 2.01 -0.68 1.02 0 0 Z " fill="#130F03" transform="translate(76,130)"/>
<path d="M0 0 C0 0.66 0 1.32 0 2 C-6.6 2 -13.2 2 -20 2 C-20 1.34 -20 0.68 -20 0 C-13.14975385 -1.37004923 -6.85024615 -1.37004923 0 0 Z " fill="#D7F7FF" transform="translate(107,175)"/>
<path d="M0 0 C-0.55959523 3.82246588 -2.21317357 5.58971741 -4.9375 8.25 C-5.64777344 8.95640625 -6.35804688 9.6628125 -7.08984375 10.390625 C-9 12 -9 12 -11 12 C-10.44040477 8.17753412 -8.78682643 6.41028259 -6.0625 3.75 C-5.35222656 3.04359375 -4.64195312 2.3371875 -3.91015625 1.609375 C-2 0 -2 0 0 0 Z " fill="#161105" transform="translate(141,92)"/>
<path d="M0 0 C3.3 0 6.6 0 10 0 C9.67 1.32 9.34 2.64 9 4 C6.1875 4.6875 6.1875 4.6875 3 5 C1.125 3.6875 1.125 3.6875 0 2 C0 1.34 0 0.68 0 0 Z " fill="#D8F4FF" transform="translate(92,190)"/>
<path d="M0 0 C1.1055189 0.93590504 2.20935453 1.87379858 3.3125 2.8125 C3.92738281 3.33457031 4.54226562 3.85664063 5.17578125 4.39453125 C8.51952278 7.3373102 8.51952278 7.3373102 10 9 C10 9.66 10 10.32 10 11 C6.14896699 10.46324097 4.68202413 8.88399077 2.25 5.9375 C1.63640625 5.20402344 1.0228125 4.47054687 0.390625 3.71484375 C-0.06828125 3.14894531 -0.5271875 2.58304688 -1 2 C-0.67 1.34 -0.34 0.68 0 0 Z " fill="#495370" transform="translate(139,178)"/>
<path d="M0 0 C2.125 0.375 2.125 0.375 4 1 C3.38461538 6.53846154 3.38461538 6.53846154 1.4375 8.875 C0.7259375 9.431875 0.7259375 9.431875 0 10 C-0.99 9.67 -1.98 9.34 -3 9 C-2.34 8.401875 -1.68 7.80375 -1 7.1875 C1.3373846 5.12498166 1.3373846 5.12498166 1 2 C0.54625 2.825 0.0925 3.65 -0.375 4.5 C-0.91125 5.325 -1.4475 6.15 -2 7 C-2.66 7 -3.32 7 -4 7 C-2.92598892 4.08482708 -2.22189824 2.22189824 0 0 Z " fill="#FBEB3E" transform="translate(115,86)"/>
<path d="M0 0 C3.63 0 7.26 0 11 0 C10.67 0.99 10.34 1.98 10 3 C6.7 3 3.4 3 0 3 C0 2.01 0 1.02 0 0 Z " fill="#3C3414" transform="translate(39,135)"/>
<path d="M0 0 C9.36498258 3.60191638 9.36498258 3.60191638 12.25 8.25 C11.26 8.745 11.26 8.745 10.25 9.25 C9.775625 8.651875 9.30125 8.05375 8.8125 7.4375 C5.76849563 4.83895969 3.07698414 4.03502874 -0.7265625 2.9609375 C-2.75 2.25 -2.75 2.25 -4.75 0.25 C-2.75 -0.75 -2.75 -0.75 0 0 Z " fill="#FBED41" transform="translate(108.75,97.75)"/>
<path d="M0 0 C0.33 0.66 0.66 1.32 1 2 C3.64 2 6.28 2 9 2 C9 1.34 9 0.68 9 0 C9.66 0 10.32 0 11 0 C10.625 1.9375 10.625 1.9375 10 4 C7.22899606 5.38550197 5.0665294 5.1877467 2 5 C1.01 4.34 0.02 3.68 -1 3 C-0.67 2.01 -0.34 1.02 0 0 Z " fill="#414355" transform="translate(92,192)"/>
<path d="M0 0 C0.99 0.66 1.98 1.32 3 2 C2 5 2 5 -0.9375 6.6875 C-4 8 -4 8 -6 8 C-5.1875 6.0625 -5.1875 6.0625 -4 4 C-3.01 3.67 -2.02 3.34 -1 3 C-0.67 2.01 -0.34 1.02 0 0 Z " fill="#1E1902" transform="translate(117,130)"/>
<path d="M0 0 C0.66 0 1.32 0 2 0 C3.0064275 1.66279327 4.00585407 3.32983484 5 5 C5.99 5.66 6.98 6.32 8 7 C8 7.99 8 8.98 8 10 C6.25 9.875 6.25 9.875 4 9 C0 3.88888889 0 3.88888889 0 0 Z " fill="#040300" transform="translate(104,114)"/>
<path d="M0 0 C-1.59092052 4.13639336 -4.60474918 7.23213248 -8 10 C-8.66 10 -9.32 10 -10 10 C-8.50006099 6.10015857 -4.53875449 0 0 0 Z " fill="#494B58" transform="translate(54,179)"/>
<path d="M0 0 C1.485 0.99 1.485 0.99 3 2 C2.67 5.3 2.34 8.6 2 12 C1.34 12 0.68 12 0 12 C-1.28571429 3.42857143 -1.28571429 3.42857143 0 0 Z " fill="#1F1A04" transform="translate(64,121)"/>
<path d="M0 0 C3.3 1.65 6.6 3.3 10 5 C10 5.99 10 6.98 10 8 C6.7 6.35 3.4 4.7 0 3 C0 2.01 0 1.02 0 0 Z " fill="#2F3442" transform="translate(150,157)"/>
<path d="M0 0 C1.13199353 0.9080162 2.25532363 1.82683826 3.375 2.75 C4.00148438 3.26046875 4.62796875 3.7709375 5.2734375 4.296875 C7.08312318 6.08199481 8.00117455 7.67949644 9 10 C5.78956118 8.61811547 3.95063635 7.07578097 1.75 4.375 C1.22921875 3.74335937 0.7084375 3.11171875 0.171875 2.4609375 C-0.21484375 1.97882813 -0.6015625 1.49671875 -1 1 C-0.67 0.67 -0.34 0.34 0 0 Z " fill="#12110D" transform="translate(45,83)"/>
<path d="M0 0 C3.95820859 0.56545837 6.6659053 1.80902348 10 4 C9.34 4.66 8.68 5.32 8 6 C5.36 4.68 2.72 3.36 0 2 C0 1.34 0 0.68 0 0 Z " fill="#15120A" transform="translate(45,114)"/>
<path d="M0 0 C-1.28299758 2.86207152 -2.530636 5.0245088 -5 7 C-5.99 7 -6.98 7 -8 7 C-6.13932792 2.84926997 -4.83061881 0 0 0 Z " fill="#2D250D" transform="translate(150,84)"/>
<path d="M0 0 C-0.33 0.99 -0.66 1.98 -1 3 C-3.06640625 3.94921875 -3.06640625 3.94921875 -5.5625 4.6875 C-6.38878906 4.93886719 -7.21507812 5.19023438 -8.06640625 5.44921875 C-8.70449219 5.63097656 -9.34257812 5.81273438 -10 6 C-9 3 -9 3 -6.125 1.3125 C-3 0 -3 0 0 0 Z " fill="#181509" transform="translate(149,114)"/>
<path d="M0 0 C3.71888239 0.50712033 6.73454239 1.11608215 10 3 C10 3.66 10 4.32 10 5 C6.28111761 4.49287967 3.26545761 3.88391785 0 2 C0 1.34 0 0.68 0 0 Z " fill="#231F15" transform="translate(31,108)"/>
<path d="M0 0 C3.63 0 7.26 0 11 0 C11 0.99 11 1.98 11 3 C7.37 2.67 3.74 2.34 0 2 C0 1.34 0 0.68 0 0 Z " fill="#2D2C27" transform="translate(23,135)"/>
<path d="M0 0 C-3.28804981 2.91227269 -5.59885603 4.49701212 -10 5 C-10 4.34 -10 3.68 -10 3 C-3.375 -1.125 -3.375 -1.125 0 0 Z " fill="#353C4B" transform="translate(44,159)"/>
<path d="M0 0 C0 3.86695678 -1.41909971 6.5088452 -3 10 C-3.99 10 -4.98 10 -6 10 C-4.79157144 5.56909529 -3.48331435 3.01887244 0 0 Z " fill="#0F0C03" transform="translate(112,137)"/>
<path d="M0 0 C2.0245738 1.93254772 3.42105792 3.63158688 5 6 C5 6.99 5 7.98 5 9 C2 8 2 8 0.25 5.625 C-1 3 -1 3 0 0 Z " fill="#130F04" transform="translate(71,76)"/>
<path d="M0 0 C1.32 0.33 2.64 0.66 4 1 C3.01 1 2.02 1 1 1 C1 2.32 1 3.64 1 5 C2.65 5 4.3 5 6 5 C4.25 6.5625 4.25 6.5625 2 8 C-0.25 7.6875 -0.25 7.6875 -2 7 C-1.34 7 -0.68 7 0 7 C0 4.69 0 2.38 0 0 Z " fill="#FFF54D" transform="translate(106,164)"/>
<path d="M0 0 C-0.33 0.66 -0.66 1.32 -1 2 C-3.06640625 2.6328125 -3.06640625 2.6328125 -5.5625 3.125 C-6.38878906 3.29257813 -7.21507813 3.46015625 -8.06640625 3.6328125 C-8.70449219 3.75398437 -9.34257813 3.87515625 -10 4 C-7.6604297 0.49064455 -4.21379901 -2.1068995 0 0 Z " fill="#F5EA3E" transform="translate(123,168)"/>
<path d="M0 0 C-1 3 -1 3 -2.875 4.1875 C-5 5 -5 5 -8 5 C-8 4.34 -8 3.68 -8 3 C-5.09451118 0.95830515 -3.59857954 0 0 0 Z " fill="#25221B" transform="translate(55,152)"/>
<path d="M0 0 C1.65 0.99 3.3 1.98 5 3 C4.401875 3.268125 3.80375 3.53625 3.1875 3.8125 C1.02775192 4.98493467 -0.35790256 6.19369282 -2 8 C-1.125 2.25 -1.125 2.25 0 0 Z " fill="#FBEC42" transform="translate(67,139)"/>
<path d="M0 0 C2.97 0.495 2.97 0.495 6 1 C6.33 2.32 6.66 3.64 7 5 C4.5625 4.625 4.5625 4.625 2 4 C1.67 3.34 1.34 2.68 1 2 C0.01 2.495 0.01 2.495 -1 3 C-0.67 2.01 -0.34 1.02 0 0 Z " fill="#F9EB41" transform="translate(107,103)"/>
<path d="M0 0 C2.86697492 1.28519565 4.97607712 2.57129254 7 5 C7 5.66 7 6.32 7 7 C4.20171644 6.61402985 3.1794116 6.19863427 1.25 4.0625 C0 2 0 2 0 0 Z " fill="#141104" transform="translate(57,96)"/>
<path d="M0 0 C0.66 0.66 1.32 1.32 2 2 C0.7260411 4.03833424 -0.61061923 6.03852126 -2 8 C-2.66 8 -3.32 8 -4 8 C-3.40072174 4.64404172 -2.15377564 2.62198774 0 0 Z " fill="#201A04" transform="translate(123,76)"/>
<path d="M0 0 C3.375 0.3125 3.375 0.3125 7 1 C7.66 1.99 8.32 2.98 9 4 C4.545 3.01 4.545 3.01 0 2 C0 1.34 0 0.68 0 0 Z " fill="#F6E93A" transform="translate(72,168)"/>
<path d="M0 0 C2.31 0.33 4.62 0.66 7 1 C7 1.66 7 2.32 7 3 C5.02 3.33 3.04 3.66 1 4 C0.67 2.68 0.34 1.36 0 0 Z " fill="#060500" transform="translate(111,109)"/>
<path d="M0 0 C-0.33 0.66 -0.66 1.32 -1 2 C-3.64860427 2.59355614 -6.29197322 2.74209269 -9 3 C-8 1 -8 1 -5.0625 -0.1875 C-2 -1 -2 -1 0 0 Z " fill="#201F20" transform="translate(110,172)"/>
<path d="M0 0 C0.99 0.66 1.98 1.32 3 2 C-0.4352048 4.29013653 -1.985331 4.17842973 -6 4 C-6 3.34 -6 2.68 -6 2 C-3.1875 0.875 -3.1875 0.875 0 0 Z " fill="#FFF143" transform="translate(87,97)"/>
<path d="M0 0 C0.66 0.66 1.32 1.32 2 2 C0.02 4.97 0.02 4.97 -2 8 C-2.66 7.34 -3.32 6.68 -4 6 C-2.68 4.02 -1.36 2.04 0 0 Z " fill="#0C0A01" transform="translate(116,87)"/>
<path d="M0 0 C1.9375 0.6875 1.9375 0.6875 4 2 C4.75 4.625 4.75 4.625 5 7 C4.34 7 3.68 7 3 7 C0 2.61538462 0 2.61538462 0 0 Z " fill="#171201" transform="translate(77,88)"/>
<path d="M0 0 C2.46800047 1.15173355 4.04783565 2.04783565 6 4 C5.67 4.99 5.34 5.98 5 7 C3.29115995 5.37660195 1.62553283 3.70680947 0 2 C0 1.34 0 0.68 0 0 Z " fill="#272938" transform="translate(130,170)"/>
</svg>
